<?xml version="1.0" encoding="UTF-8" standalone="no"?>
<svg
   height="128px"
   viewBox="0 0 128 128"
   width="128px"
   version="1.1"
   id="svg16"
   sodipodi:docname="calculator.svg"
   inkscape:version="1.3.2 (091e20ef0f, 2023-11-25)"
   xml:space="preserve"
   xmlns:inkscape="http://www.inkscape.org/namespaces/inkscape"
   xmlns:sodipodi="http://sodipodi.sourceforge.net/DTD/sodipodi-0.dtd"
   xmlns:xlink="http://www.w3.org/1999/xlink"
   xmlns="http://www.w3.org/2000/svg"
   xmlns:svg="http://www.w3.org/2000/svg"
   xmlns:bx="https://boxy-svg.com"><sodipodi:namedview
     id="namedview16"
     pagecolor="#ffffff"
     bordercolor="#000000"
     borderopacity="0.25"
     inkscape:showpageshadow="2"
     inkscape:pageopacity="0.0"
     inkscape:pagecheckerboard="0"
     inkscape:deskcolor="#d1d1d1"
     inkscape:zoom="2.82372"
     inkscape:cx="97.920473"
     inkscape:cy="21.77978"
     inkscape:window-width="1536"
     inkscape:window-height="795"
     inkscape:window-x="0"
     inkscape:window-y="0"
     inkscape:window-maximized="1"
     inkscape:current-layer="svg16" /><defs
     id="defs6"><linearGradient
       id="linearGradient15"
       inkscape:collect="always"><stop
         style="stop-color:#5e5c64;stop-opacity:1;"
         offset="0"
         id="stop15" /><stop
         style="stop-color:#7e7b85;stop-opacity:1;"
         offset="0.5"
         id="stop17" /><stop
         style="stop-color:#5e5c64;stop-opacity:1;"
         offset="1"
         id="stop16" /></linearGradient><linearGradient
       id="linearGradient14"><stop
         style="stop-color:#292929;stop-opacity:1;"
         offset="0"
         id="stop9" /><stop
         style="stop-color:#313131;stop-opacity:1;"
         offset="0.0455"
         id="stop10" /><stop
         style="stop-color:#292929;stop-opacity:1;"
         offset="0.0909"
         id="stop11" /><stop
         style="stop-color:#292929;stop-opacity:1;"
         offset="0.9091"
         id="stop12" /><stop
         style="stop-color:#313131;stop-opacity:1;"
         offset="0.95450002"
         id="stop13" /><stop
         style="stop-color:#292929;stop-opacity:1;"
         offset="1"
         id="stop14" /></linearGradient><linearGradient
       id="gradient-1"
       bx:pinned="true"><stop
         offset="0"
         style="stop-color: rgb(154, 153, 150);"
         id="stop1" /><stop
         offset="0.041"
         style="stop-color: rgb(192, 191, 188);"
         id="stop2" /><stop
         offset="0.1002"
         style="stop-color: rgb(154, 153, 150);"
         id="stop3" /><stop
         offset="0.9"
         style="stop-color: rgb(154, 153, 150);"
         id="stop4" /><stop
         offset="0.95"
         style="stop-color: rgb(192, 191, 188);"
         id="stop5" /><stop
         offset="1"
         style="stop-color: rgb(154, 153, 150);"
         id="stop6" /></linearGradient><linearGradient
       id="gradient-1-0"
       gradientUnits="userSpaceOnUse"
       x1="63.287"
       y1="6.121"
       x2="63.287"
       y2="117.318"
       gradientTransform="matrix(-0.000842, 1.006025, -0.742502, -0.000621, 107.364352, 61.97522)"
       xlink:href="#gradient-1" /><linearGradient
       id="linearGradient3372"><stop
         style="stop-opacity: 1; stop-color: rgb(179, 179, 179);"
         offset="0"
         id="stop3360" /><stop
         style="stop-opacity: 1; stop-color: rgb(207, 207, 207);"
         offset="0.036"
         id="stop3362" /><stop
         style="stop-opacity: 1; stop-color: rgb(196, 196, 196);"
         offset="0.071"
         id="stop3364" /><stop
         style="stop-opacity: 1; stop-color: rgb(194, 194, 194);"
         offset="0.929"
         id="stop3366" /><stop
         style="stop-opacity: 1; stop-color: rgb(203, 203, 203);"
         offset="0.964"
         id="stop3368" /><stop
         style="stop-opacity: 1; stop-color: rgb(180, 180, 180);"
         offset="1"
         id="stop3370" /></linearGradient><linearGradient
       id="linearGradient18609"
       gradientUnits="userSpaceOnUse"
       x1="8"
       y1="292"
       x2="120"
       y2="292"
       gradientTransform="matrix(1.131846,0,0,0.93199,-8.195232,-157.17883)"
       xlink:href="#linearGradient3372" /><linearGradient
       id="linearGradient3"
       x1="20"
       y1="236"
       x2="108"
       y2="236"
       gradientUnits="userSpaceOnUse"
       gradientTransform="translate(20.903118,-154.88492)"
       xlink:href="#linearGradient2" /><linearGradient
       id="linearGradient2"><stop
         style="stop-color:#c0bfbc;stop-opacity:1;"
         offset="0"
         id="stop2-3" /><stop
         style="stop-color:#deddda;stop-opacity:1"
         offset="0.0455"
         id="stop4-6" /><stop
         style="stop-color:#c0bfbc;stop-opacity:1;"
         offset="0.0909"
         id="stop5-7" /><stop
         style="stop-color:#c0bfbc;stop-opacity:1;"
         offset="0.9091"
         id="stop6-5" /><stop
         style="stop-color:#deddda;stop-opacity:1"
         offset="0.9545"
         id="stop7" /><stop
         style="stop-color:#c0bfbc;stop-opacity:1;"
         offset="1"
         id="stop3-3" /></linearGradient><linearGradient
       inkscape:collect="always"
       xlink:href="#linearGradient14"
       id="linearGradient9"
       x1="18.67528"
       y1="68.132607"
       x2="111.93856"
       y2="68.132607"
       gradientUnits="userSpaceOnUse" /><linearGradient
       inkscape:collect="always"
       xlink:href="#linearGradient15"
       id="linearGradient16"
       x1="-15.75141"
       y1="11.35036"
       x2="7.4335831"
       y2="11.35036"
       gradientUnits="userSpaceOnUse" /><linearGradient
       inkscape:collect="always"
       xlink:href="#linearGradient15"
       id="linearGradient19"
       x1="-43.924019"
       y1="11.35036"
       x2="-20.739029"
       y2="11.35036"
       gradientUnits="userSpaceOnUse" /><linearGradient
       inkscape:collect="always"
       xlink:href="#linearGradient15"
       id="linearGradient20"
       x1="-43.924019"
       y1="39.662727"
       x2="-20.739029"
       y2="39.662727"
       gradientUnits="userSpaceOnUse" /><linearGradient
       inkscape:collect="always"
       xlink:href="#linearGradient15"
       id="linearGradient21"
       x1="-15.75141"
       y1="39.662727"
       x2="7.4335833"
       y2="39.662727"
       gradientUnits="userSpaceOnUse" /></defs><path
     id="rect6"
     style="fill:url(#linearGradient9);fill-opacity:1;stroke-width:1.06708"
     d="m 32.547116,8.4479693 h 65.51962 c 7.684984,0 13.871824,6.1868387 13.871824,13.8718367 v 91.625614 c 0,7.685 -6.18684,13.87183 -13.871824,13.87183 h -65.51962 c -7.684997,0 -13.871836,-6.18683 -13.871836,-13.87183 V 22.319806 c 0,-7.684998 6.186839,-13.8718367 13.871836,-13.8718367 z"
     sodipodi:nodetypes="sssssssss" /><rect
     style="fill:#313131;fill-opacity:1;stroke-width:1.03204"
     x="18.67528"
     y="0.93370163"
     width="93.264145"
     height="119.3693"
     rx="12.976094"
     ry="13.871838"
     id="rect7" /><path
     d="m 33.407171,12.843207 h 62.707102 c 2.483058,0 4.492337,2.009283 4.492337,4.49234 v 6.737445 c 0,2.483059 -2.009279,4.492342 -4.492337,4.492342 H 33.407171 c -2.483059,0 -4.492342,-2.009283 -4.492342,-4.492342 v -6.737445 c 0,-2.483057 2.009283,-4.49234 4.492342,-4.49234 z"
     style="fill:#447152;fill-opacity:1;stroke-width:1.06708"
     id="path7"
     sodipodi:nodetypes="sssssssss" /><path
     d="m 33.407171,37.364174 h 62.707102 c 2.483058,0 4.492337,-2.009283 4.492337,-4.491273 v -11.14425 c 0,-2.483058 -2.009279,-4.493407 -4.492337,-4.493407 H 33.407171 c -2.483059,0 -4.492342,2.010349 -4.492342,4.493407 v 11.14425 c 0,2.48199 2.009283,4.491273 4.492342,4.491273 z"
     style="fill:#739b7f;fill-opacity:1;stroke-width:1.06708"
     id="path8"
     sodipodi:nodetypes="sssssssss" /><g
     id="g1"
     transform="matrix(1.3360867,0,0,1.3360867,89.415961,51.894497)"><path
       d="m -43.92402,3.8980412 v 3.3121417 c 0,6.4237431 5.168752,11.5924951 11.592495,11.5924951 6.423742,0 11.592496,-5.168752 11.592496,-11.5924951 V 3.8980412 Z m 0,0"
       fill="#5e5c64"
       id="path10-3"
       style="stroke-width:1.65606;fill:url(#linearGradient19)" /><path
       d="m -32.331525,-7.6944545 c 6.404336,0 11.592496,5.1881584 11.592496,11.5924957 0,6.4043368 -5.18816,11.5924958 -11.592496,11.5924958 -6.404338,0 -11.592495,-5.188159 -11.592495,-11.5924958 0,-6.4043373 5.188157,-11.5924957 11.592495,-11.5924957 z m 0,0"
       fill="#9a9996"
       id="path11-6"
       style="stroke-width:1.65606;fill:#86838c;fill-opacity:1" /><path
       d="m -15.75141,3.8980412 v 3.3121417 c 0,6.4237431 5.168751,11.5924951 11.5924969,11.5924951 6.4172743,0 11.5924962,-5.168752 11.5924962,-11.5924951 V 3.8980412 Z m 0,0"
       fill="#5e5c64"
       id="path12-7"
       style="stroke-width:1.65606;fill:url(#linearGradient16)" /><path
       d="m -4.1783211,-7.6944545 c 6.4043362,0 11.5924962,5.1881584 11.5924962,11.5924957 0,6.4043368 -5.18816,11.5924958 -11.5924962,11.5924958 -6.4043379,0 -11.5924949,-5.188159 -11.5924949,-11.5924958 0,-6.4043373 5.188157,-11.5924957 11.5924949,-11.5924957 z m 0,0"
       fill="#9a9996"
       id="path13-5"
       style="stroke-width:1.65606;fill:#86838c;fill-opacity:1" /><path
       d="m -43.92402,32.210408 v 3.312143 c 0,6.423742 5.168752,11.592496 11.592495,11.592496 6.423742,0 11.592496,-5.168754 11.592496,-11.592496 v -3.312143 z m 0,0"
       fill="#3d3846"
       id="path16-6"
       style="stroke-width:1.65606;fill:url(#linearGradient20);fill-opacity:1" /><path
       d="m -15.75141,32.210408 v 3.312143 c 0,6.423742 5.168751,11.592496 11.5924969,11.592496 6.4172743,0 11.5924962,-5.168754 11.5924962,-11.592496 v -3.312143 z m 0,0"
       fill="#3d3846"
       id="path17"
       style="stroke-width:1.65606;fill:url(#linearGradient21);fill-opacity:1" /><path
       d="m -32.331525,20.617911 c 6.404336,0 11.592496,5.18816 11.592496,11.592497 0,6.404337 -5.18816,11.592496 -11.592496,11.592496 -6.404338,0 -11.592495,-5.188159 -11.592495,-11.592496 0,-6.404337 5.188157,-11.592497 11.592495,-11.592497 z m 0,0"
       fill="#5e5c64"
       id="path18"
       style="stroke-width:1.65606;fill:#86838c;fill-opacity:1" /><path
       d="m -4.1783211,20.617911 c 6.4043362,0 11.5924962,5.18816 11.5924962,11.592497 0,6.404337 -5.18816,11.592496 -11.5924962,11.592496 -6.4043379,0 -11.5924949,-5.188159 -11.5924949,-11.592496 0,-6.404337 5.188157,-11.592497 11.5924949,-11.592497 z m 0,0"
       fill="#5e5c64"
       id="path19"
       style="stroke-width:1.65606;fill:#86838c;fill-opacity:1" /></g></svg>
