<?xml version="1.0" encoding="utf-8"?>
<svg height="128px" viewBox="0 0 128 128" width="128px" xmlns="http://www.w3.org/2000/svg">
  <path d="m 28 8 h 50 l 30.042969 29.917969 v 74.058593 c 0 4.433594 -3.609375 8.023438 -8.042969 8.023438 h -72 c -4.433594 0 -8 -3.566406 -8 -8 v -96 c 0 -4.433594 3.566406 -8 8 -8 z m 0 0" fill="#d3e3f9"/>
  <path d="m 78 8 v 22 c 0 4.433594 3.609375 7.921875 8.042969 7.921875 l 22 -0.003906 z m 0 0" fill="#99c1f1"/>
  <path d="m 92.019531 80 v 14.011719 h 2.316407 v -14.011719 z m 1.15625 0 v 14.011719 m -7.171875 -14.011719 v 14.011719 h 4.628906 v -14.011719 z m 2.3125 0 v 14.011719 m -6.015625 -14.011719 v 14.011719 h 2.316407 v -14.011719 z m 1.15625 0 v 14.011719 m -5.042969 -14.011719 v 14.011719 h 2.316407 v -14.011719 z m 1.15625 0 v 14.011719 m -5.042968 -14.011719 v 14.011719 h 2.3125 v -14.011719 z m 1.15625 0 v 14.011719 m -9.300782 -14.011719 v 14.011719 h 6.941407 v -14.011719 z m 3.46875 0 v 14.011719 m -12.816406 -14.011719 v 14.011719 h 2.3125 v -14.011719 z m 1.15625 0 v 14.011719 m 2.546875 -14.011719 v 14.011719 h 4.625 v -14.011719 z m 2.3125 0 v 14.011719 m -12.03125 -14.011719 v 14.011719 h 4.625 v -14.011719 z m 2.3125 0 v 14.011719 m -6.015625 -14.011719 v 14.011719 h 2.3125 v -14.011719 z m 1.15625 0 v 14.011719 m -5.042968 -14.011719 v 14.011719 h 2.3125 v -14.011719 z m 1.15625 0 v 14.011719 m -7.171876 -14.011719 v 14.011719 h 4.625 v -14.011719 z m 2.3125 0 v 14.011719 m -6.015624 -14.011719 v 14.011719 h 2.3125 v -14.011719 z m 1.15625 0 v 14.011719" fill="#1a5fb4" fill-rule="evenodd"/>
  <g fill="#99c1f1">
    <path d="m 37.476562 98.527344 l 0.941407 3.984375 l -3.066407 -2.578125 l -1.140624 2.035156 l 3.9375 1.304688 l -3.960938 1.25 l 1.125 2.074218 l 3.105469 -2.597656 l -0.941407 3.957031 h 2.679688 l -0.863281 -3.898437 l 3.011719 2.605468 l 1.160156 -2.058593 l -3.914063 -1.324219 l 4.023438 -1.121094 l -1.144531 -2.054687 l -3.167969 2.421875 l 0.894531 -4 z m 0 0"/>
    <path d="m 50.046875 98.527344 l 0.941406 3.984375 l -3.0625 -2.578125 l -1.144531 2.035156 l 3.9375 1.304688 l -3.960938 1.25 l 1.125 2.074218 l 3.109376 -2.597656 l -0.945313 3.957031 h 2.679687 l -0.863281 -3.898437 l 3.011719 2.605468 l 1.160156 -2.058593 l -3.910156 -1.324219 l 4.019531 -1.121094 l -1.140625 -2.054687 l -3.171875 2.421875 l 0.894531 -4 z m 0 0"/>
    <path d="m 62.621094 98.527344 l 0.941406 3.984375 l -3.066406 -2.578125 l -1.140625 2.035156 l 3.933593 1.304688 l -3.960937 1.25 l 1.125 2.074218 l 3.109375 -2.597656 l -0.941406 3.957031 h 2.679687 l -0.867187 -3.898437 l 3.011718 2.605468 l 1.160157 -2.058593 l -3.910157 -1.324219 l 4.019532 -1.121094 l -1.140625 -2.054687 l -3.167969 2.421875 l 0.890625 -4 z m 0 0"/>
    <path d="m 75.191406 98.527344 l 0.941406 3.984375 l -3.066406 -2.578125 l -1.140625 2.035156 l 3.9375 1.304688 l -3.964843 1.25 l 1.128906 2.074218 l 3.105468 -2.597656 l -0.941406 3.957031 h 2.679688 l -0.867188 -3.898437 l 3.015625 2.605468 l 1.160157 -2.058593 l -3.914063 -1.324219 l 4.019531 -1.121094 l -1.140625 -2.054687 l -3.167969 2.421875 l 0.894532 -4 z m 0 0"/>
    <path d="m 87.761719 98.527344 l 0.941406 3.984375 l -3.0625 -2.578125 l -1.144531 2.035156 l 3.9375 1.304688 l -3.960938 1.25 l 1.125 2.074218 l 3.109375 -2.597656 l -0.945312 3.957031 h 2.679687 l -0.863281 -3.898437 l 3.011719 2.605468 l 1.160156 -2.058593 l -3.914062 -1.324219 l 4.023437 -1.121094 l -1.144531 -2.054687 l -3.167969 2.421875 l 0.894531 -4 z m 0 0"/>
  </g>
</svg>