<?xml version="1.0" encoding="UTF-8" standalone="no"?>
<svg
   height="128px"
   viewBox="0 0 128 128"
   width="128px"
   version="1.1"
   id="svg18"
   sodipodi:docname="chalkboard.svg"
   inkscape:version="1.3.2 (091e20ef0f, 2023-11-25)"
   xmlns:inkscape="http://www.inkscape.org/namespaces/inkscape"
   xmlns:sodipodi="http://sodipodi.sourceforge.net/DTD/sodipodi-0.dtd"
   xmlns="http://www.w3.org/2000/svg"
   xmlns:svg="http://www.w3.org/2000/svg">
  <defs
     id="defs18" />
  <sodipodi:namedview
     id="namedview18"
     pagecolor="#ffffff"
     bordercolor="#000000"
     borderopacity="0.25"
     inkscape:showpageshadow="2"
     inkscape:pageopacity="0.0"
     inkscape:pagecheckerboard="0"
     inkscape:deskcolor="#d1d1d1"
     inkscape:zoom="4.3618402"
     inkscape:cx="56.512845"
     inkscape:cy="66.829592"
     inkscape:window-width="1536"
     inkscape:window-height="795"
     inkscape:window-x="0"
     inkscape:window-y="0"
     inkscape:window-maximized="1"
     inkscape:current-layer="svg18" />
  <filter
     id="e"
     height="1"
     width="1"
     x="0"
     y="0">
    <feColorMatrix
       in="SourceGraphic"
       type="matrix"
       values="0 0 0 0 1 0 0 0 0 1 0 0 0 0 1 0 0 0 1 0"
       id="feColorMatrix1" />
  </filter>
  <mask
     id="f">
    <g
       filter="url(#e)"
       id="g1">
      <rect
         fill-opacity="0.3"
         height="128"
         width="128"
         id="rect1" />
    </g>
  </mask>
  <clipPath
     id="g">
    <rect
       height="152"
       width="192"
       id="rect2" />
  </clipPath>
  <path
     d="M 9.64 114.147 L 118.553 114.147 C 123.565 114.147 127.629 110.083 127.629 105.071 L 127.629 37 C 127.629 31.989 123.565 27.924 118.553 27.924 L 9.64 27.924 C 4.628 27.924 0.564 31.989 0.564 37 L 0.564 105.071 C 0.564 110.083 4.628 114.147 9.64 114.147 Z M 9.64 114.147"
     style="fill:#865e3c"
     id="path3" />
  <path
     d="M 118.553 8.638 L 9.64 8.638 C 4.628 8.638 0.564 12.701 0.564 17.714 L 0.564 95.996 C 0.564 101.007 4.628 105.071 9.64 105.071 L 118.553 105.071 C 123.565 105.071 127.629 101.007 127.629 95.996 L 127.629 17.714 C 127.629 12.701 123.565 8.638 118.553 8.638 Z M 118.553 8.638"
     fill="#b5835a"
     style="fill:#986a44"
     id="path7" />
  <path
     d="M 12.137 18.483 L 117.391 18.483 L 117.391 90.309 L 12.137 90.309 L 12.137 18.483 Z M 12.137 18.483"
     style="fill:#383838;fill-opacity:1"
     id="path8" />
  <path
     d="M 12.137 21.672 L 117.391 21.672 L 117.391 93.498 L 12.137 93.498 L 12.137 21.672 Z M 12.137 21.672"
     style="fill:#262626;fill-opacity:1"
     id="path9" />
  <g
     clip-path="url(#g)"
     mask="url(#f)"
     transform="matrix(1.282018, 0, 0, 1.282018, -40.278011, -41.459141)"
     style=""
     id="g10">
    <path
       d="m 95.757812 85.757812 l 28.285157 -28.285156 l 2.121093 -0.707031 l 2.121094 2.121094 l -0.285156 3.113281 l -28 28 l -5.65625 -1 v -1.828125 z m 0 0"
       id="path10" />
  </g>
  <path
     d="M 25.361 57.881 C 24.789 56.169 25.716 54.317 27.43 53.746 C 39.136 50.209 49.683 53.584 59.074 57.848 C 63.764 59.978 68.282 62.257 72.863 63.994 C 75.15 64.863 77.325 65.559 79.632 66.07 C 81.941 66.582 87.165 66.93 87.165 66.93 C 87.016 66.907 87.165 66.93 87.165 66.93 C 88.283 67.262 89.139 68.167 89.411 69.303 C 89.681 70.439 89.325 71.632 88.474 72.433 C 87.626 73.234 86.414 73.521 85.296 73.182 C 85.296 73.182 85.462 73.236 85.296 73.182 C 85.296 73.182 75.444 71.97 70.542 70.11 C 65.645 68.251 60.94 65.879 56.37 63.805 C 47.231 59.655 39.077 56.393 29.495 59.951 C 27.784 60.522 25.932 59.595 25.361 57.881 Z"
     style="fill: rgb(226, 226, 226); transform-origin: 57.346px 62.793px;"
     id="path11" />
  <path
     d="M 81.203 64.638 L 117.466 28.377 L 121.467 28.75 L 124.186 31.471 L 123.82 35.462 L 87.925 71.358 L 81.515 70.077 L 82.001 68.639 L 81.203 64.638 Z M 81.203 64.638"
     fill="#ffffff"
     style=""
     id="path12" />
  <path
     d="M 87.925 67.512 L 119.974 34.18 L 117.466 28.377 L 121.467 28.75 L 124.186 31.471 L 123.82 35.462 L 87.925 71.358 L 81.515 70.077 L 81.203 64.638 L 82.797 68.794 L 87.925 67.512 Z M 87.925 67.512"
     fill="#deddda"
     style=""
     id="path13" />
  <title
     id="title4162">Adwaita Icon Template</title>
  <g
     style="display:inline;fill:#000000;enable-background:new"
     transform="matrix(7.991171, 0, 0, 8.003645, 62.893551, -5469.180176)"
     id="g12027" />
  <g
     id="g883"
     style="fill: none; fill-opacity: 0.25098; stroke: rgb(165, 121, 179); stroke-opacity: 1; display: inline;"
     transform="matrix(1, 0, 0, 1, 206.684448, -599.102722)" />
  <g
     id="g900"
     style="fill: none; fill-opacity: 0.25098; stroke: rgb(165, 121, 179); stroke-opacity: 1; display: inline;"
     transform="matrix(1, 0, 0, 1, 206.684448, -599.102722)" />
  <g
     transform="matrix(-1, 0, 0, 1, 150.684448, 310.897308)"
     style="display:inline;enable-background:new"
     id="g36832" />
  <title
     id="bx-title-1">Adwaita Icon Template</title>
  <path
     style="fill: none; stroke-width: 5px; stroke-linejoin: round; stroke-linecap: round; transform-box: fill-box; transform-origin: 50% 50%;"
     d="M 72.156 100.473 C 89.498 94.694 102.626 111.291 119.401 111.291"
     transform="matrix(0.981627, -0.190809, 0.190809, 0.981627, -0.000001, -0.000001)"
     id="path17" />
  <path
     d="M 87.246 92.756 C 87.016 91.999 87.082 91.12 87.41 90.47 C 87.735 89.818 88.41 89.235 89.155 88.962 C 98.239 86.265 106.466 88.853 113.66 92.118 C 117.252 93.749 120.684 95.482 124.156 96.798 C 125.891 97.455 127.517 97.977 129.255 98.362 C 130.951 98.74 134.8 98.999 134.926 99.007 L 134.927 99.005 C 134.927 99.005 134.928 99.005 134.929 99.006 C 134.929 99.006 134.929 99.006 134.929 99.006 C 134.93 99.006 134.934 99.006 134.938 99.006 C 134.952 99.008 134.979 99.014 134.979 99.014 L 135.016 99.02 L 135.039 99.028 C 136.002 99.348 136.861 100.212 137.097 101.2 C 137.333 102.191 136.957 103.347 136.24 104.07 C 135.478 104.742 134.351 105.007 133.38 104.77 C 132.873 104.706 125.831 103.834 122.031 102.4 C 118.268 100.97 114.664 99.155 111.183 97.574 C 104.22 94.412 98.169 91.933 91.035 94.652 C 90.278 94.882 89.399 94.815 88.748 94.489 C 88.097 94.163 87.516 93.5 87.246 92.756 Z M 89.195 93.596 C 89.687 93.842 90.168 93.91 90.719 93.705 C 98.212 90.991 104.611 93.494 111.596 96.665 C 115.094 98.253 118.67 100.058 122.385 101.466 C 126.068 102.871 133.532 103.782 133.532 103.782 L 133.583 103.789 L 133.616 103.8 C 134.338 104.054 135.021 103.893 135.554 103.344 C 136.135 102.842 136.304 102.178 136.126 101.432 C 135.949 100.694 135.524 100.198 134.817 100.002 C 134.362 99.969 130.724 99.706 129.039 99.336 C 127.256 98.939 125.561 98.399 123.803 97.73 C 120.282 96.395 116.82 94.651 113.248 93.027 C 106.106 89.784 98.232 87.218 89.444 89.919 C 88.88 90.084 88.548 90.425 88.302 90.917 C 88.057 91.408 87.988 91.891 88.193 92.44 C 88.358 93.005 88.703 93.349 89.195 93.596 Z"
     style="fill: none; transform-box: fill-box; transform-origin: 50% 50%;"
     transform="matrix(0.981627, -0.190809, 0.190809, 0.981627, 0.000001, 0)"
     id="path18" />
</svg>
