<?xml version="1.0" encoding="UTF-8" standalone="no"?>
<svg
   height="128px"
   viewBox="0 0 128 128"
   width="128px"
   version="1.1"
   id="svg1"
   sodipodi:docname="chip.svg"
   inkscape:version="1.3.2 (091e20ef0f, 2023-11-25)"
   xmlns:inkscape="http://www.inkscape.org/namespaces/inkscape"
   xmlns:sodipodi="http://sodipodi.sourceforge.net/DTD/sodipodi-0.dtd"
   xmlns:xlink="http://www.w3.org/1999/xlink"
   xmlns="http://www.w3.org/2000/svg"
   xmlns:svg="http://www.w3.org/2000/svg"
   xmlns:bx="https://boxy-svg.com">
  <sodipodi:namedview
     id="namedview1"
     pagecolor="#ffffff"
     bordercolor="#000000"
     borderopacity="0.25"
     inkscape:showpageshadow="2"
     inkscape:pageopacity="0.0"
     inkscape:pagecheckerboard="0"
     inkscape:deskcolor="#d1d1d1"
     inkscape:zoom="4.4264595"
     inkscape:cx="13.441894"
     inkscape:cy="66.757642"
     inkscape:window-width="1536"
     inkscape:window-height="795"
     inkscape:window-x="0"
     inkscape:window-y="0"
     inkscape:window-maximized="1"
     inkscape:current-layer="svg1" />
  <defs
     id="defs1">
    <linearGradient
       id="linearGradient3"
       x1="20"
       y1="236"
       x2="108"
       y2="236"
       gradientUnits="userSpaceOnUse"
       gradientTransform="matrix(1, 0, 0, 1, 20.903118, -154.884918)"
       xlink:href="#linearGradient2" />
    <linearGradient
       id="linearGradient2">
      <stop
         style="stop-color:#c0bfbc;stop-opacity:1;"
         offset="0"
         id="stop2" />
      <stop
         style="stop-color:#deddda;stop-opacity:1"
         offset="0.0455"
         id="stop4" />
      <stop
         style="stop-color:#c0bfbc;stop-opacity:1;"
         offset="0.0909"
         id="stop5" />
      <stop
         style="stop-color:#c0bfbc;stop-opacity:1;"
         offset="0.9091"
         id="stop6" />
      <stop
         style="stop-color:#deddda;stop-opacity:1"
         offset="0.9545"
         id="stop7" />
      <stop
         style="stop-color:#c0bfbc;stop-opacity:1;"
         offset="1"
         id="stop3" />
    </linearGradient>
  </defs>
  <g
     transform="matrix(1.296841, 0, 0, 1.296841, -47.456856, -57.458569)"
     style=""
     id="g1">
    <g
       id="g29"
       style="fill: rgb(154, 153, 150); stroke-width: 1.05407; display: inline;"
       transform="matrix(1, 0, 0, 0.900039, 20.903118, -128.895737)">
      <path
         style="opacity: 1; stroke: none; stroke-width: 6.32442; stroke-linecap: round; stroke-linejoin: round; fill: rgb(136, 137, 139);"
         id="rect10"
         d="M 80 280 H 84.719 V 297.517 A 2.36 2.482 0 0 1 82.36 299.999 H 82.36 A 2.36 2.482 0 0 1 80 297.517 V 280 Z"
         bx:shape="rect 80 280 4.719 19.999 0 0 2.482 2.482 1@df2f77e0" />
      <path
         style="opacity: 1; stroke: none; stroke-width: 6.32442; stroke-linecap: round; stroke-linejoin: round; fill: rgb(136, 137, 139);"
         id="rect11"
         d="M 91.64 280 H 96.359 V 297.517 A 2.36 2.482 0 0 1 94 299.999 H 94 A 2.36 2.482 0 0 1 91.64 297.517 V 280 Z"
         bx:shape="rect 91.64 280 4.719 19.999 0 0 2.482 2.482 1@fcf4f951" />
      <path
         style="opacity: 1; stroke: none; stroke-width: 6.32442; stroke-linecap: round; stroke-linejoin: round; fill: rgb(136, 137, 139);"
         id="rect26"
         d="M 56 280 H 60.719 V 297.517 A 2.36 2.482 0 0 1 58.36 299.999 H 58.36 A 2.36 2.482 0 0 1 56 297.517 V 280 Z"
         bx:shape="rect 56 280 4.719 19.999 0 0 2.482 2.482 1@2e55081f" />
      <path
         style="opacity: 1; stroke: none; stroke-width: 6.32442; stroke-linecap: round; stroke-linejoin: round; fill: rgb(136, 137, 139);"
         id="rect27"
         d="M 67.64 280 H 72.359 V 297.517 A 2.36 2.482 0 0 1 70 299.999 H 70 A 2.36 2.482 0 0 1 67.64 297.517 V 280 Z"
         bx:shape="rect 67.64 280 4.719 19.999 0 0 2.482 2.482 1@9120212c" />
      <path
         style="opacity: 1; stroke: none; stroke-width: 6.32442; stroke-linecap: round; stroke-linejoin: round; fill: rgb(136, 137, 139);"
         id="rect28"
         d="M 32 280 H 36.719 V 297.517 A 2.36 2.482 0 0 1 34.36 299.999 H 34.36 A 2.36 2.482 0 0 1 32 297.517 V 280 Z"
         bx:shape="rect 32 280 4.719 19.999 0 0 2.482 2.482 1@e9f98bde" />
      <path
         style="opacity: 1; stroke: none; stroke-width: 6.32442; stroke-linecap: round; stroke-linejoin: round; fill: rgb(136, 137, 139);"
         id="rect29"
         d="M 43.64 280 H 48.359 V 297.517 A 2.36 2.482 0 0 1 46 299.999 H 46 A 2.36 2.482 0 0 1 43.64 297.517 V 280 Z"
         bx:shape="rect 43.64 280 4.719 19.999 0 0 2.482 2.482 1@eba121cd" />
    </g>
    <path
       id="rect1"
       style="opacity: 1; fill: url('#linearGradient3'); stroke: none; stroke-width: 6.9282; stroke-linecap: round; stroke-linejoin: round; display: inline;"
       d="M 40.903 63.115 L 40.903 129.115 C 40.903 133.533 44.485 137.115 48.903 137.115 L 52.903 137.115 C 57.321 137.115 60.903 133.533 60.903 129.115 L 108.903 129.115 C 108.903 133.533 112.485 137.115 116.903 137.115 L 120.903 137.115 C 125.321 137.115 128.903 133.533 128.903 129.115 L 128.903 63.115 C 128.903 58.697 125.321 55.115 120.903 55.115 L 48.903 55.115 C 44.485 55.115 40.903 58.697 40.903 63.115 Z" />
    <rect
       style="opacity: 1; fill: rgb(222, 221, 218); stroke: none; stroke-width: 6.9282; stroke-linecap: round; stroke-linejoin: round; display: inline;"
       id="rect2"
       width="88"
       height="73.79"
       x="40.903"
       y="47.325"
       rx="8"
       ry="8" />
    <rect
       style="opacity: 1; fill: rgb(36, 31, 49); stroke: none; stroke-width: 6.9282; stroke-linecap: round; stroke-linejoin: round; display: inline;"
       id="rect9"
       x="46.342"
       y="52.576"
       width="77.283"
       height="62.865"
       rx="4.071"
       ry="4.071" />
  </g>
  <path
     style="font-weight:900;font-family:'Source Code Pro';-inkscape-font-specification:'Source Code Pro Heavy';opacity:0.733812;fill:#3bc866;fill-opacity:1;stroke-width:4.60832;stroke-linecap:round;stroke-linejoin:round"
     d="M 46.052553,55.59594 H 69.501228 V 49.440663 H 46.052553 Z"
     id="path1" />
  <path
     style="font-weight:900;font-family:'Source Code Pro';-inkscape-font-specification:'Source Code Pro Heavy';opacity:0.733812;fill:#3bc866;fill-opacity:1;stroke-width:4.60832;stroke-linecap:round;stroke-linejoin:round"
     d="M 22.402632,49.923361 41.552387,37.71051 V 32.043747 L 22.402632,19.830895 v 7.523117 l 12.310559,7.425413 v 0.195406 l -12.310559,7.425414 z"
     id="text1" />
</svg>
