<?xml version="1.0" encoding="UTF-8" standalone="no"?>
<svg
   width="128px"
   height="128px"
   id="svg11300"
   version="1.0"
   style="display:inline;enable-background:new"
   viewBox="0 0 128 128"
   sodipodi:docname="clock.svg"
   inkscape:version="1.3.2 (091e20ef0f, 2023-11-25)"
   xml:space="preserve"
   xmlns:inkscape="http://www.inkscape.org/namespaces/inkscape"
   xmlns:sodipodi="http://sodipodi.sourceforge.net/DTD/sodipodi-0.dtd"
   xmlns:xlink="http://www.w3.org/1999/xlink"
   xmlns="http://www.w3.org/2000/svg"
   xmlns:svg="http://www.w3.org/2000/svg"
   xmlns:rdf="http://www.w3.org/1999/02/22-rdf-syntax-ns#"
   xmlns:cc="http://creativecommons.org/ns#"
   xmlns:dc="http://purl.org/dc/elements/1.1/"
   xmlns:bx="https://boxy-svg.com"><sodipodi:namedview
     id="namedview1"
     pagecolor="#ffffff"
     bordercolor="#000000"
     borderopacity="0.25"
     inkscape:showpageshadow="2"
     inkscape:pageopacity="0.0"
     inkscape:pagecheckerboard="0"
     inkscape:deskcolor="#d1d1d1"
     inkscape:zoom="4.328564"
     inkscape:cx="40.313601"
     inkscape:cy="64.109021"
     inkscape:window-width="1536"
     inkscape:window-height="795"
     inkscape:window-x="0"
     inkscape:window-y="0"
     inkscape:window-maximized="1"
     inkscape:current-layer="svg11300" /><title
     id="title4162">Adwaita Icon Template</title><defs
     id="defs3"><linearGradient
       id="linearGradient3372"><stop
         style="stop-opacity: 1; stop-color: rgb(179, 179, 179);"
         offset="0"
         id="stop3360" /><stop
         style="stop-opacity: 1; stop-color: rgb(207, 207, 207);"
         offset="0.036"
         id="stop3362" /><stop
         style="stop-opacity: 1; stop-color: rgb(196, 196, 196);"
         offset="0.071"
         id="stop3364" /><stop
         style="stop-opacity: 1; stop-color: rgb(194, 194, 194);"
         offset="0.929"
         id="stop3366" /><stop
         style="stop-opacity: 1; stop-color: rgb(203, 203, 203);"
         offset="0.964"
         id="stop3368" /><stop
         style="stop-opacity: 1; stop-color: rgb(180, 180, 180);"
         offset="1"
         id="stop3370" /></linearGradient><linearGradient
       id="linearGradient18609"
       gradientUnits="userSpaceOnUse"
       x1="8"
       y1="292"
       x2="120"
       y2="292"
       gradientTransform="matrix(1.131846, 0, 0, 0.93199, -8.195232, -157.178835)"
       xlink:href="#linearGradient3372" /><linearGradient
       id="linearGradient3"
       x1="20"
       y1="236"
       x2="108"
       y2="236"
       gradientUnits="userSpaceOnUse"
       gradientTransform="translate(20.903118,-154.88492)"
       xlink:href="#linearGradient2" /><linearGradient
       id="linearGradient2"><stop
         style="stop-color:#c0bfbc;stop-opacity:1;"
         offset="0"
         id="stop2" /><stop
         style="stop-color:#deddda;stop-opacity:1"
         offset="0.0455"
         id="stop4" /><stop
         style="stop-color:#c0bfbc;stop-opacity:1;"
         offset="0.0909"
         id="stop5" /><stop
         style="stop-color:#c0bfbc;stop-opacity:1;"
         offset="0.9091"
         id="stop6" /><stop
         style="stop-color:#deddda;stop-opacity:1"
         offset="0.9545"
         id="stop7" /><stop
         style="stop-color:#c0bfbc;stop-opacity:1;"
         offset="1"
         id="stop3" /></linearGradient><linearGradient
       id="linearGradient3-6"
       x1="20"
       y1="236"
       x2="108"
       y2="236"
       gradientUnits="userSpaceOnUse"
       gradientTransform="translate(20.903118,-154.88492)"
       xlink:href="#linearGradient2" /></defs><g
     style="display:inline;fill:#000000;enable-background:new"
     transform="matrix(7.991171, 0, 0, 8.003646, -159.790894, -5002.077637)"
     id="g12027" /><g
     id="g883"
     style="fill: none; fill-opacity: 0.25098; stroke: rgb(165, 121, 179); stroke-opacity: 1; display: inline;"
     transform="matrix(1, 0, 0, 1, -16, -132)" /><g
     id="g900"
     style="fill: none; fill-opacity: 0.25098; stroke: rgb(165, 121, 179); stroke-opacity: 1; display: inline;"
     transform="matrix(1, 0, 0, 1, -16, -132)" /><rect
     style="opacity: 1; fill: url('#linearGradient18609'); fill-opacity: 1; stroke: none; stroke-width: 1.02966; stroke-linecap: round; stroke-linejoin: round; stroke-dashoffset: 26.4; display: inline;"
     id="rect17608"
     x="0.859"
     y="29.218"
     width="126.768"
     height="82.015"
     rx="11"
     ry="11" /><path
     style="fill:#3fb6da;fill-opacity:1"
     d="M 23.237 11.86 H 62.75 A 4.9 4.896 0 0 1 67.65 16.755 V 21.651 H 18.337 V 16.755 A 4.9 4.896 0 0 1 23.237 11.86 Z"
     bx:shape="rect 18.337 11.86 49.313 9.791 4.9 4.9 0 0 1@f8a942b5"
     id="path1" /><rect
     style="opacity: 1; fill-opacity: 1; stroke: none; stroke-width: 1.02966; stroke-linecap: round; stroke-linejoin: round; stroke-dashoffset: 26.4; display: inline; fill: rgb(222, 222, 222);"
     id="rect17726"
     x="0.859"
     y="19.982"
     width="126.768"
     height="79.692"
     rx="11"
     ry="11" /><rect
     style="opacity: 1; fill-opacity: 1; stroke: none; stroke-width: 0.984142; stroke-linecap: round; stroke-linejoin: round; stroke-dashoffset: 26.4; display: inline; fill: rgb(17, 28, 38);"
     id="rect17924"
     x="7.054"
     y="26.521"
     width="114.086"
     height="59.339"
     rx="5"
     ry="5" /><g
     id="g15378"
     style="fill:#3bb0c8;display:inline;fill-opacity:0.75483489;opacity:0.83946789"
     transform="matrix(1.285435, 0, 0, 1.285435, -20.838375, -250.485748)"><path
       style="display:inline;stroke:none;stroke-width:1px;stroke-linecap:butt;stroke-linejoin:miter;stroke-opacity:1;fill:#3bb0c8;fill-opacity:0.75483489"
       d="m 51,234 2,-2 h 2 l 2,2 -2,2 h -2 z"
       id="path13071-0" /><path
       style="stroke:none;stroke-width:1px;stroke-linecap:butt;stroke-linejoin:miter;stroke-opacity:1;fill:#3bb0c8;fill-opacity:0.75483489"
       d="m 65,222 2,-2 h 10 l 2,2 -2,2 H 67 Z"
       id="path13493" /><path
       style="stroke:none;stroke-width:1px;stroke-linecap:butt;stroke-linejoin:miter;stroke-opacity:1;fill:#3bb0c8;fill-opacity:0.75483489"
       d="m 65,254 2,-2 h 10 l 2,2 -2,2 H 67 Z"
       id="path13497" /><path
       style="stroke:none;stroke-width:1px;stroke-linecap:butt;stroke-linejoin:miter;stroke-opacity:1;fill:#3bb0c8;fill-opacity:0.75483489"
       d="m 80,223 2,2 v 10 l -2,2 -2,-2 v -10 z"
       id="path13499" /><path
       style="stroke:none;stroke-width:1px;stroke-linecap:butt;stroke-linejoin:miter;stroke-opacity:1;fill:#3bb0c8;fill-opacity:0.75483489"
       d="m 64,223 2,2 v 10 l -2,2 -2,-2 v -10 z"
       id="path13501" /><path
       style="stroke:none;stroke-width:1px;stroke-linecap:butt;stroke-linejoin:miter;stroke-opacity:1;fill:#3bb0c8;fill-opacity:0.75483489"
       d="m 80,239 2,2 v 10 l -2,2 -2,-2 v -10 z"
       id="path13503" /><path
       style="stroke:none;stroke-width:1px;stroke-linecap:butt;stroke-linejoin:miter;stroke-opacity:1;fill:#3bb0c8;fill-opacity:0.75483489"
       d="m 64,239 2,2 v 10 l -2,2 -2,-2 v -10 z"
       id="path13505" /><path
       style="stroke:none;stroke-width:1px;stroke-linecap:butt;stroke-linejoin:miter;stroke-opacity:1;fill:#3bb0c8;fill-opacity:0.75483489"
       d="m 89,222 2,-2 h 10 l 2,2 -2,2 H 91 Z"
       id="path13507" /><path
       style="stroke:none;stroke-width:1px;stroke-linecap:butt;stroke-linejoin:miter;stroke-opacity:1;fill:#3bb0c8;fill-opacity:0.75483489"
       d="m 89,254 2,-2 h 10 l 2,2 -2,2 H 91 Z"
       id="path13511" /><path
       style="stroke:none;stroke-width:1px;stroke-linecap:butt;stroke-linejoin:miter;stroke-opacity:1;fill:#3bb0c8;fill-opacity:0.75483489"
       d="m 104,223 2,2 v 10 l -2,2 -2,-2 v -10 z"
       id="path13513" /><path
       style="stroke:none;stroke-width:1px;stroke-linecap:butt;stroke-linejoin:miter;stroke-opacity:1;fill:#3bb0c8;fill-opacity:0.75483489"
       d="m 88,239 2,2 v 10 l -2,2 -2,-2 v -10 z"
       id="path13519" /><path
       style="display:inline;stroke:none;stroke-width:1px;stroke-linecap:butt;stroke-linejoin:miter;stroke-opacity:1;fill:#3bb0c8;fill-opacity:0.75483489"
       d="m 51,242 2,-2 h 2 l 2,2 -2,2 h -2 z"
       id="path28282" /><path
       style="stroke:none;stroke-width:1px;stroke-linecap:butt;stroke-linejoin:miter;stroke-opacity:1;fill:#3bb0c8;fill-opacity:0.75483489"
       d="M 88.322 223 L 90.322 225 L 90.322 235 L 88.322 237 L 86.322 235 L 86.322 225 L 88.322 223 Z"
       id="path-1" /><path
       style="stroke:none;stroke-width:1px;stroke-linecap:butt;stroke-linejoin:miter;stroke-opacity:1;fill:#3bb0c8;fill-opacity:0.75483489"
       d="M 104.014 239 L 106.014 241 L 106.014 251 L 104.014 253 L 102.014 251 L 102.014 241 L 104.014 239 Z"
       id="path-2" /><path
       style="fill:#3bb0c8;fill-opacity:0.75483489;stroke:none;stroke-width:1px;stroke-linecap:butt;stroke-linejoin:miter;stroke-opacity:1"
       d="m 29.214438,222 2,-2 h 10 l 2,2 -2,2 h -10 z"
       id="path4" /><path
       style="fill:#3bb0c8;fill-opacity:0.75483489;stroke:none;stroke-width:1px;stroke-linecap:butt;stroke-linejoin:miter;stroke-opacity:1"
       d="m 29.214438,254 2,-2 h 10 l 2,2 -2,2 h -10 z"
       id="path5" /><path
       style="fill:#3bb0c8;fill-opacity:0.75483489;stroke:none;stroke-width:1px;stroke-linecap:butt;stroke-linejoin:miter;stroke-opacity:1"
       d="m 44.214438,223 2,2 v 10 l -2,2 -2,-2 v -10 z"
       id="path6" /><path
       style="fill:#3bb0c8;fill-opacity:0.75483489;stroke:none;stroke-width:1px;stroke-linecap:butt;stroke-linejoin:miter;stroke-opacity:1"
       d="m 28.214438,223 2,2 v 10 l -2,2 -2,-2 v -10 z"
       id="path7" /><path
       style="fill:#3bb0c8;fill-opacity:0.75483489;stroke:none;stroke-width:1px;stroke-linecap:butt;stroke-linejoin:miter;stroke-opacity:1"
       d="m 44.214438,239 2,2 v 10 l -2,2 -2,-2 v -10 z"
       id="path8" /><path
       style="fill:#3bb0c8;fill-opacity:0.75483489;stroke:none;stroke-width:1px;stroke-linecap:butt;stroke-linejoin:miter;stroke-opacity:1"
       d="m 28.214438,239 2,2 v 10 l -2,2 -2,-2 v -10 z"
       id="path9" /><path
       style="fill:#3bb0c8;fill-opacity:0.75483489;stroke:none;stroke-width:1px;stroke-linecap:butt;stroke-linejoin:miter;stroke-opacity:1"
       d="m 29.214438,237.92425 2,-2 h 10 l 2,2 -2,2 h -10 z"
       id="path10" /></g><metadata
     id="metadata1"><rdf:RDF><cc:Work
         rdf:about=""><dc:title>Adwaita Icon Template</dc:title></cc:Work></rdf:RDF></metadata></svg>
