<?xml version="1.0" encoding="UTF-8" standalone="no"?>
<svg
   height="128px"
   viewBox="0 0 128 128"
   width="128px"
   version="1.1"
   id="svg15"
   sodipodi:docname="design.svg"
   inkscape:version="1.3.2 (091e20ef0f, 2023-11-25)"
   xml:space="preserve"
   xmlns:inkscape="http://www.inkscape.org/namespaces/inkscape"
   xmlns:sodipodi="http://sodipodi.sourceforge.net/DTD/sodipodi-0.dtd"
   xmlns:xlink="http://www.w3.org/1999/xlink"
   xmlns="http://www.w3.org/2000/svg"
   xmlns:svg="http://www.w3.org/2000/svg"><sodipodi:namedview
     id="namedview15"
     pagecolor="#ffffff"
     bordercolor="#000000"
     borderopacity="0.25"
     inkscape:showpageshadow="2"
     inkscape:pageopacity="0.0"
     inkscape:pagecheckerboard="0"
     inkscape:deskcolor="#d1d1d1"
     inkscape:zoom="1.2910168"
     inkscape:cx="-91.013536"
     inkscape:cy="-27.497707"
     inkscape:window-width="1536"
     inkscape:window-height="795"
     inkscape:window-x="0"
     inkscape:window-y="0"
     inkscape:window-maximized="1"
     inkscape:current-layer="g12" /><defs
     id="defs1"><linearGradient
       id="linearGradient13"><stop
         style="stop-color:#3d81c3;stop-opacity:1;"
         offset="0"
         id="stop8" /><stop
         style="stop-color:#5293d3;stop-opacity:1;"
         offset="0.10141911"
         id="stop9" /><stop
         style="stop-color:#3d81c3;stop-opacity:1;"
         offset="0.29299179"
         id="stop10" /></linearGradient><linearGradient
       id="linearGradient4"><stop
         id="stop3"
         offset="0"
         style="stop-color:#3671ad;stop-opacity:1;" /><stop
         id="stop4"
         offset="1"
         style="stop-color:#72a8dd;stop-opacity:1;" /></linearGradient><clipPath
       clipPathUnits="userSpaceOnUse"
       id="E"><rect
         width="106.417"
         height="96.355"
         x="512.925"
         y="-137.026"
         rx="6.076"
         ry="6.076"
         fill="#9141ac"
         stroke-width="0"
         stroke-linejoin="round"
         id="rect1" /></clipPath><clipPath
       id="U"
       clipPathUnits="userSpaceOnUse"><circle
         style="marker:none"
         cx="239.051"
         cy="77.264"
         r="19.711"
         fill="#9141ac"
         stroke-width=".529"
         stroke-linecap="round"
         id="circle1" /></clipPath><linearGradient
       id="linearGradient1029"><stop
         id="stop1024"
         offset="0"
         style="stop-color:#3974b0;stop-opacity:1;" /><stop
         id="stop1027"
         offset="1"
         style="stop-color:#6fa5db;stop-opacity:1;" /></linearGradient><linearGradient
       y2="248"
       x2="-24"
       y1="248"
       x1="-48"
       gradientTransform="matrix(0.818909, 0.014424, -0.01681, 0.954398, -275.023391, -124.248213)"
       gradientUnits="userSpaceOnUse"
       id="linearGradient2279"
       xlink:href="#linearGradient4" /><linearGradient
       y2="194"
       x2="-30"
       y1="194"
       x1="-42"
       gradientTransform="rotate(-90,69.125,203.375)"
       gradientUnits="userSpaceOnUse"
       id="linearGradient2281"
       xlink:href="#linearGradient1029" /><linearGradient
       id="linearGradient3372"><stop
         style="stop-opacity: 1; stop-color: rgb(179, 179, 179);"
         offset="0"
         id="stop3360" /><stop
         style="stop-opacity: 1; stop-color: rgb(207, 207, 207);"
         offset="0.036"
         id="stop3362" /><stop
         style="stop-opacity: 1; stop-color: rgb(196, 196, 196);"
         offset="0.071"
         id="stop3364" /><stop
         style="stop-opacity: 1; stop-color: rgb(194, 194, 194);"
         offset="0.929"
         id="stop3366" /><stop
         style="stop-opacity: 1; stop-color: rgb(203, 203, 203);"
         offset="0.964"
         id="stop3368" /><stop
         style="stop-opacity: 1; stop-color: rgb(180, 180, 180);"
         offset="1"
         id="stop3370" /></linearGradient><linearGradient
       id="linearGradient18609"
       gradientUnits="userSpaceOnUse"
       x1="8"
       y1="292"
       x2="120"
       y2="292"
       gradientTransform="matrix(1.131846,0,0,0.93199,-8.195232,-157.17883)"
       xlink:href="#linearGradient3372" /><linearGradient
       id="linearGradient3"
       x1="20"
       y1="236"
       x2="108"
       y2="236"
       gradientUnits="userSpaceOnUse"
       gradientTransform="translate(20.903118,-154.88492)"
       xlink:href="#linearGradient2" /><linearGradient
       id="linearGradient2"><stop
         style="stop-color:#c0bfbc;stop-opacity:1;"
         offset="0"
         id="stop2" /><stop
         style="stop-color:#deddda;stop-opacity:1"
         offset="0.0455"
         id="stop4-6" /><stop
         style="stop-color:#c0bfbc;stop-opacity:1;"
         offset="0.0909"
         id="stop5" /><stop
         style="stop-color:#c0bfbc;stop-opacity:1;"
         offset="0.9091"
         id="stop6" /><stop
         style="stop-color:#deddda;stop-opacity:1"
         offset="0.9545"
         id="stop7" /><stop
         style="stop-color:#c0bfbc;stop-opacity:1;"
         offset="1"
         id="stop3-7" /></linearGradient><linearGradient
       inkscape:collect="always"
       xlink:href="#linearGradient13"
       id="linearGradient8"
       x1="12"
       y1="103.613"
       x2="36"
       y2="103.613"
       gradientUnits="userSpaceOnUse" /><linearGradient
       inkscape:collect="always"
       xlink:href="#linearGradient13"
       id="linearGradient15"
       x1="115.80576"
       y1="103.50282"
       x2="92.07827"
       y2="103.519"
       gradientUnits="userSpaceOnUse" /></defs><g
     style=""
     transform="matrix(1.213636, 0, 0, 1.213636, -13.738757, -12.431958)"
     id="g12"><path
       d="M 22.781 15.113 L 105.219 15.113 C 108.965 15.113 112 18.812 112 23.371 L 112 102.855 C 112 107.414 108.965 111.113 105.219 111.113 L 22.781 111.113 C 19.035 111.113 16 107.414 16 102.855 L 16 23.371 C 16 18.812 19.035 15.113 22.781 15.113 Z M 22.781 15.113"
       style="fill:#d0e2f3;fill-opacity:1"
       id="path1" /><path
       d="M 36 15.113 L 36 25.113 L 22 25.113 L 22 39.113 L 12 39.113 L 12 24.113 C 12 19.203 16.09 15.113 21 15.113 L 36 15.113 Z M 36 15.113"
       style="fill: rgb(42, 116, 189);"
       id="path2" /><path
       d="M 36 11.113 L 36 21.113 L 22 21.113 L 22 35.113 L 12 35.113 L 12 20.113 C 12 15.203 16.09 11.113 21 11.113 L 36 11.113 Z M 36 11.113"
       style="fill: rgb(82, 147, 211);"
       id="path3" /><path
       d="M 92 15.113 L 92 25.113 L 106 25.113 L 106 39.113 L 116 39.113 L 116 24.113 C 116 19.203 111.91 15.113 107 15.113 L 92 15.113 Z M 92 15.113"
       style="fill: rgb(42, 116, 189);"
       id="path4" /><path
       d="M 92 11.113 L 92 21.113 L 106 21.113 L 106 35.113 L 116 35.113 L 116 20.113 C 116 15.203 111.91 11.113 107 11.113 L 92 11.113 Z M 92 11.113"
       style="fill: rgb(82, 147, 211);"
       id="path5" /><path
       d="M 36 115.113 L 36 105.113 L 22 105.113 L 22 92.113 L 12 92.113 L 12 106.113 C 12 111.023 16.09 115.113 21 115.113 L 36 115.113 Z M 36 115.113"
       style="fill:url(#linearGradient8)"
       id="path6" /><path
       d="M 36 111.113 L 36 101.113 L 22 101.113 L 22 87.113 L 12 87.113 L 12 102.113 C 12 107.023 16.09 111.113 21 111.113 L 36 111.113 Z M 36 111.113"
       style="fill: rgb(82, 147, 211);"
       id="path7" /><path
       d="M 92 115.113 L 92 105.113 L 106 105.113 L 106 92.113 L 116 92.113 L 116 106.113 C 116 111.023 111.91 115.113 107 115.113 L 92 115.113 Z M 92 115.113"
       style="fill:url(#linearGradient15)"
       id="path8" /><path
       d="M 92 111.113 L 92 101.113 L 106 101.113 L 106 87.113 L 116 87.113 L 116 102.113 C 116 107.023 111.91 111.113 107 111.113 L 92 111.113 Z M 92 111.113"
       style="fill: rgb(82, 147, 211);"
       id="path9" /><g
       transform="matrix(0.838819, 0, 0, 0.838819, -10.186131, -132.563156)"
       style="display: inline;"
       id="layer1"><g
         transform="translate(0,3)"
         id="full_pencil"
         style="display:inline;enable-background:new"><g
           id="shadowless_full_pencil"
           transform="translate(2)"><g
             style="display:inline;enable-background:new"
             id="pencil_alone"
             transform="translate(0,2)"><g
               id="g1387"
               transform="translate(0,-280)"
               style="display:inline;enable-background:new" /><g
               transform="rotate(-45,-2.4795919,293.84316)"
               id="g1401"><rect
                 transform="rotate(-90)"
                 y="69.75"
                 x="-318.5"
                 height="84"
                 width="20"
                 id="rect1389"
                 style="display:inline;opacity:1;vector-effect:none;fill:url(#linearGradient2279);fill-opacity:1;stroke:none;stroke-width:1;stroke-linecap:round;stroke-linejoin:round;stroke-miterlimit:4;stroke-dasharray:none;stroke-dashoffset:0;stroke-opacity:1;enable-background:new" /><rect
                 transform="rotate(-90)"
                 style="display:inline;opacity:1;vector-effect:none;fill:#000000;fill-opacity:0.3969534;stroke:none;stroke-width:1;stroke-linecap:round;stroke-linejoin:round;stroke-miterlimit:4;stroke-dasharray:none;stroke-dashoffset:0;stroke-opacity:1;enable-background:new"
                 id="rect1391"
                 width="20"
                 height="4"
                 x="-318.5"
                 y="137.75" /><rect
                 transform="rotate(-90)"
                 y="81.75"
                 x="-318.5"
                 height="4"
                 width="20"
                 id="rect1393"
                 style="display:inline;opacity:1;vector-effect:none;fill:#000000;fill-opacity:0.3969534;stroke:none;stroke-width:1;stroke-linecap:round;stroke-linejoin:round;stroke-miterlimit:4;stroke-dasharray:none;stroke-dashoffset:0;stroke-opacity:1;enable-background:new" /><path
                 id="path1395"
                 d="m 69.75,316.5 v -16 l -16,6 v 4 z"
                 style="display:inline;fill:url(#linearGradient2281);fill-opacity:1;stroke:none;stroke-width:1px;stroke-linecap:butt;stroke-linejoin:miter;stroke-opacity:1;enable-background:new" /><rect
                 transform="matrix(0,-1,-1,0,0,0)"
                 style="display:inline;opacity:1;vector-effect:none;fill:#000000;fill-opacity:0.25925927;stroke:none;stroke-width:1;stroke-linecap:round;stroke-linejoin:round;stroke-miterlimit:4;stroke-dasharray:none;stroke-dashoffset:0;stroke-opacity:1;enable-background:new"
                 id="rect1397"
                 width="20"
                 height="2"
                 x="-318.5"
                 y="-71.75" /></g></g></g></g></g></g><title
     id="title4162">Adwaita Icon Template</title><g
     clip-path="url(#E)"
     transform="matrix(0.710642, 0.14612, -0.14612, 0.710643, -243.594894, 104.005157)"
     id="g13" /><g
     clip-path="url(#E)"
     transform="matrix(0.688495, -0.228779, 0.228779, 0.688495, -271.788055, 314.910919)"
     id="g14" /><g
     clip-path="url(#U)"
     transform="matrix(-1.472002, 0, 0, 1.472, 715.37262, -93.877731)"
     id="g15" /><title
     id="bx-title-1">Adwaita Icon Template</title></svg>
