<?xml version="1.0" encoding="UTF-8" standalone="no"?>
<svg
   height="128px"
   viewBox="0 0 128 128"
   width="128px"
   version="1.1"
   id="svg20"
   sodipodi:docname="discord.svg"
   inkscape:version="1.3.2 (091e20ef0f, 2023-11-25)"
   xml:space="preserve"
   xmlns:inkscape="http://www.inkscape.org/namespaces/inkscape"
   xmlns:sodipodi="http://sodipodi.sourceforge.net/DTD/sodipodi-0.dtd"
   xmlns:xlink="http://www.w3.org/1999/xlink"
   xmlns="http://www.w3.org/2000/svg"
   xmlns:svg="http://www.w3.org/2000/svg"
   xmlns:rdf="http://www.w3.org/1999/02/22-rdf-syntax-ns#"
   xmlns:cc="http://creativecommons.org/ns#"
   xmlns:dc="http://purl.org/dc/elements/1.1/"><sodipodi:namedview
     id="namedview20"
     pagecolor="#ffffff"
     bordercolor="#000000"
     borderopacity="0.25"
     inkscape:showpageshadow="2"
     inkscape:pageopacity="0.0"
     inkscape:pagecheckerboard="0"
     inkscape:deskcolor="#d1d1d1"
     inkscape:zoom="4.3722663"
     inkscape:cx="26.645221"
     inkscape:cy="47.68694"
     inkscape:window-width="1536"
     inkscape:window-height="795"
     inkscape:window-x="0"
     inkscape:window-y="0"
     inkscape:window-maximized="1"
     inkscape:current-layer="g1" /><defs
     id="defs2"><linearGradient
       id="linearGradient18"><stop
         style="stop-color:#5356c7;stop-opacity:1;"
         offset="0"
         id="stop13" /><stop
         style="stop-color:#6a6ddc;stop-opacity:1;"
         offset="0.0455"
         id="stop14" /><stop
         style="stop-color:#5356c7;stop-opacity:1;"
         offset="0.0909"
         id="stop15" /><stop
         style="stop-color:#5356c7;stop-opacity:1;"
         offset="0.9091"
         id="stop16" /><stop
         style="stop-color:#6a6ddc;stop-opacity:1;"
         offset="0.95450002"
         id="stop17" /><stop
         style="stop-color:#5356c7;stop-opacity:1;"
         offset="1"
         id="stop18" /></linearGradient><clipPath
       clipPathUnits="userSpaceOnUse"
       id="Q"><path
         style="display:inline;opacity:1;vector-effect:none;fill:none;fill-opacity:1;stroke:#000;stroke-width:4;stroke-linecap:round;stroke-linejoin:round;stroke-miterlimit:4;stroke-dasharray:none;stroke-dashoffset:0;stroke-opacity:1;marker:none;marker-start:none;marker-mid:none;marker-end:none;paint-order:normal;enable-background:new"
         d="M64-148h64l64-64 64 64h192c17.728 0 32 14.272 32 32v288c0 17.728-14.272 32-32 32H256l-64-64-64 64H64c-17.728 0-32-14.272-32-32v-288c0-17.728 14.409-34.199 32-32z"
         id="path1" /></clipPath><filter
       id="C"
       color-interpolation-filters="sRGB"
       x="0"
       y="0"
       width="1"
       height="1.057"><feFlood
         flood-opacity=".2"
         flood-color="#000"
         result="flood"
         id="feFlood1" /><feComposite
         in="flood"
         in2="SourceGraphic"
         operator="in"
         result="composite1"
         id="feComposite1" /><feGaussianBlur
         in="composite1"
         result="blur"
         id="feGaussianBlur1" /><feOffset
         dy="3"
         result="offset"
         id="feOffset1" /><feComposite
         in="SourceGraphic"
         in2="offset"
         result="composite2"
         id="feComposite2" /></filter><clipPath
       clipPathUnits="userSpaceOnUse"
       id="Q-6"><path
         style="display:inline;opacity:1;vector-effect:none;fill:none;fill-opacity:1;stroke:#000;stroke-width:4;stroke-linecap:round;stroke-linejoin:round;stroke-miterlimit:4;stroke-dasharray:none;stroke-dashoffset:0;stroke-opacity:1;marker:none;marker-start:none;marker-mid:none;marker-end:none;paint-order:normal;enable-background:new"
         d="M64-148h64l64-64 64 64h192c17.728 0 32 14.272 32 32v288c0 17.728-14.272 32-32 32H256l-64-64-64 64H64c-17.728 0-32-14.272-32-32v-288c0-17.728 14.409-34.199 32-32z"
         id="path1-7" /></clipPath><filter
       id="C-5"
       color-interpolation-filters="sRGB"
       x="0"
       y="0"
       width="1"
       height="1.057"><feFlood
         flood-opacity=".2"
         flood-color="#000"
         result="flood"
         id="feFlood1-3" /><feComposite
         in="flood"
         in2="SourceGraphic"
         operator="in"
         result="composite1"
         id="feComposite1-5" /><feGaussianBlur
         in="composite1"
         result="blur"
         id="feGaussianBlur1-6" /><feOffset
         dy="3"
         result="offset"
         id="feOffset1-2" /><feComposite
         in="SourceGraphic"
         in2="offset"
         result="composite2"
         id="feComposite2-9" /></filter><clipPath
       clipPathUnits="userSpaceOnUse"
       id="E"><rect
         width="106.417"
         height="96.355"
         x="512.925"
         y="-137.026"
         rx="6.076"
         ry="6.076"
         fill="#9141ac"
         stroke-width="0"
         stroke-linejoin="round"
         id="rect2" /></clipPath><clipPath
       id="U"
       clipPathUnits="userSpaceOnUse"><circle
         style="marker:none"
         cx="239.051"
         cy="77.264"
         r="19.711"
         fill="#9141ac"
         stroke-width=".529"
         stroke-linecap="round"
         id="circle2" /></clipPath><linearGradient
       id="linearGradient3372"><stop
         style="stop-opacity: 1; stop-color: rgb(179, 179, 179);"
         offset="0"
         id="stop3360" /><stop
         style="stop-opacity: 1; stop-color: rgb(207, 207, 207);"
         offset="0.036"
         id="stop3362" /><stop
         style="stop-opacity: 1; stop-color: rgb(196, 196, 196);"
         offset="0.071"
         id="stop3364" /><stop
         style="stop-opacity: 1; stop-color: rgb(194, 194, 194);"
         offset="0.929"
         id="stop3366" /><stop
         style="stop-opacity: 1; stop-color: rgb(203, 203, 203);"
         offset="0.964"
         id="stop3368" /><stop
         style="stop-opacity: 1; stop-color: rgb(180, 180, 180);"
         offset="1"
         id="stop3370" /></linearGradient><linearGradient
       id="linearGradient18609"
       gradientUnits="userSpaceOnUse"
       x1="8"
       y1="292"
       x2="120"
       y2="292"
       gradientTransform="matrix(1.131846,0,0,0.93199,-8.195232,-157.17883)"
       xlink:href="#linearGradient3372" /><linearGradient
       id="linearGradient3"
       x1="20"
       y1="236"
       x2="108"
       y2="236"
       gradientUnits="userSpaceOnUse"
       gradientTransform="translate(20.903118,-154.88492)"
       xlink:href="#linearGradient2" /><linearGradient
       id="linearGradient2"><stop
         style="stop-color:#c0bfbc;stop-opacity:1;"
         offset="0"
         id="stop2-6" /><stop
         style="stop-color:#deddda;stop-opacity:1"
         offset="0.0455"
         id="stop4-7" /><stop
         style="stop-color:#c0bfbc;stop-opacity:1;"
         offset="0.0909"
         id="stop5-5" /><stop
         style="stop-color:#c0bfbc;stop-opacity:1;"
         offset="0.9091"
         id="stop6-3" /><stop
         style="stop-color:#deddda;stop-opacity:1"
         offset="0.9545"
         id="stop7-5" /><stop
         style="stop-color:#c0bfbc;stop-opacity:1;"
         offset="1"
         id="stop3-6" /></linearGradient><linearGradient
       inkscape:collect="always"
       xlink:href="#linearGradient18"
       id="linearGradient13"
       x1="176.35406"
       y1="60.806957"
       x2="300.04007"
       y2="60.806957"
       gradientUnits="userSpaceOnUse" /></defs><linearGradient
     id="a"
     gradientTransform="matrix(-1.3438664,0,0,1.109221,134.0896,-217.1819)"
     gradientUnits="userSpaceOnUse"
     x1="7.999999"
     x2="112"
     y1="244"
     y2="244"><stop
       offset="0"
       style="stop-color: rgb(91, 102, 188);"
       id="stop2" /><stop
       offset="0.071"
       style="stop-color: rgb(113, 124, 210);"
       id="stop3" /><stop
       offset="0.143"
       style="stop-color: rgb(94, 105, 187);"
       id="stop4" /><stop
       offset="0.857"
       style="stop-color: rgb(86, 99, 189);"
       id="stop5" /><stop
       offset="0.929"
       style="stop-color: rgb(111, 123, 212);"
       id="stop6" /><stop
       offset="1"
       style="stop-color: rgb(91, 102, 189);"
       id="stop7" /></linearGradient><linearGradient
     id="b"
     gradientTransform="matrix(-1.1646837,0,0,1.1646837,123.65031,-232.93366)"
     gradientUnits="userSpaceOnUse"
     x1="31.462524"
     x2="39"
     y1="285.997253"
     y2="285.997253"><stop
       offset="0"
       style="stop-color: rgb(94, 105, 187);"
       id="stop8" /><stop
       offset="0.469"
       style="stop-color: rgb(88, 97, 180);"
       id="stop9" /><stop
       offset="1"
       style="stop-color: rgb(87, 100, 189);"
       id="stop10" /></linearGradient><clipPath
     id="clip-8"><path
       d="m 24 10 c -6.628906 0 -12 5.371094 -12 12 v 22 c 0 2.210938 1.789062 4 4 4 c 1.105469 0 2 0.894531 2 2 v 7 c 0 1.105469 -0.894531 2 -2 2 c -2.210938 0 -4 1.789062 -4 4 v 2 h 24 v -2 c 0 -2.210938 -1.789062 -4 -4 -4 c -1.105469 0 -2 -0.894531 -2 -2 v -7 c 0 -1.105469 0.894531 -2 2 -2 c 2.210938 0 4 -1.789062 4 -4 v -22 c 0 -6.628906 -5.371094 -12 -12 -12 z m 0 0"
       id="path14" /></clipPath><clipPath
     id="clip-10"><path
       d="m 24 10 c -6.628906 0 -12 5.371094 -12 12 v 22 c 0 2.210938 1.789062 4 4 4 c 1.105469 0 2 0.894531 2 2 v 7 c 0 1.105469 -0.894531 2 -2 2 c -2.210938 0 -4 1.789062 -4 4 v 2 h 24 v -2 c 0 -2.210938 -1.789062 -4 -4 -4 c -1.105469 0 -2 -0.894531 -2 -2 v -7 c 0 -1.105469 0.894531 -2 2 -2 c 2.210938 0 4 -1.789062 4 -4 v -22 c 0 -6.628906 -5.371094 -12 -12 -12 z m 0 0"
       id="path15" /></clipPath><clipPath
     id="clip-12"><path
       d="m 24 10 c -6.628906 0 -12 5.371094 -12 12 v 22 c 0 2.210938 1.789062 4 4 4 c 1.105469 0 2 0.894531 2 2 v 7 c 0 1.105469 -0.894531 2 -2 2 c -2.210938 0 -4 1.789062 -4 4 v 2 h 24 v -2 c 0 -2.210938 -1.789062 -4 -4 -4 c -1.105469 0 -2 -0.894531 -2 -2 v -7 c 0 -1.105469 0.894531 -2 2 -2 c 2.210938 0 4 -1.789062 4 -4 v -22 c 0 -6.628906 -5.371094 -12 -12 -12 z m 0 0"
       id="path16" /></clipPath><g
     clip-path="url(#clip-8)"
     transform="matrix(4.90695, 0, 0, 4.906949, 1278.091309, 1182.062378)"
     id="g16" /><g
     clip-path="url(#clip-10)"
     transform="matrix(4.90695, 0, 0, 4.906949, 1278.091309, 1182.062378)"
     id="g17" /><g
     clip-path="url(#clip-12)"
     transform="matrix(4.90695, 0, 0, 4.906949, 1278.091309, 1182.062378)"
     id="g18" /><title
     id="title4162">Adwaita Icon Template</title><title
     id="bx-title-1">Adwaita Icon Template</title><circle
     style="fill:#fff;fill-opacity:.226961;stroke:none;stroke-width:1.99999;stroke-opacity:1;stop-color:#000"
     cx="396.832"
     cy="25.734"
     r="4.103"
     id="circle18" /><g
     clip-path="url(#Q)"
     style="display: inline; opacity: 1; filter: url('#C');"
     transform="matrix(0.124999, 0, 0, 0.125, 465.414825, 97.291336)"
     id="g19" /><g
     transform="matrix(0.499995, 0, 0, 0.499998, 465.414825, -21.208382)"
     style="display: inline; filter: url('#C');"
     id="g20" /><g
     id="g1"
     transform="translate(-173.87343,12.505264)"><path
       d="m 300.04006,35.900898 v 32.983 c 0,13.661 -11.076,24.737003 -24.737,24.737003 h -36.643 c -1.867,0 -3.667,0.713 -5.033,1.994 l -14.377,13.506999 c -1.422,1.337 -3.498,1.7 -5.291,0.927 -1.787,-0.773 -2.947,-2.537 -2.947,-4.49 v -7.814999 c 0,-2.279 -1.844,-4.123 -4.123,-4.123 h -5.798 c -13.661,0 -24.737,-11.076003 -24.737,-24.737003 v -32.983 c 0,-13.661 11.076,-24.737 24.737,-24.737 h 74.212 c 13.661,0 24.737,11.076 24.737,24.737 z m -93.151,57.720003 z"
       style="fill:url(#linearGradient13);fill-opacity:1"
       id="path2-1" /><path
       d="m 233.62706,86.491898 -14.422,13.552002 c -1.413,1.324 -3.478,1.687 -5.261,0.918 -1.78,-0.769 -2.932,-2.524999 -2.932,-4.464999 v -7.876003 c 0,-2.278 -1.844,-4.122 -4.123,-4.122 h -5.798 c -13.661,0 -24.737,-11.076 -24.737,-24.738 v -37.105 c 0,-13.6610005 11.076,-24.7370008 24.737,-24.7370008 h 74.212 c 13.661,0 24.737,11.0760003 24.737,24.7370008 v 37.105 c 0,13.662 -11.076,24.738 -24.737,24.738 h -36.643 c -1.867,0 -3.667,0.712 -5.033,1.993 z"
       fill-rule="evenodd"
       style="fill:#686adb;fill-opacity:1"
       id="path3" /><g
       clip-path="url(#clip-8-2)"
       transform="matrix(4.90695,0,0,4.906949,1278.0913,1182.0624)"
       id="g6" /><g
       clip-path="url(#clip-10-7)"
       transform="matrix(4.90695,0,0,4.906949,1278.0913,1182.0624)"
       id="g7" /><g
       clip-path="url(#clip-12-0)"
       transform="matrix(4.90695,0,0,4.906949,1278.0913,1182.0624)"
       id="g8" /><g
       clip-path="url(#Q-6)"
       style="display:inline;opacity:1;filter:url(#C-5)"
       transform="matrix(0.124999,0,0,0.125,465.41482,97.291336)"
       id="g9" /><g
       transform="matrix(0.499995,0,0,0.499998,465.41482,-21.208382)"
       style="display:inline;filter:url(#C-5)"
       id="g10" /><g
       style="display:inline;fill:#000000;enable-background:new"
       transform="matrix(7.991171,0,0,8.003645,171.66425,-5479.6519)"
       id="g12027" /><g
       id="g883"
       style="display:inline;fill:none;fill-opacity:0.25098;stroke:#a579b3;stroke-opacity:1"
       transform="translate(315.45514,-609.57465)" /><g
       id="g900"
       style="display:inline;fill:none;fill-opacity:0.25098;stroke:#a579b3;stroke-opacity:1"
       transform="translate(315.45514,-609.57465)" /><g
       transform="matrix(-1,0,0,1,259.45514,300.42535)"
       style="display:inline;enable-background:new"
       id="g36832" /><path
       style="fill:#365e95;stroke:#e4e4e4;stroke-width:12.0893px;stroke-linecap:round;stroke-linejoin:round"
       d="m 252.00906,28.830898 c -0.001,-0.112 0.001,-0.39 0.005,-0.781 z m 0.005,-0.781 0.05,-8.102 c 0.028,1.176 -0.032,6.112 -0.05,8.102 z m -28.129,0.781 c -0.001,-0.123 10e-4,-0.447 0.006,-0.902 z m 0.006,-0.902 0.049,-7.981 c 0.027,1.153 -0.03,5.92 -0.049,7.981 z m 37.215,21.972 c -2.347,26.373 -45.952,27.844 -47.359,-0.31 z"
       id="path10-6" /><path
       style="fill:#f4f7fb;stroke:#f4f7fb;stroke-width:12.0893px;stroke-linecap:round;stroke-linejoin:round"
       d="m 252.00906,25.830898 c -0.001,-0.112 0.001,-0.39 0.005,-0.781 z m 0.005,-0.781 0.05,-8.102 c 0.028,1.176 -0.032,6.112 -0.05,8.102 z m -28.129,0.781 c -0.001,-0.123 10e-4,-0.447 0.006,-0.902 z m 0.006,-0.902 0.049,-7.981 c 0.027,1.153 -0.03,5.92 -0.049,7.981 z m 37.215,21.972 c -2.347,26.373 -45.952,27.844 -47.359,-0.31 z"
       id="path11-0" /><g
       clip-path="url(#E)"
       transform="matrix(0.710642,0.14612,-0.14612,0.710643,-99.595604,100.45843)"
       id="g11" /><g
       clip-path="url(#E)"
       transform="matrix(0.688495,-0.228779,0.228779,0.688495,-127.78876,311.3642)"
       id="g12" /><g
       clip-path="url(#U)"
       transform="matrix(-1.472002,0,0,1.472,859.37189,-97.424461)"
       id="g13" /></g><metadata
     id="metadata1"><rdf:RDF><cc:Work
         rdf:about=""><dc:title>Adwaita Icon Template</dc:title></cc:Work></rdf:RDF></metadata></svg>
