<?xml version="1.0" encoding="UTF-8" standalone="no"?>
<svg
   height="128px"
   width="128px"
   viewBox="0 0 128 128"
   version="1.1"
   id="svg17"
   sodipodi:docname="envelope.svg"
   xml:space="preserve"
   inkscape:version="1.3.2 (091e20ef0f, 2023-11-25)"
   xmlns:inkscape="http://www.inkscape.org/namespaces/inkscape"
   xmlns:sodipodi="http://sodipodi.sourceforge.net/DTD/sodipodi-0.dtd"
   xmlns:xlink="http://www.w3.org/1999/xlink"
   xmlns="http://www.w3.org/2000/svg"
   xmlns:svg="http://www.w3.org/2000/svg"><sodipodi:namedview
     id="namedview17"
     pagecolor="#ffffff"
     bordercolor="#000000"
     borderopacity="0.25"
     inkscape:showpageshadow="2"
     inkscape:pageopacity="0.0"
     inkscape:pagecheckerboard="0"
     inkscape:deskcolor="#d1d1d1"
     showguides="false"
     inkscape:zoom="4.8791618"
     inkscape:cx="78.394613"
     inkscape:cy="63.02312"
     inkscape:window-width="1536"
     inkscape:window-height="795"
     inkscape:window-x="0"
     inkscape:window-y="0"
     inkscape:window-maximized="1"
     inkscape:current-layer="layer9" /><defs
     id="defs2"><inkscape:path-effect
       effect="simplify"
       id="path-effect13"
       is_visible="true"
       lpeversion="1.3"
       threshold="94.2857"
       steps="1"
       smooth_angles="360"
       helper_size="0"
       simplify_individual_paths="false"
       simplify_just_coalesce="false" /><inkscape:path-effect
       effect="simplify"
       id="path-effect11"
       is_visible="true"
       lpeversion="1.3"
       threshold="94.2857"
       steps="1"
       smooth_angles="360"
       helper_size="0"
       simplify_individual_paths="false"
       simplify_just_coalesce="false" /><inkscape:path-effect
       effect="simplify"
       id="path-effect10"
       is_visible="true"
       lpeversion="1.3"
       threshold="94.2857"
       steps="1"
       smooth_angles="360"
       helper_size="0"
       simplify_individual_paths="false"
       simplify_just_coalesce="false" /><inkscape:path-effect
       effect="simplify"
       id="path-effect9"
       is_visible="true"
       lpeversion="1.3"
       threshold="94.2857"
       steps="1"
       smooth_angles="360"
       helper_size="0"
       simplify_individual_paths="false"
       simplify_just_coalesce="false" /><inkscape:path-effect
       effect="simplify"
       id="path-effect8"
       is_visible="true"
       lpeversion="1.3"
       threshold="94.2857"
       steps="1"
       smooth_angles="360"
       helper_size="0"
       simplify_individual_paths="false"
       simplify_just_coalesce="false" /><linearGradient
       gradientUnits="userSpaceOnUse"
       x1="63.747"
       y1="15.186"
       x2="63.747"
       y2="97.254"
       id="gradient-0"
       gradientTransform="matrix(1.002745, -0.000785, 0.004793, 6.134053, 2.84547, -136.938487)"><stop
         offset="0"
         style="stop-color:#c3e0f2;stop-opacity:1;"
         id="stop1" /><stop
         offset="1"
         style="stop-color: rgb(9, 28, 53);"
         id="stop2" /></linearGradient></defs><filter
     id="g"
     height="1"
     width="1"
     x="0"
     y="0"><feColorMatrix
       in="SourceGraphic"
       type="matrix"
       values="0 0 0 0 1 0 0 0 0 1 0 0 0 0 1 0 0 0 1 0"
       id="feColorMatrix2" /></filter><linearGradient
     id="i"
     gradientUnits="userSpaceOnUse"><stop
       offset="0"
       stop-color="#ffffff"
       id="stop3" /><stop
       offset="1"
       stop-color="#ffffff"
       stop-opacity="0"
       id="stop4" /></linearGradient><clipPath
     id="B"><path
       d="m 22 42 h 60 v 61 h -60 z m 0 0"
       id="path4" /></clipPath><clipPath
     id="C"><path
       d="m 22.0625 72.179688 c 0 16.535156 13.402344 29.9375 29.9375 29.9375 s 29.9375 -13.402344 29.9375 -29.9375 c 0 -16.535157 -13.402344 -29.9375 -29.9375 -29.9375 s -29.9375 13.402343 -29.9375 29.9375 z m 0 0"
       id="path5" /></clipPath><mask
     id="D"><g
       filter="url(#g)"
       id="g5"><rect
         fill-opacity="0.768678"
         height="128"
         width="128"
         id="rect5" /></g></mask><linearGradient
     id="E"
     gradientTransform="matrix(0 1.714284 -1.714284 0 501.142633 10.057194)"
     x1="24"
     x2="38"
     y1="238"
     y2="238"
     xlink:href="#i" /><clipPath
     id="F"><rect
       height="152"
       width="192"
       id="rect6" /></clipPath><clipPath
     id="f"><path
       d="m 88 88 h 28 v 28 h -28 z m 0 0"
       id="path14" /></clipPath><clipPath
     id="clip-1"><path
       d="m 116 88 l -28 28 h -8 v -36 h 36 z m 0 0"
       id="path15" /></clipPath><linearGradient
     id="h"
     gradientTransform="matrix(0, 0.25, 0.25, 0, 83, 16.000001)"
     gradientUnits="userSpaceOnUse"
     x1="344"
     x2="336"
     y1="76"
     y2="68"><stop
       offset="0"
       style="stop-color:#cccccc;stop-opacity:1;"
       id="stop15" /><stop
       offset="1"
       style="stop-color:#dcdcdc;stop-opacity:1;"
       id="stop16" /></linearGradient><g
     inkscape:groupmode="layer"
     id="layer9"
     inkscape:label="icons"
     style="display:inline"
     transform="translate(-186.58356,-181.96777)"><rect
       style="fill:#ebebeb;stroke:none;stroke-width:2.55847;stroke-linecap:square"
       id="rect9"
       width="127.5687"
       height="98.970238"
       x="186.83235"
       y="197.94524"
       ry="10.588084" /><rect
       style="display:inline;fill:#fefefe;fill-opacity:1;stroke:none;stroke-width:2.55847;stroke-linecap:square"
       id="rect11"
       width="127.5687"
       height="98.970238"
       x="186.83235"
       y="194.94627"
       ry="10.588084" /><rect
       style="fill:none;stroke:#75a2d0;stroke-width:5.235;stroke-linecap:square;stroke-dasharray:none;stroke-opacity:1"
       id="rect10"
       width="110.14356"
       height="79.82637"
       x="195.74887"
       y="204.08467"
       ry="3.8760543" /></g><g
     id="g8"
     transform="matrix(1.1515763,0,0,1.1515763,-2.1007767,3.67309)"><g
       id="g38"
       transform="matrix(0.9896165,-0.11625323,0.11656669,0.99228494,-98.619422,-167.5342)"
       style="display:inline"><path
         id="rect13"
         style="display:inline;fill:#e5e5e5;fill-opacity:1;stroke:none;stroke-width:2.28525;stroke-linecap:square;stroke-linejoin:bevel;stroke-dasharray:none;stroke-opacity:1"
         d="m 92.286685,207.12793 v 3.03125 a 2.3939295,2.3939295 0 0 1 2.357422,2.38672 2.3939295,2.3939295 0 0 1 -2.357422,2.39257 v 1.64063 a 2.3939295,2.3939295 0 0 1 2.357422,2.39258 2.3939295,2.3939295 0 0 1 -2.357422,2.39257 v 1.64063 a 2.3939295,2.3939295 0 0 1 2.357422,2.39258 2.3939295,2.3939295 0 0 1 -2.357422,2.38672 v 1.65039 a 2.3939295,2.3939295 0 0 1 2.357422,2.38672 2.3939295,2.3939295 0 0 1 -2.357422,2.39257 v 1.64649 a 2.3939295,2.3939295 0 0 1 2.357422,2.38672 2.3939295,2.3939295 0 0 1 -2.357422,2.39258 v 3.78515 h 2.685547 a 2.3939295,2.3939295 0 0 1 2.320312,-1.83984 2.3939295,2.3939295 0 0 1 2.326172,1.83984 h 1.779294 a 2.3939295,2.3939295 0 0 1 2.32032,-1.83984 2.3939295,2.3939295 0 0 1 2.32617,1.83984 h 1.77929 a 2.3939295,2.3939295 0 0 1 2.32032,-1.83984 2.3939295,2.3939295 0 0 1 2.32422,1.83984 h 1.78125 a 2.3939295,2.3939295 0 0 1 2.31836,-1.83984 2.3939295,2.3939295 0 0 1 2.32617,1.83984 h 2.77929 v -3.81055 a 2.3939295,2.3939295 0 0 1 -2.22265,-2.36718 2.3939295,2.3939295 0 0 1 2.22265,-2.36524 v -1.69336 a 2.3939295,2.3939295 0 0 1 -2.22265,-2.36718 2.3939295,2.3939295 0 0 1 2.22265,-2.36524 v -1.69336 a 2.3939295,2.3939295 0 0 1 -2.22265,-2.36523 2.3939295,2.3939295 0 0 1 2.22265,-2.36719 v -1.69141 a 2.3939295,2.3939295 0 0 1 -2.22265,-2.36718 2.3939295,2.3939295 0 0 1 2.22265,-2.36719 v -1.69141 a 2.3939295,2.3939295 0 0 1 -2.22265,-2.36718 2.3939295,2.3939295 0 0 1 2.22265,-2.36524 v -3.05273 h -2.71679 a 2.3939295,2.3939295 0 0 1 -2.38867,2.24609 2.3939295,2.3939295 0 0 1 -2.37305,-2.24609 h -1.66406 a 2.3939295,2.3939295 0 0 1 -2.38672,2.24609 2.3939295,2.3939295 0 0 1 -2.375,-2.24609 H 106.107 a 2.3939295,2.3939295 0 0 1 -2.38867,2.24609 2.3939295,2.3939295 0 0 1 -2.375,-2.24609 h -1.662114 a 2.3939295,2.3939295 0 0 1 -2.388672,2.24609 2.3939295,2.3939295 0 0 1 -2.375,-2.24609 z" /><rect
         style="fill:#8bc0d9;fill-opacity:1;stroke:none;stroke-width:2.64808;stroke-linecap:square;stroke-linejoin:bevel;stroke-dasharray:none;stroke-opacity:1"
         id="rect38"
         width="19.621122"
         height="27.466389"
         x="97.175293"
         y="212.10059" /></g><g
       id="g13"
       transform="matrix(0.66673606,0.74048541,-0.74048541,0.66673606,20.461385,-293.93281)"
       style="display:inline;stroke-width:2.51764;stroke-dasharray:none"><circle
         style="fill:#f75353;fill-opacity:0;stroke:#ed4f4f;stroke-width:2.51764;stroke-dasharray:none;stroke-opacity:1"
         id="path7"
         cx="281.60117"
         cy="212.10216"
         r="11.560942" /><path
         style="fill:none;fill-opacity:1;stroke:#ed4f4f;stroke-width:3.18942;stroke-linecap:round;stroke-linejoin:round;stroke-dasharray:none;stroke-opacity:1"
         d="m 264.15504,227.22001 c -0.72323,1.86714 -2.03647,8.25725 1.13112,4.77157 3.35354,-3.6903 5.04855,-2.8424 8.85461,-0.1513 2.15623,1.52458 4.90504,-0.7526 7.37785,0.80649"
         id="path8"
         inkscape:path-effect="#path-effect9"
         inkscape:original-d="m 264.15504,227.22001 c -0.18618,0.75927 -0.40685,1.62267 -0.69015,2.38174 -0.0271,0.0725 -0.24457,0.32774 -0.26275,0.36752 -0.21756,0.47626 -0.21887,1.11802 -0.27326,1.62748 -0.0332,0.31119 -0.1926,0.65152 -0.0637,0.93671 0.11784,0.26076 0.41116,0.2884 0.65495,0.26821 0.76448,-0.0633 1.11447,-0.44681 1.76603,-0.81009 1.08899,-0.60718 2.26262,-1.1938 3.52942,-1.1938 0.29106,0 0.46361,0.90954 0.70977,1.19643 0.28021,0.32657 1.15293,0.57284 1.46404,0.64079 0.76565,0.16724 1.8335,0.21232 2.49177,-0.28621 0.58584,-0.44368 0.14658,-0.45153 0.65961,-0.50851 0.49237,-0.0547 0.53465,0.66928 1.03562,0.72494 1.07732,0.1197 2.22882,-0.65717 3.34961,-0.73404 1.9097,-0.13098 0.63863,0.976 2.99262,0.81559"
         transform="matrix(0.683617,-0.39468646,0.39468646,0.683617,3.7585682,160.24104)"
         sodipodi:nodetypes="ccccssssssssssc" /><path
         style="fill:none;fill-opacity:1;stroke:#ed4f4f;stroke-width:2.51764;stroke-linecap:round;stroke-dasharray:none;stroke-opacity:1"
         d="m 263.2511,233.94653 c 2.13406,0.37358 4.72721,-3.09616 5.85768,-1.40128 1.60767,2.41035 4.23316,0.96198 6.50605,0.81246 0.58737,-0.0386 1.19078,-0.0307 1.758,0.14478"
         id="path13"
         inkscape:path-effect="#path-effect13"
         inkscape:original-d="m 263.2511,233.94653 c 2.20981,-0.0376 2.96471,-0.7958 4.98002,-1.56882 0.41413,-0.24514 1.3838,0.39736 1.62746,0.88365 0.19914,0.39744 2.1559,1.093 2.56752,0.8577 0.52168,-0.29822 3.33144,-1.13046 4.94673,-0.61657"
         transform="rotate(-25,235.21662,195.0341)"
         sodipodi:nodetypes="ccssc" /></g></g></svg>
