<?xml version="1.0" encoding="UTF-8" standalone="no"?>
<svg
   height="128px"
   width="128px"
   viewBox="0 0 128 128"
   version="1.1"
   id="svg17"
   sodipodi:docname="exit.svg"
   xml:space="preserve"
   inkscape:version="1.3.2 (091e20ef0f, 2023-11-25)"
   xmlns:inkscape="http://www.inkscape.org/namespaces/inkscape"
   xmlns:sodipodi="http://sodipodi.sourceforge.net/DTD/sodipodi-0.dtd"
   xmlns:xlink="http://www.w3.org/1999/xlink"
   xmlns="http://www.w3.org/2000/svg"
   xmlns:svg="http://www.w3.org/2000/svg"><sodipodi:namedview
     id="namedview17"
     pagecolor="#ffffff"
     bordercolor="#000000"
     borderopacity="0.25"
     inkscape:showpageshadow="2"
     inkscape:pageopacity="0.0"
     inkscape:pagecheckerboard="0"
     inkscape:deskcolor="#d1d1d1"
     showguides="false"
     inkscape:zoom="2.8624655"
     inkscape:cx="51.878354"
     inkscape:cy="49.083561"
     inkscape:window-width="1536"
     inkscape:window-height="795"
     inkscape:window-x="0"
     inkscape:window-y="0"
     inkscape:window-maximized="1"
     inkscape:current-layer="rect2" /><defs
     id="defs2"><inkscape:path-effect
       effect="simplify"
       id="path-effect13"
       is_visible="true"
       lpeversion="1.3"
       threshold="94.2857"
       steps="1"
       smooth_angles="360"
       helper_size="0"
       simplify_individual_paths="false"
       simplify_just_coalesce="false" /><inkscape:path-effect
       effect="simplify"
       id="path-effect11"
       is_visible="true"
       lpeversion="1.3"
       threshold="94.2857"
       steps="1"
       smooth_angles="360"
       helper_size="0"
       simplify_individual_paths="false"
       simplify_just_coalesce="false" /><inkscape:path-effect
       effect="simplify"
       id="path-effect10"
       is_visible="true"
       lpeversion="1.3"
       threshold="94.2857"
       steps="1"
       smooth_angles="360"
       helper_size="0"
       simplify_individual_paths="false"
       simplify_just_coalesce="false" /><inkscape:path-effect
       effect="simplify"
       id="path-effect9"
       is_visible="true"
       lpeversion="1.3"
       threshold="94.2857"
       steps="1"
       smooth_angles="360"
       helper_size="0"
       simplify_individual_paths="false"
       simplify_just_coalesce="false" /><inkscape:path-effect
       effect="simplify"
       id="path-effect8"
       is_visible="true"
       lpeversion="1.3"
       threshold="94.2857"
       steps="1"
       smooth_angles="360"
       helper_size="0"
       simplify_individual_paths="false"
       simplify_just_coalesce="false" /><linearGradient
       gradientUnits="userSpaceOnUse"
       x1="63.747"
       y1="15.186"
       x2="63.747"
       y2="97.254"
       id="gradient-0"
       gradientTransform="matrix(1.002745, -0.000785, 0.004793, 6.134053, 2.84547, -136.938487)"><stop
         offset="0"
         style="stop-color:#c3e0f2;stop-opacity:1;"
         id="stop1" /><stop
         offset="1"
         style="stop-color: rgb(9, 28, 53);"
         id="stop2" /></linearGradient></defs><filter
     id="g"
     height="1"
     width="1"
     x="0"
     y="0"><feColorMatrix
       in="SourceGraphic"
       type="matrix"
       values="0 0 0 0 1 0 0 0 0 1 0 0 0 0 1 0 0 0 1 0"
       id="feColorMatrix2" /></filter><linearGradient
     id="i"
     gradientUnits="userSpaceOnUse"><stop
       offset="0"
       stop-color="#ffffff"
       id="stop3" /><stop
       offset="1"
       stop-color="#ffffff"
       stop-opacity="0"
       id="stop4" /></linearGradient><clipPath
     id="B"><path
       d="m 22 42 h 60 v 61 h -60 z m 0 0"
       id="path4" /></clipPath><clipPath
     id="C"><path
       d="m 22.0625 72.179688 c 0 16.535156 13.402344 29.9375 29.9375 29.9375 s 29.9375 -13.402344 29.9375 -29.9375 c 0 -16.535157 -13.402344 -29.9375 -29.9375 -29.9375 s -29.9375 13.402343 -29.9375 29.9375 z m 0 0"
       id="path5" /></clipPath><mask
     id="D"><g
       filter="url(#g)"
       id="g5"><rect
         fill-opacity="0.768678"
         height="128"
         width="128"
         id="rect5" /></g></mask><linearGradient
     id="E"
     gradientTransform="matrix(0 1.714284 -1.714284 0 501.142633 10.057194)"
     x1="24"
     x2="38"
     y1="238"
     y2="238"
     xlink:href="#i" /><clipPath
     id="F"><rect
       height="152"
       width="192"
       id="rect6" /></clipPath><clipPath
     id="f"><path
       d="m 88 88 h 28 v 28 h -28 z m 0 0"
       id="path14" /></clipPath><clipPath
     id="clip-1"><path
       d="m 116 88 l -28 28 h -8 v -36 h 36 z m 0 0"
       id="path15" /></clipPath><linearGradient
     id="h"
     gradientTransform="matrix(0, 0.25, 0.25, 0, 83, 16.000001)"
     gradientUnits="userSpaceOnUse"
     x1="344"
     x2="336"
     y1="76"
     y2="68"><stop
       offset="0"
       style="stop-color:#cccccc;stop-opacity:1;"
       id="stop15" /><stop
       offset="1"
       style="stop-color:#dcdcdc;stop-opacity:1;"
       id="stop16" /></linearGradient><g
     inkscape:groupmode="layer"
     id="layer9"
     inkscape:label="icons"
     style="display:inline"
     transform="translate(-186.58356,-181.96777)"><g
       id="rect2"
       transform="translate(0,-4)"><path
         style="color:#000000;fill:#e01b24;fill-opacity:1;stroke-width:0.910683;stroke-linecap:square;-inkscape-stroke:none"
         d="m 208.87492,197.0541 c -8.70323,0 -15.87827,7.17505 -15.87827,15.87827 v 77.05412 c 0,8.70323 7.17504,15.87827 15.87827,15.87827 h 84.23464 c 8.70323,0 15.87827,-7.17505 15.87827,-15.87827 v -77.05412 c 0,-8.70322 -7.17504,-15.87827 -15.87827,-15.87827 z"
         id="path8"
         sodipodi:nodetypes="sssssssss" /><path
         style="color:#000000;fill:#ec262f;fill-opacity:1;stroke-width:0.910683;stroke-linecap:square;-inkscape-stroke:none"
         d="m 208.87492,193.0541 c -8.70323,0 -15.87827,7.17505 -15.87827,15.87827 v 73.05412 c 0,8.70323 7.17504,15.87827 15.87827,15.87827 h 84.23464 c 8.70323,0 15.87827,-7.17505 15.87827,-15.87827 v -73.05412 c 0,-8.70322 -7.17504,-15.87827 -15.87827,-15.87827 z"
         id="path3"
         sodipodi:nodetypes="sssssssss" /><g
         id="g3"
         transform="translate(49.586024,165.70803)" /><path
         id="path63"
         style="color:#000000;display:inline;fill:#ffffff;stroke-width:4.19504;stroke-linecap:round;-inkscape-stroke:none"
         d="m 259.48147,216.14565 a 8.3900775,8.3900775 0 0 0 -4.98983,2.40887 8.3900775,8.3900775 0 0 0 0,11.86407 l 6.65308,6.65308 h -40.55751 a 8.3900775,8.3900775 0 0 0 -8.39008,8.39008 8.3900775,8.3900775 0 0 0 8.39008,8.39008 h 40.55751 l -6.65308,6.65308 a 8.3900775,8.3900775 0 0 0 0,11.86407 8.3900775,8.3900775 0 0 0 11.86411,0 l 20.97519,-20.9752 a 8.3909164,8.3909164 0 0 0 0,-11.86407 l -20.97519,-20.97519 a 8.3900775,8.3900775 0 0 0 -6.87428,-2.40887 z" /></g></g></svg>
