<?xml version="1.0" encoding="UTF-8" standalone="no"?>
<svg
   height="128px"
   viewBox="0 0 128 128"
   width="128px"
   version="1.1"
   id="svg31"
   sodipodi:docname="mail.svg"
   inkscape:version="1.3.2 (091e20ef0f, 2023-11-25)"
   xml:space="preserve"
   xmlns:inkscape="http://www.inkscape.org/namespaces/inkscape"
   xmlns:sodipodi="http://sodipodi.sourceforge.net/DTD/sodipodi-0.dtd"
   xmlns:xlink="http://www.w3.org/1999/xlink"
   xmlns="http://www.w3.org/2000/svg"
   xmlns:svg="http://www.w3.org/2000/svg"
   xmlns:bx="https://boxy-svg.com"><defs
     id="defs31"><linearGradient
       id="linearGradient20"><stop
         style="stop-color:#ed333b;stop-opacity:1;"
         offset="0"
         id="stop12" /><stop
         style="stop-color:#ec373f;stop-opacity:1;"
         offset="0.0455"
         id="stop13" /><stop
         style="stop-color:#ed333b;stop-opacity:1;"
         offset="0.0909"
         id="stop17" /><stop
         style="stop-color:#ed3139;stop-opacity:1;"
         offset="0.9091"
         id="stop18" /><stop
         style="stop-color:#ec373f;stop-opacity:1;"
         offset="0.95450002"
         id="stop19" /><stop
         style="stop-color:#ed333b;stop-opacity:1;"
         offset="1"
         id="stop20" /></linearGradient><inkscape:path-effect
       effect="fillet_chamfer"
       id="path-effect4"
       is_visible="true"
       lpeversion="1"
       nodesatellites_param="F,0,0,1,0,0,0,1 @ F,0,0,1,0,10.222211,0,1 @ F,0,0,1,0,0,0,1"
       radius="0"
       unit="px"
       method="auto"
       mode="F"
       chamfer_steps="1"
       flexible="false"
       use_knot_distance="true"
       apply_no_radius="true"
       apply_with_radius="true"
       only_selected="false"
       hide_knots="false" /><inkscape:path-effect
       effect="fillet_chamfer"
       id="path-effect2"
       is_visible="true"
       lpeversion="1"
       nodesatellites_param="F,0,0,1,0,0,0,1 @ F,0,0,1,0,10.222211,0,1 @ F,0,0,1,0,0,0,1"
       radius="0"
       unit="px"
       method="auto"
       mode="F"
       chamfer_steps="1"
       flexible="false"
       use_knot_distance="true"
       apply_no_radius="true"
       apply_with_radius="true"
       only_selected="false"
       hide_knots="false" /><inkscape:path-effect
       effect="simplify"
       id="path-effect13"
       is_visible="true"
       lpeversion="1.3"
       threshold="94.2857"
       steps="1"
       smooth_angles="360"
       helper_size="0"
       simplify_individual_paths="false"
       simplify_just_coalesce="false" /><inkscape:path-effect
       effect="simplify"
       id="path-effect11"
       is_visible="true"
       lpeversion="1.3"
       threshold="94.2857"
       steps="1"
       smooth_angles="360"
       helper_size="0"
       simplify_individual_paths="false"
       simplify_just_coalesce="false" /><inkscape:path-effect
       effect="simplify"
       id="path-effect10"
       is_visible="true"
       lpeversion="1.3"
       threshold="94.2857"
       steps="1"
       smooth_angles="360"
       helper_size="0"
       simplify_individual_paths="false"
       simplify_just_coalesce="false" /><inkscape:path-effect
       effect="simplify"
       id="path-effect9"
       is_visible="true"
       lpeversion="1.3"
       threshold="94.2857"
       steps="1"
       smooth_angles="360"
       helper_size="0"
       simplify_individual_paths="false"
       simplify_just_coalesce="false" /><inkscape:path-effect
       effect="simplify"
       id="path-effect8"
       is_visible="true"
       lpeversion="1.3"
       threshold="94.2857"
       steps="1"
       smooth_angles="360"
       helper_size="0"
       simplify_individual_paths="false"
       simplify_just_coalesce="false" /><linearGradient
       gradientUnits="userSpaceOnUse"
       x1="63.747"
       y1="15.186"
       x2="63.747"
       y2="97.254"
       id="gradient-0"
       gradientTransform="matrix(1.002745, -0.000785, 0.004793, 6.134053, 2.84547, -136.938487)"><stop
         offset="0"
         style="stop-color:#c3e0f2;stop-opacity:1;"
         id="stop1-3" /><stop
         offset="1"
         style="stop-color: rgb(9, 28, 53);"
         id="stop2-6" /></linearGradient><linearGradient
       id="linearGradient3372"><stop
         style="stop-opacity: 1; stop-color: rgb(179, 179, 179);"
         offset="0"
         id="stop3360" /><stop
         style="stop-opacity: 1; stop-color: rgb(207, 207, 207);"
         offset="0.036"
         id="stop3362" /><stop
         style="stop-opacity: 1; stop-color: rgb(196, 196, 196);"
         offset="0.071"
         id="stop3364" /><stop
         style="stop-opacity: 1; stop-color: rgb(194, 194, 194);"
         offset="0.929"
         id="stop3366" /><stop
         style="stop-opacity: 1; stop-color: rgb(203, 203, 203);"
         offset="0.964"
         id="stop3368" /><stop
         style="stop-opacity: 1; stop-color: rgb(180, 180, 180);"
         offset="1"
         id="stop3370" /></linearGradient><linearGradient
       id="linearGradient18609"
       gradientUnits="userSpaceOnUse"
       x1="8"
       y1="292"
       x2="120"
       y2="292"
       gradientTransform="matrix(1.131846,0,0,0.93199,-8.195232,-157.17883)"
       xlink:href="#linearGradient3372" /><linearGradient
       id="linearGradient3"
       x1="20"
       y1="236"
       x2="108"
       y2="236"
       gradientUnits="userSpaceOnUse"
       gradientTransform="translate(20.903118,-154.88492)"
       xlink:href="#linearGradient2" /><linearGradient
       id="linearGradient2"><stop
         style="stop-color:#c0bfbc;stop-opacity:1;"
         offset="0"
         id="stop2-3" /><stop
         style="stop-color:#deddda;stop-opacity:1"
         offset="0.0455"
         id="stop4-6" /><stop
         style="stop-color:#c0bfbc;stop-opacity:1;"
         offset="0.0909"
         id="stop5-7" /><stop
         style="stop-color:#c0bfbc;stop-opacity:1;"
         offset="0.9091"
         id="stop6-5" /><stop
         style="stop-color:#deddda;stop-opacity:1"
         offset="0.9545"
         id="stop7-3" /><stop
         style="stop-color:#c0bfbc;stop-opacity:1;"
         offset="1"
         id="stop3-5" /></linearGradient><linearGradient
       id="color-0"
       gradientUnits="userSpaceOnUse"
       bx:pinned="true"><stop
         style="stop-color: rgb(255, 207, 63)"
         id="stop1-36" /></linearGradient><linearGradient
       id="color-1"
       gradientUnits="userSpaceOnUse"
       gradientTransform="matrix(0.001384, 0, 0, 0.001858, -895.164215, -9.564374)"
       bx:pinned="true"><stop
         style="stop-color: rgb(239, 210, 65);"
         id="stop2-7" /></linearGradient><linearGradient
       id="linearGradient18609-8"
       gradientUnits="userSpaceOnUse"
       x1="8"
       y1="292"
       x2="120"
       y2="292"
       gradientTransform="matrix(1.131846, 0, 0, 0.93199, -8.195232, -157.178835)"
       xlink:href="#linearGradient3372" /><linearGradient
       inkscape:collect="always"
       xlink:href="#a"
       id="linearGradient21"
       x1="12"
       y1="64"
       x2="116"
       y2="64"
       gradientUnits="userSpaceOnUse" /></defs><sodipodi:namedview
     id="namedview31"
     pagecolor="#ffffff"
     bordercolor="#000000"
     borderopacity="0.25"
     inkscape:showpageshadow="2"
     inkscape:pageopacity="0.0"
     inkscape:pagecheckerboard="0"
     inkscape:deskcolor="#d1d1d1"
     inkscape:zoom="3.103817"
     inkscape:cx="-8.2156905"
     inkscape:cy="70.397191"
     inkscape:window-width="1536"
     inkscape:window-height="795"
     inkscape:window-x="0"
     inkscape:window-y="0"
     inkscape:window-maximized="1"
     inkscape:current-layer="g32" /><linearGradient
     id="a"
     gradientUnits="userSpaceOnUse"
     x1="12"
     x2="116.000001"
     y1="124"
     y2="124"><stop
       offset="0"
       stop-color="#ce9508"
       id="stop1"
       style="stop-color:#f6d32d;stop-opacity:1;" /><stop
       offset="0.0384615"
       stop-color="#f5c211"
       id="stop2"
       style="stop-color:#f5c51c;stop-opacity:1;" /><stop
       offset="0.0769231"
       stop-color="#e5a50a"
       id="stop3"
       style="stop-color:#f6d32d;stop-opacity:1;" /><stop
       offset="0.92147797"
       stop-color="#e5a50a"
       id="stop4"
       style="stop-color:#f6d32d;stop-opacity:1;" /><stop
       offset="0.96153802"
       stop-color="#f5c211"
       id="stop5"
       style="stop-color:#f6cb2f;stop-opacity:1;" /><stop
       offset="1"
       stop-color="#ce9708"
       id="stop6"
       style="stop-color:#f6d32d;stop-opacity:1;" /></linearGradient><linearGradient
     id="b"
     gradientUnits="userSpaceOnUse"
     x1="18.000001"
     x2="110.000001"
     y1="24"
     y2="24"><stop
       offset="0"
       stop-color="#cc920a"
       id="stop7" /><stop
       offset="0.0434163"
       stop-color="#e5a50a"
       id="stop8" /><stop
       offset="0.955153"
       stop-color="#e5a50a"
       id="stop9" /><stop
       offset="1"
       stop-color="#cc920a"
       id="stop10" /></linearGradient><filter
     id="c"
     height="1"
     width="1"
     x="0"
     y="0"><feColorMatrix
       in="SourceGraphic"
       type="matrix"
       values="0 0 0 0 1 0 0 0 0 1 0 0 0 0 1 0 0 0 1 0"
       id="feColorMatrix10" /></filter><mask
     id="d"><g
       filter="url(#c)"
       id="g10"><rect
         fill-opacity="0.1"
         height="128"
         width="128"
         id="rect10" /></g></mask><clipPath
     id="e"><rect
       height="152"
       width="192"
       id="rect11" /></clipPath><mask
     id="f"><g
       filter="url(#c)"
       id="g12"><rect
         fill-opacity="0.14"
         height="128"
         width="128"
         id="rect12" /></g></mask><clipPath
     id="g"><rect
       height="152"
       width="192"
       id="rect13" /></clipPath><mask
     id="h"><g
       filter="url(#c)"
       id="g14"><rect
         fill-opacity="0.3"
         height="128"
         width="128"
         id="rect14" /></g></mask><linearGradient
     id="i"
     gradientUnits="userSpaceOnUse"
     x1="28.53382"
     x2="115.42492"
     y1="64.799103"
     y2="64.799103"><stop
       offset="0"
       stop-opacity="0.35"
       id="stop14" /><stop
       offset="0.5"
       id="stop15" /><stop
       offset="1"
       stop-opacity="0.35"
       id="stop16" /></linearGradient><clipPath
     id="j"><rect
       height="152"
       width="192"
       id="rect16" /></clipPath><mask
     id="k"><g
       filter="url(#c)"
       id="g17"><rect
         fill-opacity="0.3"
         height="128"
         width="128"
         id="rect17" /></g></mask><clipPath
     id="l"><rect
       height="152"
       width="192"
       id="rect18" /></clipPath><g
     id="g32"
     transform="matrix(1.1490672,0,0,1.1490672,-9.2552395,-9.7358759)"><path
       d="m 20,12 h 88 c 4.41797,0 8,3.582031 8,8 v 88 c 0,4.41797 -3.58203,8 -8,8 H 20 c -4.417969,0 -8,-3.58203 -8,-8 V 20 c 0,-4.417969 3.582031,-8 8,-8 z m 0,0"
       fill="url(#a)"
       id="path18"
       style="fill:url(#linearGradient21);fill-opacity:1" /><path
       d="m 20,12 h 88 c 4.41797,0 8,3.582031 8,8 v 60 c 0,4.417969 -3.58203,8 -8,8 H 20 c -4.417969,0 -8,-3.582031 -8,-8 V 20 c 0,-4.417969 3.582031,-8 8,-8 z m 0,0"
       fill="#f6d32d"
       id="path19"
       style="fill:#f8e45c;fill-opacity:1" /><path
       d="m 21.168348,19.308835 h 85.629842 c 1.0757,0 1.94613,0.870438 1.94613,1.946133 v 58.38398 c 0,1.075694 -0.87043,1.946132 -1.94613,1.946132 H 21.168348 c -1.075695,0 -1.946133,-0.870438 -1.946133,-1.946132 v -58.38398 c 0,-1.075695 0.870438,-1.946133 1.946133,-1.946133 z m 0,0"
       fill="url(#b)"
       id="path20"
       style="fill:#f5c211;stroke-width:0.973066;fill-opacity:1" /><path
       d="m 21.168348,42.662427 h 85.629842 c 1.0757,0 1.94613,0.870438 1.94613,1.946133 v 35.030388 c 0,1.075694 -0.87043,1.946132 -1.94613,1.946132 H 21.168348 c -1.075695,0 -1.946133,-0.870438 -1.946133,-1.946132 V 44.60856 c 0,-1.075695 0.870438,-1.946133 1.946133,-1.946133 z m 0,0"
       fill="#c18b08"
       id="path21"
       style="fill:#e5a50a;stroke-width:0.973066;fill-opacity:1" /><path
       d="m 26.793218,27.355972 c -1.17072,0 -2.12098,0.95026 -2.12098,2.12098 l -0.02281,52.108128 h 13.356909 v 11.171857 l 51.988828,0.01528 V 81.600364 l 13.321945,-0.01528 -0.0532,-52.108128 c 0,-1.17072 -0.95025,-2.120979 -2.12097,-2.12098 z"
       fill="#f6f5f4"
       id="path22"
       sodipodi:nodetypes="sccccccccss"
       style="stroke-width:0.973066" /><path
       d="m 38,95 v 7 c 0,2.21484 1.785156,4 4,4 h 44 c 2.214844,0 4,-1.78516 4,-4 v -7 c 0,2.214844 -1.785156,4 -4,4 H 42 c -2.214844,0 -4,-1.785156 -4,-4 z m 0,0"
       fill="#f6d32d"
       id="path29"
       style="fill:#f5c211;fill-opacity:1" /><path
       d="m 90,92 v 4 c 0,2.214844 -1.785156,4 -4,4 H 42 c -2.214844,0 -4,-1.785156 -4,-4 v -4 z m 0,0"
       fill="#c0bfbc"
       id="path30"
       style="fill:#dfdedd;fill-opacity:1" /><g
       id="g24"
       transform="translate(-116.6163)"
       style="fill:#deddda"><path
         d="m 172.97847,56.821816 -3.02008,-3.126974 -28.69115,25.084698 -0.002,2.806284 h 3.4046 z"
         style="stroke-width:0.973066;fill:#deddda"
         id="path13"
         sodipodi:nodetypes="cccccc" /><path
         d="m 190.88981,53.716937 -3.08616,3.10885 28.3664,24.765137 3.76324,-0.0051 -0.003,-2.488431 z"
         style="stroke-width:0.973066;fill:#deddda"
         id="path23"
         sodipodi:nodetypes="cccccc" /><path
         id="path1"
         style="stroke-width:0.973066;fill:#deddda"
         d="m 143.40892,27.355355 c -1.17072,0 -2.11958,0.950567 -2.11958,2.121286 v 1.030048 l 30.41019,31.169984 c 2.37443,2.433651 5.53596,3.652658 8.69762,3.654458 3.16166,0.0018 6.32385,-1.213276 8.70101,-3.64426 L 219.8806,30.207533 v -0.730892 c 0,-0.495912 -0.17849,-0.94578 -0.46403,-1.307106 l -0.39944,-0.389243 c -0.35301,-0.262398 -0.78452,-0.424936 -1.25782,-0.424937 h -1.17792 l -30.59547,31.288967 c -3.08489,3.154701 -8.0894,3.151404 -11.17075,-0.0068 L 144.29109,27.355355 Z" /></g></g><g
     clip-path="url(#l)"
     mask="url(#k)"
     transform="matrix(1 0 0 1 -8 -16)"
     id="g31"><path
       d="m 172.492188 27 h 7 c 0.832031 0 1.5 0.445312 1.5 1 s -0.667969 1 -1.5 1 h -7 c -0.832032 0 -1.5 -0.445312 -1.5 -1 s 0.667968 -1 1.5 -1 z m 0 0"
       fill="#241f31"
       id="path31" /></g></svg>
