<?xml version="1.0" encoding="UTF-8" standalone="no"?>
<svg
   height="128px"
   viewBox="0 0 128 128"
   width="128px"
   version="1.1"
   id="svg7"
   sodipodi:docname="model.svg"
   inkscape:version="1.3.2 (091e20ef0f, 2023-11-25)"
   xmlns:inkscape="http://www.inkscape.org/namespaces/inkscape"
   xmlns:sodipodi="http://sodipodi.sourceforge.net/DTD/sodipodi-0.dtd"
   xmlns="http://www.w3.org/2000/svg"
   xmlns:svg="http://www.w3.org/2000/svg">
  <defs
     id="defs7" />
  <sodipodi:namedview
     id="namedview7"
     pagecolor="#ffffff"
     bordercolor="#000000"
     borderopacity="0.25"
     inkscape:showpageshadow="2"
     inkscape:pageopacity="0.0"
     inkscape:pagecheckerboard="0"
     inkscape:deskcolor="#d1d1d1"
     inkscape:zoom="2.5067359"
     inkscape:cx="4.5876393"
     inkscape:cy="36.102726"
     inkscape:window-width="1536"
     inkscape:window-height="795"
     inkscape:window-x="0"
     inkscape:window-y="0"
     inkscape:window-maximized="1"
     inkscape:current-layer="svg7" />
  <path
     d="m 16,19.929688 h 96 c 4.43359,0 8,3.570312 8,8 V 78 L 90,108 H 16 c -4.433594,0 -8,-3.56641 -8,-8 V 27.929688 c 0,-4.429688 3.566406,-8 8,-8 z m 0,0"
     fill="#f6f5f4"
     id="path1" />
  <path
     d="M 48.710938,89.964844 H 83.289063 C 89.203125,89.964844 94,85.171875 94,79.253906 V 44.675781 C 94,38.761719 89.203125,33.964844 83.289063,33.964844 H 48.710938 C 42.796875,33.964844 38,38.761719 38,44.675781 v 34.578125 c 0,5.917969 4.796875,10.710938 10.710938,10.710938 z m 0,0"
     fill="none"
     stroke="#3584e4"
     stroke-linecap="round"
     stroke-width="4"
     id="path2" />
  <path
     d="M 120,78.125 H 98 c -4.433594,0 -8,3.570312 -8,8 V 108 Z m 0,0"
     fill="#deddda"
     id="path3" />
</svg>
