<?xml version="1.0" encoding="UTF-8" standalone="no"?>
<svg
   height="128px"
   viewBox="0 0 128 128"
   width="128px"
   version="1.1"
   id="svg23"
   sodipodi:docname="music.svg"
   inkscape:version="1.3.2 (091e20ef0f, 2023-11-25)"
   xmlns:inkscape="http://www.inkscape.org/namespaces/inkscape"
   xmlns:sodipodi="http://sodipodi.sourceforge.net/DTD/sodipodi-0.dtd"
   xmlns:xlink="http://www.w3.org/1999/xlink"
   xmlns="http://www.w3.org/2000/svg"
   xmlns:svg="http://www.w3.org/2000/svg">
  <defs
     id="defs23">
    <linearGradient
       id="linearGradient28"
       gradientUnits="userSpaceOnUse">
      <stop
         offset="0"
         stop-color="#1a6842"
         id="stop23"
         style="stop-color:#000000;stop-opacity:0;" />
      <stop
         offset="0.123537"
         stop-color="#2dbd7d"
         id="stop24" />
      <stop
         offset="0.267634"
         stop-color="#26a269"
         id="stop25" />
      <stop
         offset="0.614059"
         stop-color="#26a269"
         id="stop26" />
      <stop
         offset="0.864285"
         stop-color="#38f39d"
         id="stop27" />
      <stop
         offset="1"
         stop-color="#2dc47e"
         id="stop28" />
    </linearGradient>
  </defs>
  <sodipodi:namedview
     id="namedview23"
     pagecolor="#ffffff"
     bordercolor="#000000"
     borderopacity="0.25"
     inkscape:showpageshadow="2"
     inkscape:pageopacity="0.0"
     inkscape:pagecheckerboard="0"
     inkscape:deskcolor="#d1d1d1"
     inkscape:zoom="3.228363"
     inkscape:cx="99.895828"
     inkscape:cy="63.344797"
     inkscape:window-width="1536"
     inkscape:window-height="795"
     inkscape:window-x="0"
     inkscape:window-y="0"
     inkscape:window-maximized="1"
     inkscape:current-layer="svg23" />
  <linearGradient
     id="a"
     gradientUnits="userSpaceOnUse"
     x1="50"
     x2="106"
     y1="30"
     y2="30"
     gradientTransform="matrix(1.0358848,0,0,1.0358848,0,-4.3061792)">
    <stop
       offset="0"
       stop-color="#1a6842"
       id="stop1"
       style="stop-color:#26a269;stop-opacity:1;" />
    <stop
       offset="0.123537"
       stop-color="#2dbd7d"
       id="stop2" />
    <stop
       offset="0.267634"
       stop-color="#26a269"
       id="stop3" />
    <stop
       offset="0.789903"
       stop-color="#26a269"
       id="stop4" />
    <stop
       offset="0.864285"
       stop-color="#26a269"
       id="stop5" />
    <stop
       offset="1"
       stop-color="#2dc47e"
       id="stop6" />
  </linearGradient>
  <linearGradient
     id="b"
     gradientUnits="userSpaceOnUse">
    <stop
       offset="0"
       stop-color="#1a6842"
       id="stop7" />
    <stop
       offset="0.123537"
       stop-color="#2dbd7d"
       id="stop8" />
    <stop
       offset="0.267634"
       stop-color="#26a269"
       id="stop9" />
    <stop
       offset="0.614059"
       stop-color="#26a269"
       id="stop10" />
    <stop
       offset="0.864285"
       stop-color="#38f39d"
       id="stop11" />
    <stop
       offset="1"
       stop-color="#2dc47e"
       id="stop12" />
  </linearGradient>
  <linearGradient
     id="c"
     x1="115.819336"
     x2="66"
     xlink:href="#b"
     y1="92"
     y2="92" />
  <linearGradient
     id="d"
     gradientUnits="userSpaceOnUse">
    <stop
       offset="0"
       stop-color="#38ec8b"
       id="stop13" />
    <stop
       offset="1"
       stop-color="#33d17a"
       id="stop14" />
  </linearGradient>
  <radialGradient
     id="e"
     cx="356.208099"
     cy="2453.477783"
     gradientTransform="matrix(0.732441,0.48694,-0.553636,0.832759,1185.4316,-2128.6076)"
     r="25.000025"
     xlink:href="#d" />
  <linearGradient
     id="f"
     x1="49.819336"
     x2="0"
     xlink:href="#linearGradient28"
     y1="92"
     y2="92" />
  <radialGradient
     id="g"
     cx="290.12616"
     cy="2488.878906"
     gradientTransform="matrix(0.732441,0.48694,-0.553636,0.832759,1185.4316,-2128.6076)"
     r="25.000025"
     xlink:href="#d" />
  <linearGradient
     id="h"
     gradientUnits="userSpaceOnUse">
    <stop
       offset="0"
       stop-color="#8ff0a4"
       id="stop15" />
    <stop
       offset="1"
       stop-color="#8ff0a4"
       stop-opacity="0"
       id="stop16" />
  </linearGradient>
  <radialGradient
     id="i"
     cx="312.657257"
     cy="2706.578613"
     gradientTransform="matrix(1.0926378,0.01749164,-0.01496978,0.93510771,-283.88259,-2454.6589)"
     r="14.806045"
     xlink:href="#h" />
  <radialGradient
     id="j"
     cx="312.657257"
     cy="2706.578613"
     gradientTransform="matrix(1.0926378,0.01749164,-0.01496978,0.93510771,-211.85473,-2454.6589)"
     r="14.806045"
     xlink:href="#h" />
  <path
     d="m 41.314,32.993767 v 10.350756 h 10.480241 v -4.143539 c 0,-5.721646 4.637203,-10.358849 10.358849,-10.358849 h 31.076544 c 5.721646,0 10.358846,4.637203 10.358846,10.358849 v 4.143539 h 16.69555 V 32.997814 c 0,-5.786388 -4.69385,-10.480241 -10.48024,-10.480241 h -6.21531 v 0.109253 H 51.794241 v -0.109253 c -5.786388,0 -10.476194,4.689807 -10.480241,10.476194 z m 0,0"
     fill="url(#a)"
     fill-rule="evenodd"
     id="path16"
     style="fill:#26a269;stroke-width:1.03588;fill-opacity:1" />
  <path
     d="m 35.098691,33.070649 v 42.531975 l 14.425506,13.28846 c 0.400595,0.364178 0.975188,0.461292 1.472899,0.242785 0.493663,-0.21446 0.813331,-0.704077 0.813331,-1.246299 V 35.069584 c 0,-5.725692 4.645296,-10.370988 10.375034,-10.370988 H 93.35912 c 5.632624,0 10.20104,4.568414 10.20104,10.201037 V 75.60667 l 16.51751,15.388555 h 0.085 V 32.896653 c 0,-13.680963 -11.09125,-24.7722143 -24.772214,-24.7722143 H 60.048949 c -13.778078,0 -24.950258,11.1681333 -24.950258,24.9462103 z m 0,0"
     fill="#33d17a"
     id="path17"
     style="stroke-width:1.03588" />
  <g
     fill-rule="evenodd"
     id="g21"
     transform="matrix(1.0358848,0,0,1.0358848,0,-4.3061792)">
    <path
       d="m 116,95 c 0,13.80859 -11.19141,25 -25,25 -13.808594,0 -25,-11.19141 -25,-25 0,-13.808594 11.191406,-25 25,-25 13.80859,0 25,11.191406 25,25 z m 0,0"
       fill="url(#c)"
       id="path18"
       style="fill:#26a269;fill-opacity:1" />
    <path
       d="m 116,91 c 0,13.80859 -11.19141,25 -25,25 -13.808594,0 -25,-11.19141 -25,-25 0,-13.808594 11.191406,-25 25,-25 13.80859,0 25,11.191406 25,25 z m 0,0"
       fill="url(#e)"
       id="path19"
       style="fill:url(#e)" />
    <path
       d="M 50,95 C 50,108.80859 38.808594,120 25,120 11.191406,120 0,108.80859 0,95 0,81.191406 11.191406,70 25,70 38.808594,70 50,81.191406 50,95 Z m 0,0"
       fill="url(#f)"
       id="path20"
       style="fill:#26a269;fill-opacity:1" />
    <path
       d="M 50,91 C 50,104.80859 38.808594,116 25,116 11.191406,116 0,104.80859 0,91 0,77.191406 11.191406,66 25,66 38.808594,66 50,77.191406 50,91 Z m 0,0"
       fill="url(#g)"
       id="path21"
       style="fill:url(#g)" />
  </g>
  <path
     d="m 33.981879,83.177532 c 0,8.469167 -6.866785,15.33595 -15.335952,15.33595 -8.469168,0 -15.3359518,-6.866783 -15.3359518,-15.33595 0,-8.469168 6.8667838,-15.335951 15.3359518,-15.335951 8.469167,0 15.335952,6.866783 15.335952,15.335951 z m 0,0"
     fill="url(#i)"
     id="path22"
     style="fill:url(#i);stroke-width:1.03588" />
  <path
     d="m 106.01229,83.177532 c 0,8.469167 -6.866782,15.33595 -15.339996,15.33595 -8.469168,0 -15.335952,-6.866783 -15.335952,-15.33595 0,-8.469168 6.866784,-15.335951 15.335952,-15.335951 8.473214,0 15.339996,6.866783 15.339996,15.335951 z m 0,0"
     fill="url(#j)"
     id="path23"
     style="fill:url(#j);stroke-width:1.03588" />
</svg>
