<?xml version="1.0" encoding="UTF-8" standalone="no"?>
<svg
   height="128px"
   viewBox="0 0 128 128"
   width="128px"
   version="1.1"
   id="svg27"
   sodipodi:docname="notes.svg"
   inkscape:version="1.3.2 (091e20ef0f, 2023-11-25)"
   xml:space="preserve"
   xmlns:inkscape="http://www.inkscape.org/namespaces/inkscape"
   xmlns:sodipodi="http://sodipodi.sourceforge.net/DTD/sodipodi-0.dtd"
   xmlns:xlink="http://www.w3.org/1999/xlink"
   xmlns="http://www.w3.org/2000/svg"
   xmlns:svg="http://www.w3.org/2000/svg"><defs
     id="defs27"><clipPath
       id="f"><path
         d="m 88,88 h 28 v 28 H 88 Z m 0,0"
         id="path1" /></clipPath><clipPath
       id="g"><path
         d="M 116,88 88,116 H 80 V 80 h 36 z m 0,0"
         id="path2" /></clipPath><linearGradient
       id="h"
       gradientTransform="matrix(0,0.25,0.25,0,83,16)"
       gradientUnits="userSpaceOnUse"
       x1="344"
       x2="336"
       y1="76"
       y2="68"><stop
         offset="0"
         style="stop-color:#cfc85e;stop-opacity:1;"
         id="stop2-3" /><stop
         offset="1"
         style="stop-color:#ebe37e;stop-opacity:1;"
         id="stop3-5" /></linearGradient><clipPath
       id="f-6"><path
         d="m 88,88 h 28 v 28 H 88 Z m 0,0"
         id="path1-2" /></clipPath><clipPath
       id="g-9"><path
         d="M 116,88 88,116 H 80 V 80 h 36 z m 0,0"
         id="path2-1" /></clipPath></defs><sodipodi:namedview
     id="namedview27"
     pagecolor="#ffffff"
     bordercolor="#000000"
     borderopacity="0.25"
     inkscape:showpageshadow="2"
     inkscape:pageopacity="0.0"
     inkscape:pagecheckerboard="0"
     inkscape:deskcolor="#d1d1d1"
     inkscape:zoom="3.1938682"
     inkscape:cx="53.070444"
     inkscape:cy="37.102345"
     inkscape:window-width="1536"
     inkscape:window-height="795"
     inkscape:window-x="0"
     inkscape:window-y="0"
     inkscape:window-maximized="1"
     inkscape:current-layer="svg27" /><linearGradient
     id="a"
     gradientUnits="userSpaceOnUse"><stop
       offset="0"
       stop-opacity="0.152941"
       id="stop1" /><stop
       offset="1"
       stop-opacity="0"
       id="stop2" /></linearGradient><linearGradient
     id="b"
     x1="116"
     x2="122"
     xlink:href="#a"
     y1="88"
     y2="88"
     gradientTransform="matrix(1.0281722,0,0,1.0281722,-1.9187313,-1.8106838)" /><linearGradient
     id="c"
     gradientUnits="userSpaceOnUse"
     x1="40"
     x2="40"
     y1="116"
     y2="122"
     gradientTransform="matrix(1.0281722,0,0,1.0281722,-1.9187313,-1.8106838)"><stop
       offset="0"
       stop-opacity="0.14902"
       id="stop3" /><stop
       offset="1"
       stop-opacity="0"
       id="stop4" /></linearGradient><linearGradient
     id="d"
     gradientUnits="userSpaceOnUse"
     x1="6"
     x2="12"
     y1="40"
     y2="40"
     gradientTransform="matrix(1.0281722,0,0,1.0281722,-1.9187313,-1.8106838)"><stop
       offset="0"
       stop-opacity="0"
       id="stop5" /><stop
       offset="1"
       stop-opacity="0.152941"
       id="stop6" /></linearGradient><linearGradient
     id="e"
     x1="88"
     x2="88"
     xlink:href="#a"
     y1="12"
     y2="6"
     gradientTransform="matrix(1.0281722,0,0,1.0281722,-1.9187313,-1.8106838)" /><path
     d="m 34.023117,127.34542 87.398653,-23.41903 c 4.38579,-1.17677 6.99237,-5.687079 5.8156,-10.072877 L 103.81834,6.4548565 C 102.64155,2.0690603 98.131262,-0.53350059 93.745465,0.63925729 L 6.346809,24.058291 C 1.9610129,25.235067 -0.64556514,29.745368 0.53120984,34.131165 L 23.950241,121.52982 c 1.176776,4.3858 5.687078,6.99237 10.072876,5.8156 z m 0,0"
     fill="#e6d982"
     id="path6"
     style="stroke-width:1.02818" /><path
     d="m 117.34924,56.951769 -24.117622,54.558341 28.044742,-7.67052 c 4.40187,-1.18079 7.1418,-5.584214 5.96101,-9.986077 z"
     fill="url(#b)"
     id="path7"
     style="fill:url(#b);stroke-width:1.02818"
     sodipodi:nodetypes="ccccc" /><path
     d="M 70.92486,117.4573 H 22.857808 l 1.092433,4.06851 c 1.180793,4.40186 5.671013,7.0004 10.072876,5.81961 z m 0,0"
     fill="url(#c)"
     id="path8"
     style="fill:url(#c);stroke-width:1.02818" /><path
     d="M 10.419334,71.032909 V 22.969873 l -4.072525,1.088418 c -4.3978452,1.180791 -6.99639019,5.671011 -5.81559916,10.072874 z m 0,0"
     fill="url(#d)"
     id="path9"
     style="fill:url(#d);stroke-width:1.02818" /><path
     d="M 95.392147,0.37016611 C 94.84593,0.40229651 94.295697,0.4946716 93.745465,0.64327436 L 56.847737,10.527383 H 104.90675 L 103.81834,6.4588735 C 102.78615,2.6072437 99.215666,0.13722036 95.392147,0.37016611 Z m 0,0"
     fill="url(#e)"
     id="path10"
     style="fill:url(#e);stroke-width:1.02818" /><path
     id="path3"
     style="fill:#fbf598;fill-opacity:1;stroke-width:1.06037"
     d="m 16.84766,9.03125 c -2.93829,0 -5.51795,1.476732 -7.03907,3.732422 -0.64376,0.954652 -1.44336,2.577603 -1.44336,4.75 v 93.314448 c 0,4.70125 3.78117,8.48243 8.48243,8.48243 h 93.3125 c 4.70125,0 8.48242,-3.78118 8.48242,-8.48243 V 17.513672 c 0,-4.701252 -3.78118,-8.482422 -8.48242,-8.482422 z"
     sodipodi:nodetypes="ssssssssss" /><path
     id="path5"
     style="color:#000000;fill:#2d4458;stroke-width:1.12185;stroke-linecap:round;stroke-linejoin:bevel;-inkscape-stroke:none;fill-opacity:1"
     d="m 35.010795,34.358305 c -0.323146,-0.0067 -0.650848,3.14e-4 -0.983807,0.02412 -7.16148,0.511753 -11.588081,6.329797 -14.474456,11.181224 a 2.6520463,2.6520463 0 0 0 0.922457,3.635043 2.6520463,2.6520463 0 0 0 3.635047,-0.92245 c 2.602583,-4.374429 5.929552,-8.292457 10.296013,-8.604488 1.476232,-0.105454 2.404045,0.239346 3.431274,0.950945 1.027229,0.711599 2.071438,1.877994 3.170533,3.264754 2.198188,2.773509 4.662968,6.699984 9.434908,7.686402 2.920926,0.603789 5.343827,-0.599964 7.441001,-1.557875 2.097172,-0.957923 3.990782,-1.780843 5.100898,-1.838337 2.764227,-0.143171 5.651876,1.872934 10.09443,2.613982 3.41473,0.569606 6.322273,-0.691428 8.746902,-1.752886 2.424629,-1.061447 4.460721,-1.93301 6.157012,-1.901879 3.43137,0.06294 5.890966,0.681578 8.643918,1.428605 2.752946,0.747016 5.793545,1.63314 9.859985,1.961045 a 2.6520463,2.6520463 0 0 0 2.8572,-2.429943 2.6520463,2.6520463 0 0 0 -2.42993,-2.857199 c -3.52264,-0.284051 -6.08188,-1.028139 -8.898089,-1.79233 -2.816218,-0.764191 -5.894834,-1.538489 -9.936676,-1.612655 -3.344159,-0.06136 -6.059171,1.328996 -8.378795,2.344481 -2.319623,1.015485 -4.14892,1.647387 -5.749466,1.380399 -2.850108,-0.475416 -6.284676,-2.93639 -11.24038,-2.679722 -2.800611,0.145043 -5.059371,1.414122 -7.029072,2.313809 -1.969702,0.899688 -3.524762,1.3178 -4.165296,1.185389 -2.204097,-0.455616 -3.983191,-2.797898 -6.35202,-5.786711 -1.184414,-1.494413 -2.50366,-3.081422 -4.305526,-4.329634 -1.57663,-1.092186 -3.586047,-1.857162 -5.848065,-1.904066 z m 51.532654,23.845822 c -0.320011,-0.0022 -0.644228,0.0045 -0.972852,0.0175 -2.628994,0.107024 -5.537841,0.732219 -8.799487,2.219597 -4.801947,2.189778 -7.361845,3.838803 -12.121206,3.383064 -1.484069,-0.142104 -3.19176,-0.9184 -5.206071,-1.847099 -2.014313,-0.928698 -4.371576,-2.015824 -7.237227,-2.015824 -3.174244,0 -5.668312,1.408142 -7.798152,2.458427 -2.129841,1.050273 -3.842162,1.763981 -5.475578,1.641138 -2.48991,-0.187258 -4.596967,-1.079609 -7.300769,-2.024586 -2.703801,-0.944976 -5.995445,-1.8589 -10.22809,-1.533777 a 2.6520463,2.6520463 0 0 0 -2.440893,2.848447 2.6520463,2.6520463 0 0 0 2.84844,2.440893 c 3.31206,-0.254424 5.592221,0.385186 8.069848,1.251117 2.477627,0.865931 5.161509,2.042491 8.652684,2.305048 3.316892,0.249443 6.014852,-1.083469 8.221034,-2.171391 2.206182,-1.087922 3.972988,-1.91064 5.451476,-1.91064 1.457494,0 3.075454,0.634954 5.015444,1.529391 1.93999,0.894427 4.166772,2.04322 6.923899,2.307236 6.235984,0.597125 10.307533,-1.774369 14.825033,-3.834439 5.499794,-2.508024 8.552218,-2.075608 12.309641,-1.036396 3.757423,1.039211 8.179358,2.994445 14.529227,2.898841 a 2.6520463,2.6520463 0 0 0 2.61181,-2.690683 2.6520463,2.6520463 0 0 0 -2.69069,-2.611805 c -5.2286,0.07875 -8.745569,-1.521281 -13.037082,-2.708206 -1.877538,-0.519281 -3.91036,-0.900608 -6.150439,-0.915887 z M 37.269827,76.228181 c -0.419603,0.02019 -0.849597,0.06193 -1.290563,0.127083 -3.527728,0.521142 -7.833661,2.237714 -14.091011,5.677151 a 2.6520463,2.6520463 0 0 0 -1.04735,3.602183 2.6520463,2.6520463 0 0 0 3.602181,1.045158 c 5.991293,-3.293204 9.89658,-4.719992 12.311832,-5.076795 2.415252,-0.356804 3.232908,0.04813 4.436992,0.93341 2.40817,1.770555 5.804891,6.972829 14.892957,7.881413 4.113069,0.411213 7.474961,-1.456932 10.326689,-3.096029 2.85173,-1.639108 5.319207,-3.068756 7.550556,-3.238458 5.503075,-0.418539 9.500212,0.220679 14.12607,0.690194 4.625856,0.469527 9.819281,0.722503 17.00081,-0.641988 a 2.6520463,2.6520463 0 0 0 2.11004,-3.100415 2.6520463,2.6520463 0 0 0 -3.10043,-2.110037 c -6.620039,1.257804 -11.038344,1.026658 -15.475791,0.576259 -4.437445,-0.450399 -8.956213,-1.167865 -15.063862,-0.703342 -3.963896,0.301474 -7.057266,2.358022 -9.789869,3.928652 -2.7326,1.570631 -4.978893,2.636655 -7.156156,2.418983 -7.395118,-0.739342 -8.340633,-3.982321 -12.278965,-6.877887 -1.723021,-1.266812 -4.126907,-2.176944 -7.06413,-2.035535 z" /></svg>
