<?xml version="1.0" encoding="UTF-8" standalone="no"?>
<svg
   height="128px"
   viewBox="0 0 128 128"
   width="128px"
   version="1.1"
   id="svg7"
   sodipodi:docname="paper.svg"
   xml:space="preserve"
   inkscape:version="1.3.2 (091e20ef0f, 2023-11-25)"
   xmlns:inkscape="http://www.inkscape.org/namespaces/inkscape"
   xmlns:sodipodi="http://sodipodi.sourceforge.net/DTD/sodipodi-0.dtd"
   xmlns:xlink="http://www.w3.org/1999/xlink"
   xmlns="http://www.w3.org/2000/svg"
   xmlns:svg="http://www.w3.org/2000/svg"
   xmlns:rdf="http://www.w3.org/1999/02/22-rdf-syntax-ns#"
   xmlns:cc="http://creativecommons.org/ns#"
   xmlns:dc="http://purl.org/dc/elements/1.1/"
   xmlns:bx="https://boxy-svg.com"><sodipodi:namedview
     id="namedview7"
     pagecolor="#ffffff"
     bordercolor="#000000"
     borderopacity="0.25"
     inkscape:showpageshadow="2"
     inkscape:pageopacity="0.0"
     inkscape:pagecheckerboard="0"
     inkscape:deskcolor="#d1d1d1"
     inkscape:zoom="3.3327909"
     inkscape:cx="58.509521"
     inkscape:cy="39.756469"
     inkscape:window-width="1536"
     inkscape:window-height="795"
     inkscape:window-x="0"
     inkscape:window-y="0"
     inkscape:window-maximized="1"
     inkscape:current-layer="g1" /><defs
     id="defs1"><linearGradient
       id="linearGradient81523"><stop
         style="stop-color:#c0bfbc;stop-opacity:1"
         offset="0"
         id="stop81519" /><stop
         style="stop-color:#f6f5f4;stop-opacity:1"
         offset="0.5"
         id="stop81728" /><stop
         style="stop-color:#c0bfbc;stop-opacity:1"
         offset="1"
         id="stop81521" /></linearGradient><linearGradient
       id="linearGradient37078"
       gradientUnits="userSpaceOnUse"
       gradientTransform="matrix(1.142119,0,0,1.142119,3.95171,-22.777196)"
       x1="116"
       y1="118"
       x2="124"
       y2="118"
       xlink:href="#linearGradient81523" /><linearGradient
       id="linearGradient71"
       gradientUnits="userSpaceOnUse"><stop
         offset="0"
         stop-color="#1c71d8"
         id="stop70"
         style="stop-color:#c0bfbc;stop-opacity:1;" /><stop
         offset="1"
         stop-color="#62a0ea"
         id="stop71"
         style="stop-color:#d1d1d1;stop-opacity:1;" /></linearGradient><linearGradient
       id="b"
       gradientTransform="matrix(0.62435953,0,0,0.65722014,189.96969,-40.570436)"
       x1="-287.97202"
       x2="-287.97202"
       xlink:href="#linearGradient71"
       y1="114.64002"
       y2="92.859024" /></defs><title
     id="title4162">Adwaita Icon Template</title><g
     style="display:inline;fill:#000000;enable-background:new"
     transform="matrix(7.991171, 0, 0, 8.003646, 32.606857, -5479.619141)"
     id="g12027" /><g
     id="g883"
     style="fill: none; fill-opacity: 0.25098; stroke: rgb(165, 121, 179); stroke-opacity: 1; display: inline;"
     transform="matrix(1, 0, 0, 1, 176.397751, -609.541687)" /><g
     id="g29"
     transform="translate(0.81194184)" /><g
     id="g900"
     style="fill: none; fill-opacity: 0.25098; stroke: rgb(165, 121, 179); stroke-opacity: 1; display: inline;"
     transform="matrix(1, 0, 0, 1, 176.397751, -609.541687)" /><g
     transform="matrix(-1, 0, 0, 1, 120.397751, 300.458313)"
     style="display:inline;enable-background:new"
     id="g36832" /><title
     id="bx-title-1">Adwaita Icon Template</title><g
     id="g1"
     transform="translate(-26)"><path
       style="display:inline;fill:#f6f5f4;fill-opacity:1;stroke:none;stroke-width:10;stroke-linejoin:round;stroke-dashoffset:26.4"
       id="rect36910"
       d="m 38.385942,4.585 h 99.206998 a 8,8 0 0 1 8,8 V 114.27 a 7,7 0 0 1 -7,7 H 35.385942 V 7.585 a 3,3 0 0 1 3,-3 z"
       bx:shape="rect 8.574 4.585 110.207 116.685 3 8 7 0 1@ade44015" /><path
       id="path36936"
       style="display:inline;fill:#ebebeb;fill-opacity:1;stroke:none;stroke-width:10;stroke-linejoin:round;stroke-dashoffset:26.4"
       d="m 129.12794,18.413 v 2.806 H 35.540942 v -2.806 z m 0,16.187 v 2.805 H 35.540942 V 34.6 Z m 0,16.185 V 53.59 H 35.540942 v -2.805 z m 0,16.185 v 2.808 H 35.540942 V 66.97 Z m 0,16.187 v 2.807 H 35.540942 v -2.807 z m 0,16.187 v 2.805 H 35.540942 v -2.805 z" /><path
       id="path36916"
       style="display:inline;fill:url(#linearGradient37078);fill-opacity:1;stroke:none;stroke-width:10;stroke-linejoin:round;stroke-dashoffset:26.4"
       d="m 145.57494,114.276 c 0,5.047 -4.09,9.138 -9.137,9.138 H 35.329942 v -9.143 H 136.43794 v 0.005 c 5.062,0 9.137,-4.074 9.137,-9.135 z" /><rect
       style="display:inline;fill:#cc407a;fill-opacity:1;stroke-width:3;stroke-linecap:round;stroke-linejoin:round;stroke-dashoffset:26.4"
       id="rect36944"
       width="5.0760002"
       height="9.1429996"
       x="-132.34494"
       y="-123.415"
       transform="scale(-1)" /><rect
       style="display:inline;fill:#eb4e8f;fill-opacity:1;stroke-width:3;stroke-linecap:round;stroke-linejoin:round;stroke-dashoffset:26.4"
       id="rect36942"
       width="5.0830002"
       height="109.557"
       x="-132.34695"
       y="4.7319999"
       transform="scale(-1,1)" /><path
       d="M 49.786683,84.186319 C 62.051125,72.333972 74.318846,60.48381 79.612669,52.863896 c 5.300381,-7.62975 3.632329,-11.016135 0.429583,-11.966028 -3.201654,-0.947707 -7.931443,0.543264 -11.57689,3.691357 -3.648726,3.146999 -6.213109,7.944559 -6.380352,13.875652 -0.168335,5.932186 2.060471,13.008834 4.719952,16.607278 2.661668,3.584235 5.766037,3.692451 10.706792,-0.106029 4.945128,-3.805037 11.735388,-11.521142 16.759216,-15.267153 5.02821,-3.750383 8.28124,-3.545975 7.04387,0.192384 -1.23738,3.729614 -6.96298,10.984436 -6.89521,14.590532 0.0634,3.599537 5.93766,3.545976 11.12764,0.921472 5.19326,-2.625596 9.7077,-7.818854 13.78274,-10.525339"
       fill="none"
       stroke-linecap="round"
       stroke-linejoin="round"
       style="stroke:#1b344d;stroke-width:5.46543px"
       id="path1" /><path
       style="fill:none;stroke-width:5px;stroke-linecap:round;stroke-linejoin:round"
       d="m 84.72137,84.002707 c 14.03298,-7.918096 28.18371,4.234084 42.69805,1.412782"
       id="path5" /><path
       d="m 97.87334,68.695966 c -0.34788,-0.657703 -0.44482,-1.481339 -0.26024,-2.140673 0.18341,-0.660125 0.70297,-1.320393 1.34127,-1.705256 7.9049,-4.121041 15.96712,-3.208622 23.19595,-1.484269 3.60962,0.861072 7.09031,1.845002 10.53253,2.437074 1.72013,0.296227 3.3157,0.486268 4.98973,0.529644 1.63344,0.04414 5.23545,-0.407456 5.35281,-0.422118 l 6e-4,-0.0022 c 0,0 9.8e-4,-1.91e-4 0.002,6e-4 0,0 0,0 0,0 9.8e-4,-1.91e-4 0.004,-7.63e-4 0.008,-0.0015 0.0131,-5.17e-4 0.0396,-5.7e-4 0.0396,-5.7e-4 l 0.0345,-5.98e-4 0.0229,0.0027 c 0.94679,0.122597 1.89507,0.766486 2.29045,1.637039 0.39556,0.871536 0.25567,2.007092 -0.2762,2.803204 -0.58305,0.75818 -1.57606,1.204862 -2.51483,1.160168 -0.48086,0.03133 -7.13943,0.491294 -10.90634,-0.15176 -3.7316,-0.644825 -7.3862,-1.67441 -10.88378,-2.509381 -6.9981,-1.669369 -13.03049,-2.872438 -19.13029,0.918101 -0.65751,0.348869 -1.48134,0.444826 -2.14067,0.260241 -0.66005,-0.183419 -1.31509,-0.691772 -1.69799,-1.330446 z m 1.95006,0.425733 c 0.49877,0.139393 0.95565,0.11578 1.42731,-0.172513 6.43216,-3.852088 12.78993,-2.688835 19.81037,-1.014639 3.5156,0.838598 7.1408,1.86371 10.82441,2.497489 3.65359,0.636557 10.70912,0.138142 10.70912,0.138142 l 0.0483,-0.0033 0.0323,0.0039 c 0.71311,0.104859 1.3145,-0.165866 1.70863,-0.769154 0.4459,-0.567509 0.48273,-1.211365 0.18504,-1.86762 -0.29636,-0.649384 -0.77811,-1.031481 -1.4662,-1.086194 -0.42586,0.05222 -3.8323,0.461723 -5.45458,0.422549 -1.71736,-0.04616 -3.38018,-0.241468 -5.12362,-0.542332 -3.491,-0.601946 -7.00127,-1.59133 -10.59189,-2.448966 -7.17672,-1.713089 -14.90923,-2.669223 -22.53949,1.402509 -0.49069,0.253281 -0.73571,0.627915 -0.8751,1.126676 -0.1386,0.497589 -0.11578,0.95565 0.17232,1.426325 0.25445,0.491478 0.63432,0.747703 1.13308,0.887096 z"
       style="fill:none"
       id="path7" /></g><metadata
     id="metadata7"><rdf:RDF><cc:Work
         rdf:about=""><dc:title>Adwaita Icon Template</dc:title></cc:Work></rdf:RDF></metadata></svg>
