<?xml version="1.0" encoding="utf-8"?>
<svg width="192px" height="192px" viewBox="0 0 192 192" xmlns="http://www.w3.org/2000/svg" xmlns:bx="https://boxy-svg.com">
  <defs>
    <linearGradient id="color-0" gradientUnits="userSpaceOnUse" bx:pinned="true">
      <stop style="stop-color: rgb(255, 207, 63)"/>
    </linearGradient>
    <linearGradient id="color-1" gradientUnits="userSpaceOnUse" gradientTransform="matrix(0.001384, 0, 0, 0.001858, -895.164215, -9.564374)" bx:pinned="true">
      <stop style="stop-color: rgb(239, 210, 65);"/>
    </linearGradient>
  </defs>
  <clipPath id="clip-6">
    <path d="m 20 10 h 8 v 25 h -8 z m 0 0"/>
  </clipPath>
  <clipPath id="clip-8">
    <path d="m 24 10 c -6.628906 0 -12 5.371094 -12 12 v 22 c 0 2.210938 1.789062 4 4 4 c 1.105469 0 2 0.894531 2 2 v 7 c 0 1.105469 -0.894531 2 -2 2 c -2.210938 0 -4 1.789062 -4 4 v 2 h 24 v -2 c 0 -2.210938 -1.789062 -4 -4 -4 c -1.105469 0 -2 -0.894531 -2 -2 v -7 c 0 -1.105469 0.894531 -2 2 -2 c 2.210938 0 4 -1.789062 4 -4 v -22 c 0 -6.628906 -5.371094 -12 -12 -12 z m 0 0"/>
  </clipPath>
  <clipPath id="clip-9">
    <path d="m 32 10 h 4 v 31 h -4 z m 0 0"/>
  </clipPath>
  <clipPath id="clip-10">
    <path d="m 24 10 c -6.628906 0 -12 5.371094 -12 12 v 22 c 0 2.210938 1.789062 4 4 4 c 1.105469 0 2 0.894531 2 2 v 7 c 0 1.105469 -0.894531 2 -2 2 c -2.210938 0 -4 1.789062 -4 4 v 2 h 24 v -2 c 0 -2.210938 -1.789062 -4 -4 -4 c -1.105469 0 -2 -0.894531 -2 -2 v -7 c 0 -1.105469 0.894531 -2 2 -2 c 2.210938 0 4 -1.789062 4 -4 v -22 c 0 -6.628906 -5.371094 -12 -12 -12 z m 0 0"/>
  </clipPath>
  <clipPath id="clip-11">
    <path d="m 12 10 h 4 v 31 h -4 z m 0 0"/>
  </clipPath>
  <clipPath id="clip-12">
    <path d="m 24 10 c -6.628906 0 -12 5.371094 -12 12 v 22 c 0 2.210938 1.789062 4 4 4 c 1.105469 0 2 0.894531 2 2 v 7 c 0 1.105469 -0.894531 2 -2 2 c -2.210938 0 -4 1.789062 -4 4 v 2 h 24 v -2 c 0 -2.210938 -1.789062 -4 -4 -4 c -1.105469 0 -2 -0.894531 -2 -2 v -7 c 0 -1.105469 0.894531 -2 2 -2 c 2.210938 0 4 -1.789062 4 -4 v -22 c 0 -6.628906 -5.371094 -12 -12 -12 z m 0 0"/>
  </clipPath>
  <g clip-path="url(#clip-6)" transform="matrix(4.90695, 0, 0, 4.90695, 1134.703003, 1213.505493)" style="">
    <g clip-path="url(#clip-8)"/>
  </g>
  <g clip-path="url(#clip-9)" transform="matrix(4.90695, 0, 0, 4.90695, 1134.703003, 1213.505493)" style="">
    <g clip-path="url(#clip-10)"/>
  </g>
  <g clip-path="url(#clip-11)" transform="matrix(4.90695, 0, 0, 4.90695, 1134.703003, 1213.505493)" style="">
    <g clip-path="url(#clip-12)"/>
  </g>
  <title id="title4162">Adwaita Icon Template</title>
  <g id="g12027" transform="matrix(7.991171, 0, 0, 8.003645, 812.759888, -4561.688477)" style="display:inline;fill:#000000;enable-background:new"/>
  <g transform="matrix(1, 0, 0, 1, 956.550781, 308.389343)" style="fill: none; fill-opacity: 0.25098; stroke: rgb(165, 121, 179); stroke-opacity: 1; display: inline;" id="g883"/>
  <g transform="matrix(1, 0, 0, 1, 956.550781, 308.389343)" style="fill: none; fill-opacity: 0.25098; stroke: rgb(165, 121, 179); stroke-opacity: 1; display: inline;" id="g900"/>
  <title id="bx-title-1">Adwaita Icon Template</title>
  <clipPath id="clip-1">
    <path d="m 20 10 h 8 v 25 h -8 z m 0 0"/>
  </clipPath>
  <clipPath id="clip-2">
    <path d="m 24 10 c -6.628906 0 -12 5.371094 -12 12 v 22 c 0 2.210938 1.789062 4 4 4 c 1.105469 0 2 0.894531 2 2 v 7 c 0 1.105469 -0.894531 2 -2 2 c -2.210938 0 -4 1.789062 -4 4 v 2 h 24 v -2 c 0 -2.210938 -1.789062 -4 -4 -4 c -1.105469 0 -2 -0.894531 -2 -2 v -7 c 0 -1.105469 0.894531 -2 2 -2 c 2.210938 0 4 -1.789062 4 -4 v -22 c 0 -6.628906 -5.371094 -12 -12 -12 z m 0 0"/>
  </clipPath>
  <clipPath id="clip-3">
    <path d="m 32 10 h 4 v 31 h -4 z m 0 0"/>
  </clipPath>
  <clipPath id="clip-4">
    <path d="m 24 10 c -6.628906 0 -12 5.371094 -12 12 v 22 c 0 2.210938 1.789062 4 4 4 c 1.105469 0 2 0.894531 2 2 v 7 c 0 1.105469 -0.894531 2 -2 2 c -2.210938 0 -4 1.789062 -4 4 v 2 h 24 v -2 c 0 -2.210938 -1.789062 -4 -4 -4 c -1.105469 0 -2 -0.894531 -2 -2 v -7 c 0 -1.105469 0.894531 -2 2 -2 c 2.210938 0 4 -1.789062 4 -4 v -22 c 0 -6.628906 -5.371094 -12 -12 -12 z m 0 0"/>
  </clipPath>
  <clipPath id="clip-5">
    <path d="m 12 10 h 4 v 31 h -4 z m 0 0"/>
  </clipPath>
  <clipPath id="clip-7">
    <path d="m 24 10 c -6.628906 0 -12 5.371094 -12 12 v 22 c 0 2.210938 1.789062 4 4 4 c 1.105469 0 2 0.894531 2 2 v 7 c 0 1.105469 -0.894531 2 -2 2 c -2.210938 0 -4 1.789062 -4 4 v 2 h 24 v -2 c 0 -2.210938 -1.789062 -4 -4 -4 c -1.105469 0 -2 -0.894531 -2 -2 v -7 c 0 -1.105469 0.894531 -2 2 -2 c 2.210938 0 4 -1.789062 4 -4 v -22 c 0 -6.628906 -5.371094 -12 -12 -12 z m 0 0"/>
  </clipPath>
  <g clip-path="url(#clip-1)" transform="matrix(4.906949, 0, 0, 4.90695, 1332.953979, 1208.19165)" style="">
    <g clip-path="url(#clip-2)"/>
  </g>
  <g clip-path="url(#clip-3)" transform="matrix(4.906949, 0, 0, 4.90695, 1332.953979, 1208.19165)" style="">
    <g clip-path="url(#clip-4)"/>
  </g>
  <g clip-path="url(#clip-5)" transform="matrix(4.906949, 0, 0, 4.90695, 1332.953979, 1208.19165)" style="">
    <g clip-path="url(#clip-7)"/>
  </g>
  <title id="bx-title-2">Adwaita Icon Template</title>
  <g id="g-1" transform="matrix(7.991172, 0, 0, 8.003645, 1011.010803, -4567.002441)" style="display:inline;fill:#000000;enable-background:new"/>
  <g transform="matrix(1, 0, 0, 1, 1154.801758, 303.075531)" style="fill: none; fill-opacity: 0.25098; stroke: rgb(165, 121, 179); stroke-opacity: 1; display: inline;" id="g-2"/>
  <g transform="matrix(1, 0, 0, 1, 1154.801758, 303.075531)" style="fill: none; fill-opacity: 0.25098; stroke: rgb(165, 121, 179); stroke-opacity: 1; display: inline;" id="g-3"/>
  <title id="bx-title-3">Adwaita Icon Template</title>
  <clipPath id="clip-13">
    <path d="m 20 10 h 8 v 25 h -8 z m 0 0"/>
  </clipPath>
  <clipPath id="clip-14">
    <path d="m 24 10 c -6.628906 0 -12 5.371094 -12 12 v 22 c 0 2.210938 1.789062 4 4 4 c 1.105469 0 2 0.894531 2 2 v 7 c 0 1.105469 -0.894531 2 -2 2 c -2.210938 0 -4 1.789062 -4 4 v 2 h 24 v -2 c 0 -2.210938 -1.789062 -4 -4 -4 c -1.105469 0 -2 -0.894531 -2 -2 v -7 c 0 -1.105469 0.894531 -2 2 -2 c 2.210938 0 4 -1.789062 4 -4 v -22 c 0 -6.628906 -5.371094 -12 -12 -12 z m 0 0"/>
  </clipPath>
  <clipPath id="clip-15">
    <path d="m 32 10 h 4 v 31 h -4 z m 0 0"/>
  </clipPath>
  <clipPath id="clip-16">
    <path d="m 24 10 c -6.628906 0 -12 5.371094 -12 12 v 22 c 0 2.210938 1.789062 4 4 4 c 1.105469 0 2 0.894531 2 2 v 7 c 0 1.105469 -0.894531 2 -2 2 c -2.210938 0 -4 1.789062 -4 4 v 2 h 24 v -2 c 0 -2.210938 -1.789062 -4 -4 -4 c -1.105469 0 -2 -0.894531 -2 -2 v -7 c 0 -1.105469 0.894531 -2 2 -2 c 2.210938 0 4 -1.789062 4 -4 v -22 c 0 -6.628906 -5.371094 -12 -12 -12 z m 0 0"/>
  </clipPath>
  <clipPath id="clip-17">
    <path d="m 12 10 h 4 v 31 h -4 z m 0 0"/>
  </clipPath>
  <clipPath id="clip-18">
    <path d="m 24 10 c -6.628906 0 -12 5.371094 -12 12 v 22 c 0 2.210938 1.789062 4 4 4 c 1.105469 0 2 0.894531 2 2 v 7 c 0 1.105469 -0.894531 2 -2 2 c -2.210938 0 -4 1.789062 -4 4 v 2 h 24 v -2 c 0 -2.210938 -1.789062 -4 -4 -4 c -1.105469 0 -2 -0.894531 -2 -2 v -7 c 0 -1.105469 0.894531 -2 2 -2 c 2.210938 0 4 -1.789062 4 -4 v -22 c 0 -6.628906 -5.371094 -12 -12 -12 z m 0 0"/>
  </clipPath>
  <g clip-path="url(#clip-13)" transform="matrix(4.906949, 0, 0, 4.90695, 1320.937256, 1208.45874)" style="">
    <g clip-path="url(#clip-14)"/>
  </g>
  <g clip-path="url(#clip-15)" transform="matrix(4.906949, 0, 0, 4.90695, 1320.937256, 1208.45874)" style="">
    <g clip-path="url(#clip-16)"/>
  </g>
  <g clip-path="url(#clip-17)" transform="matrix(4.906949, 0, 0, 4.90695, 1320.937256, 1208.45874)" style="">
    <g clip-path="url(#clip-18)"/>
  </g>
  <title id="bx-title-4">Adwaita Icon Template</title>
  <g id="g-4" transform="matrix(7.991172, 0, 0, 8.003645, 998.994141, -4566.735352)" style="display:inline;fill:#000000;enable-background:new"/>
  <g transform="matrix(1, 0, 0, 1, 1142.785034, 303.34256)" style="fill: none; fill-opacity: 0.25098; stroke: rgb(165, 121, 179); stroke-opacity: 1; display: inline;" id="g-5"/>
  <g transform="matrix(1, 0, 0, 1, 1142.785034, 303.34256)" style="fill: none; fill-opacity: 0.25098; stroke: rgb(165, 121, 179); stroke-opacity: 1; display: inline;" id="g-6"/>
  <title id="bx-title-5">Adwaita Icon Template</title>
  <path d="M 25.891 19.2 L 166.055 19.2 C 173.092 19.2 178.797 24.905 178.797 31.942 L 178.797 165.735 C 178.797 172.776 173.092 178.477 166.055 178.477 L 25.891 178.477 C 18.854 178.477 13.149 172.776 13.149 165.735 L 13.149 31.942 C 13.149 24.905 18.854 19.2 25.891 19.2 Z M 25.891 19.2" style="fill: rgb(185, 142, 104);"/>
  <path d="M 25.891 12.829 L 166.055 12.829 C 173.092 12.829 178.797 17.967 178.797 24.301 L 178.797 144.711 C 178.797 151.045 173.092 156.179 166.055 156.179 L 25.891 156.179 C 18.854 156.179 13.149 151.045 13.149 144.711 L 13.149 24.301 C 13.149 17.967 18.854 12.829 25.891 12.829 Z M 25.891 12.829" fill="#e0ccba" style=""/>
  <path d="M 13.149 160.384 L 13.149 163.569 C 13.149 170.065 18.829 175.292 25.891 175.292 L 166.055 175.292 C 173.117 175.292 178.797 170.065 178.797 163.569 L 178.797 160.384 C 178.797 166.878 173.117 172.106 166.055 172.106 L 25.891 172.106 C 18.829 172.106 13.149 166.878 13.149 160.384 Z M 13.149 160.384" fill="#916540" fill-opacity="0.431373" style=""/>
  <path d="M 13.149 154.012 L 13.149 157.198 C 13.149 163.693 18.829 168.921 25.891 168.921 L 166.055 168.921 C 173.117 168.921 178.797 163.693 178.797 157.198 L 178.797 154.012 C 178.797 160.507 173.117 165.735 166.055 165.735 L 25.891 165.735 C 18.829 165.735 13.149 160.507 13.149 154.012 Z M 13.149 154.012" fill="#916540" fill-opacity="0.431373" style=""/>
  <path d="M 13.149 147.641 L 13.149 150.826 C 13.149 157.322 18.829 162.55 25.891 162.55 L 166.055 162.55 C 173.117 162.55 178.797 157.322 178.797 150.826 L 178.797 147.641 C 178.797 154.136 173.117 159.364 166.055 159.364 L 25.891 159.364 C 18.829 159.364 13.149 154.136 13.149 147.641 Z M 13.149 147.641" fill="#916540" fill-opacity="0.431373" style=""/>
  <path d="M 134.2 17.607 C 149.156 17.607 161.277 29.733 161.277 44.684 L 161.277 51.055 C 161.277 66.012 149.156 78.132 134.2 78.132 C 119.243 78.132 107.123 66.012 107.123 51.055 L 107.123 44.684 C 107.123 29.733 119.243 17.607 134.2 17.607 Z M 134.2 17.607" style="fill: rgb(180, 137, 26);"/>
  <path d="M 161.277 44.684 C 161.277 59.641 149.156 71.762 134.2 71.762 C 119.243 71.762 107.123 59.641 107.123 44.684 C 107.123 29.733 119.243 17.607 134.2 17.607 C 149.156 17.607 161.277 29.733 161.277 44.684 Z M 161.277 44.684" style="fill: rgb(228, 183, 25);"/>
  <path d="M 41.818 92.468 L 83.231 92.468 C 88.506 92.468 92.788 96.747 92.788 102.025 L 92.788 133.88 C 92.788 139.162 88.506 143.437 83.231 143.437 L 41.818 143.437 C 36.542 143.437 32.263 139.162 32.263 133.88 L 32.263 102.025 C 32.263 96.747 36.542 92.468 41.818 92.468 Z M 41.818 92.468" style="fill: rgb(30, 130, 119);"/>
  <path d="M 133.434 89.554 C 131.891 89.834 130.629 90.948 130.149 92.448 L 126.086 105.209 L 109.319 105.209 C 108.853 105.221 108.386 105.301 107.943 105.458 L 107.943 103.021 L 104.939 103.021 L 104.939 109.392 L 104.989 109.392 C 104.914 110.847 105.554 112.246 106.718 113.129 L 120.368 123.19 L 117.45 132.373 L 115.76 132.373 L 115.76 138.55 L 115.76 138.663 L 115.76 138.744 L 115.776 138.744 C 115.901 140.306 116.866 141.674 118.29 142.329 C 119.715 142.982 121.376 142.814 122.647 141.894 L 134.2 133.374 L 145.754 141.894 C 147.018 142.807 148.679 142.97 150.096 142.316 C 151.515 141.668 152.473 140.3 152.603 138.744 L 152.64 138.744 L 152.64 138.248 C 152.64 138.208 152.64 138.166 152.64 138.129 L 152.64 132.373 L 150.947 132.373 L 148.03 123.19 L 161.682 113.129 C 162.858 112.258 163.516 110.858 163.449 109.396 L 163.461 109.396 L 163.461 103.024 L 160.455 103.024 L 160.455 105.465 C 160.014 105.301 159.547 105.221 159.081 105.209 L 142.312 105.209 L 138.251 92.448 C 137.598 90.408 135.537 89.169 133.434 89.554 Z M 133.434 89.554" style="fill: rgb(192, 87, 28);"/>
  <path d="M 38.634 25.571 C 35.112 25.571 32.263 28.426 32.263 31.942 L 32.263 70.629 C 32.263 73.9 34.9 76.539 38.179 76.539 L 86.871 76.539 C 90.149 76.539 92.788 73.9 92.788 70.629 L 92.788 41.043 C 92.788 37.771 90.149 35.128 86.871 35.128 L 64.117 35.128 L 57.746 28.756 C 55.705 26.721 52.943 25.575 50.057 25.571 L 38.634 25.571 Z M 38.634 25.571" fill="#b5835a" style=""/>
  <path d="M 38.634 25.571 C 35.112 25.571 32.263 28.426 32.263 31.942 L 32.263 38.314 C 32.263 34.797 35.112 31.942 38.634 31.942 L 50.057 31.942 C 52.943 31.947 55.705 33.092 57.746 35.128 L 64.117 41.498 L 86.871 41.498 C 90.149 41.498 92.788 44.142 92.788 47.414 L 92.788 41.043 C 92.788 37.771 90.149 35.128 86.871 35.128 L 64.117 35.128 L 57.746 28.756 C 55.705 26.721 52.943 25.575 50.057 25.571 L 38.634 25.571 Z M 38.634 25.571" fill="#986a44" style=""/>
  <path d="M 41.818 86.097 L 83.231 86.097 C 88.506 86.097 92.788 90.376 92.788 95.653 L 92.788 127.509 C 92.788 132.791 88.506 137.065 83.231 137.065 L 41.818 137.065 C 36.542 137.065 32.263 132.791 32.263 127.509 L 32.263 95.653 C 32.263 90.376 36.542 86.097 41.818 86.097 Z M 41.818 86.097" style="fill: rgb(38, 162, 152);"/>
  <path d="M 130.149 86.076 L 126.086 98.839 L 109.319 98.839 C 107.426 98.839 105.746 100.057 105.15 101.856 C 104.558 103.66 105.194 105.632 106.718 106.758 L 120.368 116.82 L 115.952 130.719 C 115.378 132.51 116.026 134.458 117.551 135.553 C 119.081 136.647 121.134 136.635 122.647 135.523 L 134.2 127.004 L 145.754 135.523 C 147.266 136.635 149.319 136.647 150.849 135.553 C 152.374 134.458 153.02 132.51 152.448 130.719 L 148.03 116.82 L 161.682 106.758 C 163.206 105.632 163.84 103.66 163.249 101.856 C 162.651 100.057 160.971 98.839 159.081 98.839 L 142.312 98.839 L 138.251 86.076 C 137.683 84.31 136.048 83.115 134.2 83.115 C 132.352 83.115 130.715 84.31 130.149 86.076 Z M 130.149 86.076" style="fill: rgb(237, 134, 51);"/>
  <g fill="#b5835a" transform="matrix(1.592777, 0, 0, 1.592777, -5.96487, -6.236077)" style="">
    <path d="m 20 17.96875 c 0 1.105469 -0.894531 2 -2 2 s -2 -0.894531 -2 -2 c 0 -1.101562 0.894531 -2 2 -2 s 2 0.898438 2 2 z m 0 0"/>
    <path d="m 112 17.96875 c 0 1.105469 -0.894531 2 -2 2 s -2 -0.894531 -2 -2 c 0 -1.101562 0.894531 -2 2 -2 s 2 0.898438 2 2 z m 0 0"/>
    <path d="m 112 95.96875 c 0 1.105469 -0.894531 2 -2 2 s -2 -0.894531 -2 -2 c 0 -1.101562 0.894531 -2 2 -2 s 2 0.898438 2 2 z m 0 0"/>
    <path d="m 20 95.96875 c 0 1.105469 -0.894531 2 -2 2 s -2 -0.894531 -2 -2 c 0 -1.101562 0.894531 -2 2 -2 s 2 0.898438 2 2 z m 0 0"/>
  </g>
</svg>