<?xml version="1.0" encoding="UTF-8" standalone="no"?>
<svg
   viewBox="0 0 128 128"
   style="display:inline;enable-background:new"
   version="1.0"
   id="svg11300"
   height="128"
   width="128"
   sodipodi:docname="software.svg"
   xml:space="preserve"
   inkscape:version="1.3.2 (091e20ef0f, 2023-11-25)"
   xmlns:inkscape="http://www.inkscape.org/namespaces/inkscape"
   xmlns:sodipodi="http://sodipodi.sourceforge.net/DTD/sodipodi-0.dtd"
   xmlns="http://www.w3.org/2000/svg"
   xmlns:svg="http://www.w3.org/2000/svg"><defs
     id="defs32" /><sodipodi:namedview
     id="namedview32"
     pagecolor="#ffffff"
     bordercolor="#000000"
     borderopacity="0.25"
     inkscape:showpageshadow="2"
     inkscape:pageopacity="0.0"
     inkscape:pagecheckerboard="0"
     inkscape:deskcolor="#d1d1d1"
     inkscape:zoom="2.1410093"
     inkscape:cx="-43.203922"
     inkscape:cy="47.874617"
     inkscape:window-width="1536"
     inkscape:window-height="795"
     inkscape:window-x="0"
     inkscape:window-y="0"
     inkscape:window-maximized="1"
     inkscape:current-layer="layer9" /><title
     id="title4162">Adwaita Icon Template</title><g
     style="display: inline;"
     id="layer9"
     transform="matrix(1.106814, 0, 0, 1.106814, -7.512656, -193.149384)"><rect
       style="opacity: 1; vector-effect: none; fill-opacity: 1; stroke: none; stroke-width: 8; stroke-linecap: round; stroke-linejoin: round; stroke-miterlimit: 4; stroke-dasharray: none; stroke-dashoffset: 0; stroke-opacity: 0.673228; fill: rgb(193, 193, 193);"
       id="rect1127"
       width="104"
       height="44"
       x="12"
       y="244"
       rx="8"
       ry="8" /><g
       transform="rotate(-30,403.50258,307.81151)"
       id="g1710" /><rect
       style="opacity: 1; vector-effect: none; fill-opacity: 1; stroke: none; stroke-width: 27.7128; stroke-linecap: butt; stroke-linejoin: round; stroke-miterlimit: 4; stroke-dasharray: none; stroke-dashoffset: 0; stroke-opacity: 1; marker: none; paint-order: normal; fill: rgb(239, 239, 239);"
       id="rect1051"
       width="104"
       height="85.426"
       x="12"
       y="192" /><g
       id="g1292"
       style="fill:#99bde8;fill-opacity:1"
       transform="matrix(1.195311, 0, 0, 1.195311, -12.327588, -34.604565)"><circle
         style="opacity:1;fill-opacity:1;stroke:none;stroke-width:4;stroke-linecap:round;stroke-linejoin:round;stroke-miterlimit:4;stroke-dasharray:none;stroke-dashoffset:0;stroke-opacity:1;fill:#99bde8"
         id="path1047"
         cx="50"
         cy="201"
         r="5" /><circle
         r="5"
         cy="201"
         cx="78"
         id="circle1049"
         style="opacity:1;fill-opacity:1;stroke:none;stroke-width:4;stroke-linecap:round;stroke-linejoin:round;stroke-miterlimit:4;stroke-dasharray:none;stroke-dashoffset:0;stroke-opacity:1;fill:#99bde8" /></g><path
       style="color:#000000;fill:#6ea1de;stroke-linecap:round;stroke-linejoin:round;-inkscape-stroke:none;fill-opacity:1"
       d="m 64.171875,175.90234 c -10.483315,0 -18.992188,8.50991 -18.992188,18.99219 v 9.5625 a 2.2587349,2.2587349 0 0 0 2.257813,2.25977 2.2587349,2.2587349 0 0 0 2.259766,-2.25977 v -9.5625 c 0,-8.0577 6.415942,-14.47461 14.474609,-14.47461 8.058667,0 14.474609,6.41691 14.474609,14.47461 v 9.5625 a 2.2587349,2.2587349 0 0 0 2.259766,2.25977 2.2587349,2.2587349 0 0 0 2.257812,-2.25977 v -9.5625 c 0,-10.48228 -8.508872,-18.99219 -18.992187,-18.99219 z"
       id="rect1044" /></g><g
     style="fill: url('#linearGradient1496'); fill-opacity: 1; display: inline;"
     id="g1480"
     transform="matrix(1.084157, 0, 0, 1.084157, -5.282488, -187.692108)" /><clipPath
     id="clip-6"><path
       d="m 20 10 h 8 v 25 h -8 z m 0 0"
       id="path1" /></clipPath><clipPath
     id="clip-8"><path
       d="m 24 10 c -6.628906 0 -12 5.371094 -12 12 v 22 c 0 2.210938 1.789062 4 4 4 c 1.105469 0 2 0.894531 2 2 v 7 c 0 1.105469 -0.894531 2 -2 2 c -2.210938 0 -4 1.789062 -4 4 v 2 h 24 v -2 c 0 -2.210938 -1.789062 -4 -4 -4 c -1.105469 0 -2 -0.894531 -2 -2 v -7 c 0 -1.105469 0.894531 -2 2 -2 c 2.210938 0 4 -1.789062 4 -4 v -22 c 0 -6.628906 -5.371094 -12 -12 -12 z m 0 0"
       id="path2" /></clipPath><clipPath
     id="clip-9"><path
       d="m 32 10 h 4 v 31 h -4 z m 0 0"
       id="path3" /></clipPath><clipPath
     id="clip-10"><path
       d="m 24 10 c -6.628906 0 -12 5.371094 -12 12 v 22 c 0 2.210938 1.789062 4 4 4 c 1.105469 0 2 0.894531 2 2 v 7 c 0 1.105469 -0.894531 2 -2 2 c -2.210938 0 -4 1.789062 -4 4 v 2 h 24 v -2 c 0 -2.210938 -1.789062 -4 -4 -4 c -1.105469 0 -2 -0.894531 -2 -2 v -7 c 0 -1.105469 0.894531 -2 2 -2 c 2.210938 0 4 -1.789062 4 -4 v -22 c 0 -6.628906 -5.371094 -12 -12 -12 z m 0 0"
       id="path4" /></clipPath><clipPath
     id="clip-11"><path
       d="m 12 10 h 4 v 31 h -4 z m 0 0"
       id="path5" /></clipPath><clipPath
     id="clip-12"><path
       d="m 24 10 c -6.628906 0 -12 5.371094 -12 12 v 22 c 0 2.210938 1.789062 4 4 4 c 1.105469 0 2 0.894531 2 2 v 7 c 0 1.105469 -0.894531 2 -2 2 c -2.210938 0 -4 1.789062 -4 4 v 2 h 24 v -2 c 0 -2.210938 -1.789062 -4 -4 -4 c -1.105469 0 -2 -0.894531 -2 -2 v -7 c 0 -1.105469 0.894531 -2 2 -2 c 2.210938 0 4 -1.789062 4 -4 v -22 c 0 -6.628906 -5.371094 -12 -12 -12 z m 0 0"
       id="path6" /></clipPath><g
     clip-path="url(#clip-6)"
     transform="matrix(4.906949, 0, 0, 4.90695, 1237.147827, 1182.482178)"
     style=""
     id="g7"><g
       clip-path="url(#clip-8)"
       id="g6" /></g><g
     clip-path="url(#clip-9)"
     transform="matrix(4.906949, 0, 0, 4.90695, 1237.147827, 1182.482178)"
     style=""
     id="g9"><g
       clip-path="url(#clip-10)"
       id="g8" /></g><g
     clip-path="url(#clip-11)"
     transform="matrix(4.906949, 0, 0, 4.90695, 1237.147827, 1182.482178)"
     style=""
     id="g11"><g
       clip-path="url(#clip-12)"
       id="g10" /></g><title
     id="bx-title-6">Adwaita Icon Template</title><g
     id="g12027"
     transform="matrix(7.991172, 0, 0, 8.003645, 915.204712, -4592.711914)"
     style="display:inline;fill:#000000;enable-background:new" /><g
     transform="matrix(1, 0, 0, 1, 1058.995605, 277.366028)"
     style="fill: none; fill-opacity: 0.25098; stroke: rgb(165, 121, 179); stroke-opacity: 1; display: inline;"
     id="g883" /><g
     transform="matrix(1, 0, 0, 1, 1058.995605, 277.366028)"
     style="fill: none; fill-opacity: 0.25098; stroke: rgb(165, 121, 179); stroke-opacity: 1; display: inline;"
     id="g900" /><title
     id="bx-title-1">Adwaita Icon Template</title><clipPath
     id="clip-1"><path
       d="m 20 10 h 8 v 25 h -8 z m 0 0"
       id="path11" /></clipPath><clipPath
     id="clip-2"><path
       d="m 24 10 c -6.628906 0 -12 5.371094 -12 12 v 22 c 0 2.210938 1.789062 4 4 4 c 1.105469 0 2 0.894531 2 2 v 7 c 0 1.105469 -0.894531 2 -2 2 c -2.210938 0 -4 1.789062 -4 4 v 2 h 24 v -2 c 0 -2.210938 -1.789062 -4 -4 -4 c -1.105469 0 -2 -0.894531 -2 -2 v -7 c 0 -1.105469 0.894531 -2 2 -2 c 2.210938 0 4 -1.789062 4 -4 v -22 c 0 -6.628906 -5.371094 -12 -12 -12 z m 0 0"
       id="path12" /></clipPath><clipPath
     id="clip-3"><path
       d="m 32 10 h 4 v 31 h -4 z m 0 0"
       id="path13" /></clipPath><clipPath
     id="clip-4"><path
       d="m 24 10 c -6.628906 0 -12 5.371094 -12 12 v 22 c 0 2.210938 1.789062 4 4 4 c 1.105469 0 2 0.894531 2 2 v 7 c 0 1.105469 -0.894531 2 -2 2 c -2.210938 0 -4 1.789062 -4 4 v 2 h 24 v -2 c 0 -2.210938 -1.789062 -4 -4 -4 c -1.105469 0 -2 -0.894531 -2 -2 v -7 c 0 -1.105469 0.894531 -2 2 -2 c 2.210938 0 4 -1.789062 4 -4 v -22 c 0 -6.628906 -5.371094 -12 -12 -12 z m 0 0"
       id="path14" /></clipPath><clipPath
     id="clip-5"><path
       d="m 12 10 h 4 v 31 h -4 z m 0 0"
       id="path15" /></clipPath><clipPath
     id="clip-7"><path
       d="m 24 10 c -6.628906 0 -12 5.371094 -12 12 v 22 c 0 2.210938 1.789062 4 4 4 c 1.105469 0 2 0.894531 2 2 v 7 c 0 1.105469 -0.894531 2 -2 2 c -2.210938 0 -4 1.789062 -4 4 v 2 h 24 v -2 c 0 -2.210938 -1.789062 -4 -4 -4 c -1.105469 0 -2 -0.894531 -2 -2 v -7 c 0 -1.105469 0.894531 -2 2 -2 c 2.210938 0 4 -1.789062 4 -4 v -22 c 0 -6.628906 -5.371094 -12 -12 -12 z m 0 0"
       id="path16" /></clipPath><g
     clip-path="url(#clip-1)"
     transform="matrix(4.90695, 0, 0, 4.90695, 1435.398804, 1177.168335)"
     style=""
     id="g17"><g
       clip-path="url(#clip-2)"
       id="g16" /></g><g
     clip-path="url(#clip-3)"
     transform="matrix(4.90695, 0, 0, 4.90695, 1435.398804, 1177.168335)"
     style=""
     id="g19"><g
       clip-path="url(#clip-4)"
       id="g18" /></g><g
     clip-path="url(#clip-5)"
     transform="matrix(4.90695, 0, 0, 4.90695, 1435.398804, 1177.168335)"
     style=""
     id="g21"><g
       clip-path="url(#clip-7)"
       id="g20" /></g><title
     id="bx-title-2">Adwaita Icon Template</title><g
     id="g-1"
     transform="matrix(7.991172, 0, 0, 8.003645, 1113.455566, -4598.025879)"
     style="display:inline;fill:#000000;enable-background:new" /><g
     transform="matrix(1, 0, 0, 1, 1257.246582, 272.052216)"
     style="fill: none; fill-opacity: 0.25098; stroke: rgb(165, 121, 179); stroke-opacity: 1; display: inline;"
     id="g-2" /><g
     transform="matrix(1, 0, 0, 1, 1257.246582, 272.052216)"
     style="fill: none; fill-opacity: 0.25098; stroke: rgb(165, 121, 179); stroke-opacity: 1; display: inline;"
     id="g-3" /><title
     id="bx-title-3">Adwaita Icon Template</title><clipPath
     id="clip-13"><path
       d="m 20 10 h 8 v 25 h -8 z m 0 0"
       id="path21" /></clipPath><clipPath
     id="clip-14"><path
       d="m 24 10 c -6.628906 0 -12 5.371094 -12 12 v 22 c 0 2.210938 1.789062 4 4 4 c 1.105469 0 2 0.894531 2 2 v 7 c 0 1.105469 -0.894531 2 -2 2 c -2.210938 0 -4 1.789062 -4 4 v 2 h 24 v -2 c 0 -2.210938 -1.789062 -4 -4 -4 c -1.105469 0 -2 -0.894531 -2 -2 v -7 c 0 -1.105469 0.894531 -2 2 -2 c 2.210938 0 4 -1.789062 4 -4 v -22 c 0 -6.628906 -5.371094 -12 -12 -12 z m 0 0"
       id="path22" /></clipPath><clipPath
     id="clip-15"><path
       d="m 32 10 h 4 v 31 h -4 z m 0 0"
       id="path23" /></clipPath><clipPath
     id="clip-16"><path
       d="m 24 10 c -6.628906 0 -12 5.371094 -12 12 v 22 c 0 2.210938 1.789062 4 4 4 c 1.105469 0 2 0.894531 2 2 v 7 c 0 1.105469 -0.894531 2 -2 2 c -2.210938 0 -4 1.789062 -4 4 v 2 h 24 v -2 c 0 -2.210938 -1.789062 -4 -4 -4 c -1.105469 0 -2 -0.894531 -2 -2 v -7 c 0 -1.105469 0.894531 -2 2 -2 c 2.210938 0 4 -1.789062 4 -4 v -22 c 0 -6.628906 -5.371094 -12 -12 -12 z m 0 0"
       id="path24" /></clipPath><clipPath
     id="clip-17"><path
       d="m 12 10 h 4 v 31 h -4 z m 0 0"
       id="path25" /></clipPath><clipPath
     id="clip-18"><path
       d="m 24 10 c -6.628906 0 -12 5.371094 -12 12 v 22 c 0 2.210938 1.789062 4 4 4 c 1.105469 0 2 0.894531 2 2 v 7 c 0 1.105469 -0.894531 2 -2 2 c -2.210938 0 -4 1.789062 -4 4 v 2 h 24 v -2 c 0 -2.210938 -1.789062 -4 -4 -4 c -1.105469 0 -2 -0.894531 -2 -2 v -7 c 0 -1.105469 0.894531 -2 2 -2 c 2.210938 0 4 -1.789062 4 -4 v -22 c 0 -6.628906 -5.371094 -12 -12 -12 z m 0 0"
       id="path26" /></clipPath><g
     clip-path="url(#clip-13)"
     transform="matrix(4.90695, 0, 0, 4.906949, 1423.38208, 1177.435425)"
     style=""
     id="g27"><g
       clip-path="url(#clip-14)"
       id="g26" /></g><g
     clip-path="url(#clip-15)"
     transform="matrix(4.90695, 0, 0, 4.906949, 1423.38208, 1177.435425)"
     style=""
     id="g29"><g
       clip-path="url(#clip-16)"
       id="g28" /></g><g
     clip-path="url(#clip-17)"
     transform="matrix(4.90695, 0, 0, 4.906949, 1423.38208, 1177.435425)"
     style=""
     id="g31"><g
       clip-path="url(#clip-18)"
       id="g30" /></g><title
     id="bx-title-4">Adwaita Icon Template</title><g
     id="g-4"
     transform="matrix(7.991172, 0, 0, 8.003645, 1101.438965, -4597.758789)"
     style="display:inline;fill:#000000;enable-background:new" /><g
     transform="matrix(1, 0, 0, 1, 1245.229858, 272.319244)"
     style="fill: none; fill-opacity: 0.25098; stroke: rgb(165, 121, 179); stroke-opacity: 1; display: inline;"
     id="g-5" /><g
     transform="matrix(1, 0, 0, 1, 1245.229858, 272.319244)"
     style="fill: none; fill-opacity: 0.25098; stroke: rgb(165, 121, 179); stroke-opacity: 1; display: inline;"
     id="g-6" /><title
     id="bx-title-5">Adwaita Icon Template</title><path
     d="m 63.388053,44.592834 c -2.881319,0 -5.231332,2.350015 -5.231332,5.231333 V 87.15416 L 46.161439,75.158876 c -0.980875,-0.980875 -2.309142,-1.532618 -3.698714,-1.532618 -1.389573,0 -2.71784,0.551743 -3.698715,1.532618 -2.04349,2.04349 -2.04349,5.353939 0,7.397429 l 20.925329,20.925335 c 2.043488,2.04349 5.353939,2.04349 7.397429,0 l 20.92533,-20.925335 c 2.04349,-2.04349 2.04349,-5.353939 0,-7.397429 -2.04349,-2.043489 -5.353939,-2.043489 -7.397429,0 L 68.619386,87.15416 V 49.824167 c 0,-2.881318 -2.350015,-5.231333 -5.231333,-5.231333 z"
     fill="#2e3436"
     id="path1-3"
     style="fill:#3e6ea8;fill-opacity:1;stroke-width:5.23133"
     sodipodi:nodetypes="sscssssssssscss" /></svg>
