<?xml version="1.0" encoding="UTF-8" standalone="no"?>
<svg
   height="128"
   width="128"
   version="1.1"
   id="svg23"
   sodipodi:docname="org.gnome.Music.svg"
   inkscape:version="1.3.2 (091e20ef0f, 2023-11-25)"
   xmlns:inkscape="http://www.inkscape.org/namespaces/inkscape"
   xmlns:sodipodi="http://sodipodi.sourceforge.net/DTD/sodipodi-0.dtd"
   xmlns="http://www.w3.org/2000/svg"
   xmlns:svg="http://www.w3.org/2000/svg">
  <sodipodi:namedview
     id="namedview23"
     pagecolor="#ffffff"
     bordercolor="#000000"
     borderopacity="0.25"
     inkscape:showpageshadow="2"
     inkscape:pageopacity="0.0"
     inkscape:pagecheckerboard="0"
     inkscape:deskcolor="#d1d1d1"
     inkscape:zoom="4.8984375"
     inkscape:cx="64"
     inkscape:cy="64"
     inkscape:window-width="1536"
     inkscape:window-height="795"
     inkscape:window-x="0"
     inkscape:window-y="0"
     inkscape:window-maximized="1"
     inkscape:current-layer="svg23" />
  <defs
     id="defs16">
    <linearGradient
       gradientTransform="translate(0 -172)"
       y2="-316.08"
       x2="600.205"
       y1="238"
       x1="116.205"
       gradientUnits="userSpaceOnUse"
       id="a">
      <stop
         stop-color="#b2d1e9"
         offset="0"
         id="stop1"
         style="stop-color:#777777;stop-opacity:1;" />
      <stop
         stop-color="#c0c6cd"
         offset=".136"
         id="stop2" />
      <stop
         stop-color="#d2dee8"
         offset=".453"
         id="stop3" />
      <stop
         stop-color="#bfc5ce"
         offset=".72"
         id="stop4" />
      <stop
         stop-color="#dbe2e8"
         offset=".937"
         id="stop5" />
      <stop
         stop-color="#e4e6e8"
         offset="1"
         id="stop6" />
    </linearGradient>
    <linearGradient
       gradientTransform="translate(0 -172)"
       y2="-316.08"
       x2="600.205"
       y1="238"
       x1="116.205"
       gradientUnits="userSpaceOnUse"
       id="b">
      <stop
         stop-color="#b2d1e9"
         offset="0"
         id="stop7" />
      <stop
         stop-color="#c0c6cd"
         offset=".136"
         id="stop8" />
      <stop
         stop-color="#d2dee8"
         offset=".453"
         id="stop9" />
      <stop
         stop-color="#bfc5ce"
         offset=".72"
         id="stop10" />
      <stop
         stop-color="#dbe2e8"
         offset=".937"
         id="stop11" />
      <stop
         stop-color="#e4e6e8"
         offset="1"
         id="stop12" />
    </linearGradient>
    <linearGradient
       gradientTransform="rotate(90 47.387 40.864) scale(.26563)"
       y2="91.301"
       x2="431.139"
       y1="91.301"
       x1="99.846"
       gradientUnits="userSpaceOnUse"
       id="c">
      <stop
         stop-color="#f6d32d"
         offset="0"
         id="stop13" />
      <stop
         stop-color="#f9f06b"
         offset="1"
         id="stop14" />
    </linearGradient>
    <radialGradient
       gradientTransform="matrix(0.23324672,-0.06250034,0.06250034,0.233274,-3.7210314,59.546912)"
       r="56"
       fy="67.198"
       fx="273.943"
       cy="67.198"
       cx="273.943"
       gradientUnits="userSpaceOnUse"
       id="d">
      <stop
         stop-color="#fff"
         offset="0"
         id="stop15" />
      <stop
         stop-color="#c4c5c3"
         offset="1"
         id="stop16" />
    </radialGradient>
  </defs>
  <path
     fill="url(#a)"
     d="M20 12h88a8 8 0 018 8v88a8 8 0 01-8 8H20a8 8 0 01-8-8V20a8 8 0 018-8zm0 0"
     id="path16"
     style="fill:#777777;fill-opacity:1" />
  <path
     fill="url(#b)"
     d="M124 64c0 33.137-26.863 60-60 60S4 97.137 4 64 30.863 4 64 4s60 26.863 60 60zm0 0"
     id="path17"
     style="fill:#777777;fill-opacity:1" />
  <path
     d="M116 64c0 28.719-23.281 52-52 52S12 92.719 12 64c0-28.723 23.281-52.004 52-52.004S116 35.277 116 64zm0 0"
     id="path18" />
  <path
     fill="url(#c)"
     d="M64 108c-24.3 0-44-19.7-44-44s19.7-44 44-44 44 19.7 44 44-19.7 44-44 44zm0 0"
     id="path20" />
  <path
     d="M84 64c0 11.047-8.953 20-20 20s-20-8.953-20-20 8.953-20.004 20-20.004S84 52.953 84 64zm0 0"
     id="path21" />
  <path
     fill="url(#d)"
     d="m 77.960323,60.488736 c 2.081829,7.759133 -2.524559,15.734631 -10.283693,17.815552 -7.760042,2.077284 -15.73554,-2.528196 -17.812824,-10.287329 -2.08183,-7.760043 2.524559,-15.735541 10.283692,-17.816461 7.760043,-2.077284 15.735541,2.528196 17.812825,10.287329 z m 0,0"
     id="path22"
     style="fill:url(#d);stroke-width:0.909096" />
</svg>
