<?xml version="1.0" encoding="UTF-8" standalone="no"?>
<svg
   height="128px"
   viewBox="0 0 128 128"
   width="128px"
   version="1.1"
   id="svg16"
   sodipodi:docname="stamp.svg"
   inkscape:version="1.3.2 (091e20ef0f, 2023-11-25)"
   xml:space="preserve"
   xmlns:inkscape="http://www.inkscape.org/namespaces/inkscape"
   xmlns:sodipodi="http://sodipodi.sourceforge.net/DTD/sodipodi-0.dtd"
   xmlns:xlink="http://www.w3.org/1999/xlink"
   xmlns="http://www.w3.org/2000/svg"
   xmlns:svg="http://www.w3.org/2000/svg"
   xmlns:bx="https://boxy-svg.com"><sodipodi:namedview
     id="namedview16"
     pagecolor="#ffffff"
     bordercolor="#000000"
     borderopacity="0.25"
     inkscape:showpageshadow="2"
     inkscape:pageopacity="0.0"
     inkscape:pagecheckerboard="0"
     inkscape:deskcolor="#d1d1d1"
     inkscape:zoom="4.654779"
     inkscape:cx="43.074011"
     inkscape:cy="74.86929"
     inkscape:window-width="1536"
     inkscape:window-height="795"
     inkscape:window-x="0"
     inkscape:window-y="0"
     inkscape:window-maximized="1"
     inkscape:current-layer="g125"
     showguides="true" /><defs
     id="defs6"><linearGradient
       id="gradient-1"
       bx:pinned="true"><stop
         offset="0"
         style="stop-color: rgb(154, 153, 150);"
         id="stop1" /><stop
         offset="0.041"
         style="stop-color: rgb(192, 191, 188);"
         id="stop2" /><stop
         offset="0.1002"
         style="stop-color: rgb(154, 153, 150);"
         id="stop3" /><stop
         offset="0.9"
         style="stop-color: rgb(154, 153, 150);"
         id="stop4" /><stop
         offset="0.95"
         style="stop-color: rgb(192, 191, 188);"
         id="stop5" /><stop
         offset="1"
         style="stop-color: rgb(154, 153, 150);"
         id="stop6" /></linearGradient><linearGradient
       id="gradient-1-0"
       gradientUnits="userSpaceOnUse"
       x1="63.287"
       y1="6.121"
       x2="63.287"
       y2="117.318"
       gradientTransform="matrix(-0.000842, 1.006025, -0.742502, -0.000621, 107.364352, 61.97522)"
       xlink:href="#gradient-1" /><linearGradient
       inkscape:collect="always"
       xlink:href="#linearGradient67"
       id="linearGradient127"
       gradientUnits="userSpaceOnUse"
       gradientTransform="matrix(0.76923077,0,0,0.79999998,297.84615,48.800006)"
       x1="-304"
       y1="184"
       x2="-304"
       y2="284" /><linearGradient
       id="linearGradient67"
       inkscape:collect="always"><stop
         style="stop-color:#a2f081;stop-opacity:1;"
         offset="0"
         id="stop66" /><stop
         style="stop-color:#4bbd2e;stop-opacity:1;"
         offset="1"
         id="stop67" /></linearGradient><inkscape:path-effect
       effect="fillet_chamfer"
       id="path-effect127"
       is_visible="true"
       lpeversion="1"
       nodesatellites_param="F,0,0,1,0,6,0,1 @ F,0,0,1,0,6,0,1 @ F,0,0,1,0,6,0,1"
       radius="6"
       unit="px"
       method="auto"
       mode="F"
       chamfer_steps="1"
       flexible="false"
       use_knot_distance="true"
       apply_no_radius="true"
       apply_with_radius="true"
       only_selected="false"
       hide_knots="false" /><clipPath
       clipPathUnits="userSpaceOnUse"
       id="clipPath93"><path
         id="path93"
         style="display:inline;vector-effect:none;fill:#ffffff;fill-opacity:1;stroke:none;stroke-width:0.25;stroke-linecap:butt;stroke-linejoin:miter;stroke-miterlimit:4;stroke-dasharray:none;stroke-dashoffset:0;stroke-opacity:1;marker:none;marker-start:none;marker-mid:none;marker-end:none;paint-order:normal;enable-background:new"
         d="m 45,154 c -4.431984,0 -8,3.568 -8,8 v 4 a 5.5367718,5.5367718 0 0 1 5.537109,5.53711 A 5.5367718,5.5367718 0 0 1 37,177.07422 V 183.25 a 5.5367718,5.5367718 0 0 1 5.537109,5.53711 A 5.5367718,5.5367718 0 0 1 37,194.32422 V 200.5 a 5.5367718,5.5367718 0 0 1 5.537109,5.53711 A 5.5367718,5.5367718 0 0 1 37,211.57422 V 217.75 a 5.5367718,5.5367718 0 0 1 5.537109,5.53711 A 5.5367718,5.5367718 0 0 1 37,228.82422 V 235 a 5.5367718,5.5367718 0 0 1 5.537109,5.53711 A 5.5367718,5.5367718 0 0 1 37,246.07422 V 250 c 0,4.432 3.568016,8 8,8 h 4 A 5.5367718,5.5367718 0 0 1 54.537109,252.46289 5.5367718,5.5367718 0 0 1 60.074219,258 H 66.25 A 5.5367718,5.5367718 0 0 1 71.787109,252.46289 5.5367718,5.5367718 0 0 1 77.324219,258 H 83.5 A 5.5367718,5.5367718 0 0 1 89.037109,252.46289 5.5367718,5.5367718 0 0 1 94.574219,258 H 100.75 a 5.5367718,5.5367718 0 0 1 5.53711,-5.53711 A 5.5367718,5.5367718 0 0 1 111.82422,258 H 118 a 5.5367718,5.5367718 0 0 1 5.53711,-5.53711 A 5.5367718,5.5367718 0 0 1 129.07422,258 H 133 c 4.432,0 8,-3.568 8,-8 v -3.92578 A 5.5367718,5.5367718 0 0 1 135.46289,240.53711 5.5367718,5.5367718 0 0 1 141,235 v -6.17578 A 5.5367718,5.5367718 0 0 1 135.46289,223.28711 5.5367718,5.5367718 0 0 1 141,217.75 v -6.17578 A 5.5367718,5.5367718 0 0 1 135.46289,206.03711 5.5367718,5.5367718 0 0 1 141,200.5 v -6.17578 A 5.5367718,5.5367718 0 0 1 135.46289,188.78711 5.5367718,5.5367718 0 0 1 141,183.25 v -6.17578 A 5.5367718,5.5367718 0 0 1 135.46289,171.53711 5.5367718,5.5367718 0 0 1 141,166 v -4 c 0,-4.432 -3.568,-8 -8,-8 h -3.92578 a 5.5367718,5.5367718 0 0 1 -5.53711,5.53711 A 5.5367718,5.5367718 0 0 1 118,154 h -6.17578 a 5.5367718,5.5367718 0 0 1 -5.53711,5.53711 A 5.5367718,5.5367718 0 0 1 100.75,154 h -6.175781 a 5.5367718,5.5367718 0 0 1 -5.53711,5.53711 A 5.5367718,5.5367718 0 0 1 83.5,154 h -6.175781 a 5.5367718,5.5367718 0 0 1 -5.53711,5.53711 A 5.5367718,5.5367718 0 0 1 66.25,154 h -6.175781 a 5.5367718,5.5367718 0 0 1 -5.53711,5.53711 A 5.5367718,5.5367718 0 0 1 49,154 Z" /></clipPath><linearGradient
       id="color-0"
       gradientUnits="userSpaceOnUse"
       bx:pinned="true"><stop
         style="stop-color: rgb(255, 207, 63)"
         id="stop1-3" /></linearGradient><linearGradient
       id="color-1"
       gradientUnits="userSpaceOnUse"
       gradientTransform="matrix(0.001384, 0, 0, 0.001858, -895.164215, -9.564374)"
       bx:pinned="true"><stop
         style="stop-color: rgb(239, 210, 65);"
         id="stop2-6" /></linearGradient></defs><g
     id="g126"
     transform="matrix(1.132493,0,0,1.132493,-7.7066444,-202.51562)"
     style="display:inline;enable-background:new"><g
       id="g125"><path
         id="path105"
         style="display:inline;vector-effect:none;fill:#f6f5f4;fill-opacity:1;stroke:none;stroke-width:0.25;stroke-linecap:butt;stroke-linejoin:miter;stroke-miterlimit:4;stroke-dasharray:none;stroke-dashoffset:0;stroke-opacity:1;marker:none;marker-start:none;marker-mid:none;marker-end:none;paint-order:normal;enable-background:new"
         d="m 20,184 c -4.431984,0 -8,3.568 -8,8 v 4 a 5.5367718,5.5367718 0 0 1 5.537109,5.53711 A 5.5367718,5.5367718 0 0 1 12,207.07422 V 213.25 a 5.5367718,5.5367718 0 0 1 5.537109,5.53711 A 5.5367718,5.5367718 0 0 1 12,224.32422 V 230.5 a 5.5367718,5.5367718 0 0 1 5.537109,5.53711 A 5.5367718,5.5367718 0 0 1 12,241.57422 V 247.75 a 5.5367718,5.5367718 0 0 1 5.537109,5.53711 A 5.5367718,5.5367718 0 0 1 12,258.82422 V 265 a 5.5367718,5.5367718 0 0 1 5.537109,5.53711 A 5.5367718,5.5367718 0 0 1 12,276.07422 V 280 c 0,4.432 3.568016,8 8,8 h 4 A 5.5367718,5.5367718 0 0 1 29.537109,282.46289 5.5367718,5.5367718 0 0 1 35.074219,288 H 41.25 A 5.5367718,5.5367718 0 0 1 46.787109,282.46289 5.5367718,5.5367718 0 0 1 52.324219,288 H 58.5 A 5.5367718,5.5367718 0 0 1 64.037109,282.46289 5.5367718,5.5367718 0 0 1 69.574219,288 H 75.75 A 5.5367718,5.5367718 0 0 1 81.287109,282.46289 5.5367718,5.5367718 0 0 1 86.824219,288 H 93 A 5.5367718,5.5367718 0 0 1 98.537109,282.46289 5.5367718,5.5367718 0 0 1 104.07422,288 H 108 c 4.432,0 8,-3.568 8,-8 v -3.92578 A 5.5367718,5.5367718 0 0 1 110.46289,270.53711 5.5367718,5.5367718 0 0 1 116,265 v -6.17578 A 5.5367718,5.5367718 0 0 1 110.46289,253.28711 5.5367718,5.5367718 0 0 1 116,247.75 v -6.17578 A 5.5367718,5.5367718 0 0 1 110.46289,236.03711 5.5367718,5.5367718 0 0 1 116,230.5 v -6.17578 A 5.5367718,5.5367718 0 0 1 110.46289,218.78711 5.5367718,5.5367718 0 0 1 116,213.25 v -6.17578 A 5.5367718,5.5367718 0 0 1 110.46289,201.53711 5.5367718,5.5367718 0 0 1 116,196 v -4 c 0,-4.432 -3.568,-8 -8,-8 h -3.92578 A 5.5367718,5.5367718 0 0 1 98.537109,189.53711 5.5367718,5.5367718 0 0 1 93,184 h -6.175781 a 5.5367718,5.5367718 0 0 1 -5.53711,5.53711 A 5.5367718,5.5367718 0 0 1 75.75,184 h -6.175781 a 5.5367718,5.5367718 0 0 1 -5.53711,5.53711 A 5.5367718,5.5367718 0 0 1 58.5,184 h -6.175781 a 5.5367718,5.5367718 0 0 1 -5.53711,5.53711 A 5.5367718,5.5367718 0 0 1 41.25,184 h -6.175781 a 5.5367718,5.5367718 0 0 1 -5.53711,5.53711 A 5.5367718,5.5367718 0 0 1 24,184 Z" /><rect
         y="196"
         x="24"
         height="79.999992"
         width="80"
         id="rect105"
         style="display:inline;vector-effect:none;fill:url(#linearGradient127);stroke:none;stroke-width:0.25;stroke-linecap:butt;stroke-linejoin:miter;stroke-miterlimit:4;stroke-dasharray:none;stroke-dashoffset:0;stroke-opacity:1;marker:none;marker-start:none;marker-mid:none;marker-end:none;paint-order:normal;enable-background:new"
         rx="4"
         ry="4" /><g
         id="g116" /><g
         id="g124"
         transform="translate(-25,30)"
         style="opacity:0.5"
         clip-path="url(#clipPath93)"><path
           style="color:#000000;fill:#000000;stroke-linecap:round;-inkscape-stroke:none"
           d="m 17.103516,223.84375 c -1.188775,0 -2.348667,0.18799 -3.472657,0.52148 -1.280888,0.38006 -2.478787,0.93257 -3.625,1.56641 -1.4164245,0.78327 -2.7447629,1.68337 -4.0312496,2.55078 -0.5555299,0.37457 -1.1030675,0.74433 -1.6425782,1.0957 a 2,2 0 0 0 -0.5839843,2.76758 2,2 0 0 0 2.7675781,0.58399 c 0.5753819,-0.37474 1.1397491,-0.75627 1.6953125,-1.13086 1.2864753,-0.86741 2.5266415,-1.69953 3.7304685,-2.36524 0.974181,-0.53871 1.912685,-0.96333 2.826172,-1.23437 0.8016,-0.23784 1.5624,-0.35547 2.335938,-0.35547 0.773536,0 1.53433,0.11763 2.335937,0.35547 0.913513,0.27106 1.851999,0.69566 2.826172,1.23437 1.203827,0.66571 2.444006,1.49784 3.730469,2.36524 1.286486,0.86741 2.616786,1.76751 4.033203,2.55078 1.146213,0.63384 2.342159,1.1883 3.623047,1.56836 1.123993,0.3335 2.283877,0.51953 3.472656,0.51953 1.188668,0 2.348737,-0.18608 3.472656,-0.51953 1.281075,-0.38009 2.478622,-0.93441 3.625,-1.56836 1.416333,-0.78324 2.746796,-1.68342 4.033203,-2.55078 1.286395,-0.86735 2.526702,-1.69954 3.730469,-2.36524 0.974323,-0.5388 1.912551,-0.96331 2.826172,-1.23437 0.801518,-0.23781 1.562459,-0.35547 2.335937,-0.35547 0.773544,0 1.532378,0.11763 2.333985,0.35547 0.91351,0.27106 1.851998,0.69566 2.826172,1.23437 1.203823,0.66571 2.445948,1.49783 3.732422,2.36524 1.286486,0.86741 2.616798,1.7675 4.033203,2.55078 1.146219,0.63384 2.342161,1.1883 3.623047,1.56836 1.123993,0.3335 2.283881,0.51953 3.472656,0.51953 1.188775,0 2.348667,-0.18603 3.472656,-0.51953 1.280888,-0.38006 2.478787,-0.93451 3.625,-1.56836 1.416426,-0.78327 2.744764,-1.68337 4.03125,-2.55078 0.555532,-0.37457 1.103068,-0.74237 1.642578,-1.09375 a 2,2 0 0 0 0.583985,-2.76758 2,2 0 0 0 -2.767579,-0.58398 c -0.575382,0.37474 -1.139749,0.75431 -1.695312,1.1289 -1.286475,0.86741 -2.526642,1.70148 -3.730469,2.36719 -0.97418,0.53871 -1.912684,0.96138 -2.826172,1.23242 -0.801596,0.23784 -1.5624,0.35547 -2.335937,0.35547 -0.773538,0 -1.532375,-0.11763 -2.333985,-0.35547 -0.913489,-0.27104 -1.851985,-0.69371 -2.826171,-1.23242 -1.203835,-0.66572 -2.445957,-1.49979 -3.732422,-2.36719 -1.286486,-0.86741 -2.616787,-1.76751 -4.033203,-2.55078 -1.146222,-0.63385 -2.342182,-1.18634 -3.623047,-1.56641 -1.123993,-0.33349 -2.283878,-0.52148 -3.472657,-0.52148 -1.188669,0 -2.348726,0.18801 -3.472656,0.52148 -1.281087,0.38009 -2.478622,0.93246 -3.625,1.56641 -1.41632,0.78324 -2.744837,1.68342 -4.03125,2.55078 -1.286401,0.86736 -2.528669,1.70151 -3.732422,2.36719 -0.974322,0.5388 -1.912539,0.96135 -2.826172,1.23242 -0.801528,0.23781 -1.562461,0.35547 -2.335937,0.35547 -0.773545,0 -1.532377,-0.11763 -2.333984,-0.35547 -0.913488,-0.27104 -1.851991,-0.69371 -2.826172,-1.23242 -1.203823,-0.66571 -2.445947,-1.49978 -3.732422,-2.36719 -1.286487,-0.86742 -2.61484,-1.76751 -4.03125,-2.55078 -1.146235,-0.63386 -2.344135,-1.18635 -3.625,-1.56641 -1.123993,-0.33349 -2.283883,-0.52148 -3.472656,-0.52148 z"
           id="path120" /><path
           style="color:#000000;fill:#000000;stroke-linecap:round;-inkscape-stroke:none"
           d="m 17.103516,213.84375 c -1.188775,0 -2.348667,0.18799 -3.472657,0.52148 -1.280888,0.38006 -2.478787,0.93257 -3.625,1.56641 -1.4164245,0.78327 -2.7447629,1.68337 -4.0312496,2.55078 -0.5555299,0.37457 -1.1030675,0.74433 -1.6425782,1.0957 a 2,2 0 0 0 -0.5839843,2.76758 2,2 0 0 0 2.7675781,0.58399 c 0.5753819,-0.37474 1.1397491,-0.75627 1.6953125,-1.13086 1.2864753,-0.86741 2.5266415,-1.69953 3.7304685,-2.36524 0.974181,-0.53871 1.912685,-0.96333 2.826172,-1.23437 0.8016,-0.23784 1.5624,-0.35547 2.335938,-0.35547 0.773536,0 1.53433,0.11763 2.335937,0.35547 0.913513,0.27106 1.851999,0.69566 2.826172,1.23437 1.203827,0.66571 2.444006,1.49784 3.730469,2.36524 1.286486,0.86741 2.616786,1.76751 4.033203,2.55078 1.146213,0.63384 2.342159,1.1883 3.623047,1.56836 1.123993,0.3335 2.283877,0.51953 3.472656,0.51953 1.188668,0 2.348737,-0.18608 3.472656,-0.51953 1.281075,-0.38009 2.478622,-0.93441 3.625,-1.56836 1.416333,-0.78324 2.746796,-1.68342 4.033203,-2.55078 1.286395,-0.86735 2.526702,-1.69954 3.730469,-2.36524 0.974323,-0.5388 1.912551,-0.96331 2.826172,-1.23437 0.801518,-0.23781 1.562459,-0.35547 2.335937,-0.35547 0.773544,0 1.532378,0.11763 2.333985,0.35547 0.91351,0.27106 1.851998,0.69566 2.826172,1.23437 1.203823,0.66571 2.445948,1.49783 3.732422,2.36524 1.286486,0.86741 2.616798,1.7675 4.033203,2.55078 1.146219,0.63384 2.342161,1.1883 3.623047,1.56836 1.123993,0.3335 2.283881,0.51953 3.472656,0.51953 1.188775,0 2.348667,-0.18603 3.472656,-0.51953 1.280888,-0.38006 2.478787,-0.93451 3.625,-1.56836 1.416426,-0.78327 2.744764,-1.68337 4.03125,-2.55078 0.555532,-0.37457 1.103068,-0.74237 1.642578,-1.09375 a 2,2 0 0 0 0.583985,-2.76758 2,2 0 0 0 -2.767579,-0.58398 c -0.575382,0.37474 -1.139749,0.75431 -1.695312,1.1289 -1.286475,0.86741 -2.526642,1.70148 -3.730469,2.36719 -0.97418,0.53871 -1.912684,0.96138 -2.826172,1.23242 -0.801596,0.23784 -1.5624,0.35547 -2.335937,0.35547 -0.773538,0 -1.532375,-0.11763 -2.333985,-0.35547 -0.913489,-0.27104 -1.851985,-0.69371 -2.826171,-1.23242 -1.203835,-0.66572 -2.445957,-1.49979 -3.732422,-2.36719 -1.286486,-0.86741 -2.616787,-1.76751 -4.033203,-2.55078 -1.146222,-0.63385 -2.342182,-1.18634 -3.623047,-1.56641 -1.123993,-0.33349 -2.283878,-0.52148 -3.472657,-0.52148 -1.188669,0 -2.348726,0.18801 -3.472656,0.52148 -1.281087,0.38009 -2.478622,0.93246 -3.625,1.56641 -1.41632,0.78324 -2.744837,1.68342 -4.03125,2.55078 -1.286401,0.86736 -2.528669,1.70151 -3.732422,2.36719 -0.974322,0.5388 -1.912539,0.96135 -2.826172,1.23242 -0.801528,0.23781 -1.562461,0.35547 -2.335937,0.35547 -0.773545,0 -1.532377,-0.11763 -2.333984,-0.35547 -0.913488,-0.27104 -1.851991,-0.69371 -2.826172,-1.23242 -1.203823,-0.66571 -2.445947,-1.49978 -3.732422,-2.36719 -1.286487,-0.86742 -2.61484,-1.76751 -4.03125,-2.55078 -1.146235,-0.63386 -2.344135,-1.18635 -3.625,-1.56641 -1.123993,-0.33349 -2.283883,-0.52148 -3.472656,-0.52148 z"
           id="path123" /><path
           style="color:#000000;fill:#000000;stroke-linecap:round;stroke-linejoin:round;-inkscape-stroke:none"
           d="m 17.103516,203.84375 c -1.188775,0 -2.348667,0.18799 -3.472657,0.52148 -1.280888,0.38006 -2.478787,0.93257 -3.625,1.56641 -1.4164245,0.78327 -2.7447629,1.68337 -4.0312496,2.55078 -0.5555299,0.37457 -1.1030675,0.74433 -1.6425782,1.0957 a 2,2 0 0 0 -0.5839843,2.76758 2,2 0 0 0 2.7675781,0.58399 c 0.5753819,-0.37474 1.1397491,-0.75627 1.6953125,-1.13086 1.2864753,-0.86741 2.5266415,-1.69953 3.7304685,-2.36524 0.974181,-0.53871 1.912685,-0.96333 2.826172,-1.23437 0.8016,-0.23784 1.5624,-0.35547 2.335938,-0.35547 0.773536,0 1.53433,0.11763 2.335937,0.35547 0.913513,0.27106 1.851999,0.69566 2.826172,1.23437 1.203827,0.66571 2.444006,1.49784 3.730469,2.36524 1.286486,0.86741 2.616786,1.76751 4.033203,2.55078 1.146213,0.63384 2.342159,1.1883 3.623047,1.56836 1.123993,0.3335 2.283877,0.51953 3.472656,0.51953 1.188668,0 2.348737,-0.18608 3.472656,-0.51953 1.281075,-0.38009 2.478622,-0.93441 3.625,-1.56836 1.416333,-0.78324 2.746796,-1.68342 4.033203,-2.55078 1.286395,-0.86735 2.526702,-1.69954 3.730469,-2.36524 0.974323,-0.5388 1.912551,-0.96331 2.826172,-1.23437 0.801518,-0.23781 1.562459,-0.35547 2.335937,-0.35547 0.773544,0 1.532378,0.11763 2.333985,0.35547 0.91351,0.27106 1.851998,0.69566 2.826172,1.23437 1.203823,0.66571 2.445948,1.49783 3.732422,2.36524 1.286486,0.86741 2.616798,1.7675 4.033203,2.55078 1.146219,0.63384 2.342161,1.1883 3.623047,1.56836 1.123993,0.3335 2.283881,0.51953 3.472656,0.51953 1.188775,0 2.348667,-0.18603 3.472656,-0.51953 1.280888,-0.38006 2.478787,-0.93451 3.625,-1.56836 1.416426,-0.78327 2.744764,-1.68337 4.03125,-2.55078 0.555532,-0.37457 1.103068,-0.74237 1.642578,-1.09375 a 2,2 0 0 0 0.583985,-2.76758 2,2 0 0 0 -2.767579,-0.58398 c -0.575382,0.37474 -1.139749,0.75431 -1.695312,1.1289 -1.286475,0.86741 -2.526642,1.70148 -3.730469,2.36719 -0.97418,0.53871 -1.912684,0.96138 -2.826172,1.23242 -0.801596,0.23784 -1.5624,0.35547 -2.335937,0.35547 -0.773538,0 -1.532375,-0.11763 -2.333985,-0.35547 -0.913489,-0.27104 -1.851985,-0.69371 -2.826171,-1.23242 -1.203835,-0.66572 -2.445957,-1.49979 -3.732422,-2.36719 -1.286486,-0.86741 -2.616787,-1.76751 -4.033203,-2.55078 -1.146222,-0.63385 -2.342182,-1.18634 -3.623047,-1.56641 -1.123993,-0.33349 -2.283878,-0.52148 -3.472657,-0.52148 -1.188669,0 -2.348726,0.18801 -3.472656,0.52148 -1.281087,0.38009 -2.478622,0.93246 -3.625,1.56641 -1.41632,0.78324 -2.744837,1.68342 -4.03125,2.55078 -1.286401,0.86736 -2.528669,1.70151 -3.732422,2.36719 -0.974322,0.5388 -1.912539,0.96135 -2.826172,1.23242 -0.801528,0.23781 -1.562461,0.35547 -2.335937,0.35547 -0.773545,0 -1.532377,-0.11763 -2.333984,-0.35547 -0.913488,-0.27104 -1.851991,-0.69371 -2.826172,-1.23242 -1.203823,-0.66571 -2.445947,-1.49978 -3.732422,-2.36719 -1.286487,-0.86742 -2.61484,-1.76751 -4.03125,-2.55078 -1.146235,-0.63386 -2.344135,-1.18635 -3.625,-1.56641 -1.123993,-0.33349 -2.283883,-0.52148 -3.472656,-0.52148 z"
           id="path124" /></g><g
         id="g1"
         transform="matrix(0.88300767,0,0,0.88300767,-100.65726,187.88062)" /></g></g></svg>
