<?xml version="1.0" encoding="UTF-8" standalone="no"?>
<svg
   viewBox="0 0 128 128"
   version="1.1"
   id="svg5"
   sodipodi:docname="sticky.svg"
   inkscape:version="1.3.2 (091e20ef0f, 2023-11-25)"
   xmlns:inkscape="http://www.inkscape.org/namespaces/inkscape"
   xmlns:sodipodi="http://sodipodi.sourceforge.net/DTD/sodipodi-0.dtd"
   xmlns="http://www.w3.org/2000/svg"
   xmlns:svg="http://www.w3.org/2000/svg">
  <defs
     id="defs5" />
  <sodipodi:namedview
     id="namedview5"
     pagecolor="#ffffff"
     bordercolor="#000000"
     borderopacity="0.25"
     inkscape:showpageshadow="2"
     inkscape:pageopacity="0.0"
     inkscape:pagecheckerboard="0"
     inkscape:deskcolor="#d1d1d1"
     inkscape:zoom="3.9211668"
     inkscape:cx="97.802521"
     inkscape:cy="55.468184"
     inkscape:window-width="1536"
     inkscape:window-height="795"
     inkscape:window-x="0"
     inkscape:window-y="0"
     inkscape:window-maximized="1"
     inkscape:current-layer="svg5" />
  <clipPath
     id="f">
    <path
       d="m 88 88 h 28 v 28 h -28 z m 0 0"
       id="path1" />
  </clipPath>
  <clipPath
     id="g">
    <path
       d="m 116 88 l -28 28 h -8 v -36 h 36 z m 0 0"
       id="path2" />
  </clipPath>
  <linearGradient
     id="h"
     gradientTransform="matrix(0 0.25 0.25 0 83 16)"
     gradientUnits="userSpaceOnUse"
     x1="344"
     x2="336"
     y1="76"
     y2="68">
    <stop
       offset="0"
       style="stop-color: rgb(103, 146, 179);"
       id="stop2" />
    <stop
       offset="1"
       style="stop-color: rgb(149, 185, 213);"
       id="stop3" />
  </linearGradient>
  <path
     d="m 20 12 h 88 c 4.433594 0 8 3.566406 8 8 v 68 l -28 28 h -68 c -4.433594 0 -8 -3.566406 -8 -8 v -88 c 0 -4.433594 3.566406 -8 8 -8 z m 0 0"
     style="fill: rgb(219, 230, 239);"
     id="path3" />
  <g
     clip-path="url(#f)"
     id="g5">
    <g
       clip-path="url(#g)"
       id="g4">
      <path
         d="m 88 96 v 20 c 0 4.417969 3.582031 8 8 8 h 20 c 4.417969 0 8 -3.582031 8 -8 v -20 c 0 -4.417969 -3.582031 -8 -8 -8 h -20 c -4.417969 0 -8 3.582031 -8 8 z m 0 0"
         fill="url(#h)"
         id="path4" />
    </g>
  </g>
</svg>
