<?xml version="1.0" encoding="utf-8"?>
<svg viewBox="0 0 128 128" xmlns="http://www.w3.org/2000/svg">
  <rect style="fill: rgb(199, 158, 118);" x="1.145" y="14.956" width="126.303" height="111.047" rx="10.086" ry="10.086"/>
  <rect style="fill: rgb(221, 193, 166);" x="1.145" y="1.433" width="126.303" height="111.047" rx="10.086" ry="10.086"/>
  <path d="M 1.148 105.301 L 1.148 103.413 C 1.148 109.94 6.44 115.249 12.967 115.271 L 115.62 115.618 C 122.148 115.641 127.44 110.367 127.44 103.839 L 127.44 105.727 C 127.44 112.255 122.148 117.529 115.62 117.506 L 12.967 117.159 C 6.44 117.137 1.148 111.829 1.148 105.301 Z" style="fill: rgb(154, 116, 80);"/>
  <path d="M 1.148 108.81 L 1.148 106.922 C 1.148 113.449 6.44 118.759 12.967 118.78 L 115.62 119.128 C 122.148 119.15 127.44 113.876 127.44 107.349 L 127.44 109.237 C 127.44 115.765 122.148 121.038 115.62 121.016 L 12.967 120.668 C 6.44 120.647 1.148 115.338 1.148 108.81 Z" style="fill: rgb(154, 116, 80);"/>
  <path d="M 1.148 112.319 L 1.148 110.431 C 1.148 116.959 6.44 122.268 12.967 122.29 L 115.62 122.637 C 122.148 122.659 127.44 117.387 127.44 110.858 L 127.44 112.747 C 127.44 119.275 122.148 124.548 115.62 124.525 L 12.967 124.178 C 6.44 124.156 1.148 118.847 1.148 112.319 Z" style="fill: rgb(154, 116, 80);"/>
  <path d="M 45.309 13.378 C 48.554 13.378 51.52 15.212 52.979 18.115 L 54.306 20.755 C 55.277 22.69 57.254 23.913 59.418 23.913 L 96.643 23.913 C 102.475 23.913 107.201 28.651 107.201 34.495 L 107.201 84.607 C 107.201 89.494 103.278 93.425 98.399 93.425 L 27.651 93.425 C 22.776 93.425 18.852 89.494 18.852 84.607 L 18.852 82.793 C 18.852 82.793 18.852 82.793 18.852 82.793 L 18.852 22.198 C 18.852 17.312 22.776 13.378 27.651 13.378 L 45.309 13.378 Z" style="fill: rgb(152, 106, 68);"/>
  <path d="M 45.309 19.228 C 48.554 19.228 51.52 21.061 52.979 23.965 L 54.306 26.604 C 55.277 28.54 57.254 29.762 59.418 29.762 L 96.643 29.762 C 102.475 29.762 107.201 34.5 107.201 40.344 L 107.201 90.456 C 107.201 95.344 103.278 99.274 98.399 99.274 L 27.651 99.274 C 22.776 99.274 18.852 95.344 18.852 90.456 L 18.852 88.644 C 18.852 88.644 18.852 88.644 18.852 88.644 L 18.852 28.047 C 18.852 23.162 22.776 19.228 27.651 19.228 L 45.309 19.228 Z" style="fill: rgb(181, 131, 90);"/>
  <title id="title4162">Adwaita Icon Template</title>
  <g style="display:inline;fill:#000000;enable-background:new" transform="matrix(7.991171, 0, 0, 8.003645, -232.881104, -4888.662598)" id="g12027"/>
  <g id="g883" style="fill: none; fill-opacity: 0.25098; stroke: rgb(165, 121, 179); stroke-opacity: 1; display: inline;" transform="matrix(1, 0, 0, 1, -89.090202, -18.585024)"/>
  <g id="g900" style="fill: none; fill-opacity: 0.25098; stroke: rgb(165, 121, 179); stroke-opacity: 1; display: inline;" transform="matrix(1, 0, 0, 1, -89.090202, -18.585024)"/>
  <ellipse style="fill: rgb(161, 123, 86);" cx="11.549" cy="101.994" rx="3.303" ry="3.303"/>
  <ellipse style="fill: rgb(161, 123, 86);" cx="117.549" cy="101.994" rx="3.303" ry="3.303"/>
  <ellipse style="fill: rgb(161, 123, 86);" cx="117.549" cy="10.994" rx="3.303" ry="3.303"/>
  <ellipse style="fill: rgb(161, 123, 86);" cx="11.549" cy="10.994" rx="3.303" ry="3.303"/>
</svg>