<?xml version="1.0" encoding="UTF-8" standalone="no"?>
<svg
   width="128"
   height="128"
   version="1.0"
   id="svg23"
   sodipodi:docname="mines.svg"
   inkscape:version="1.3.2 (091e20ef0f, 2023-11-25)"
   xml:space="preserve"
   xmlns:inkscape="http://www.inkscape.org/namespaces/inkscape"
   xmlns:sodipodi="http://sodipodi.sourceforge.net/DTD/sodipodi-0.dtd"
   xmlns:xlink="http://www.w3.org/1999/xlink"
   xmlns="http://www.w3.org/2000/svg"
   xmlns:svg="http://www.w3.org/2000/svg"><sodipodi:namedview
     id="namedview23"
     pagecolor="#ffffff"
     bordercolor="#000000"
     borderopacity="0.25"
     inkscape:showpageshadow="2"
     inkscape:pageopacity="0.0"
     inkscape:pagecheckerboard="0"
     inkscape:deskcolor="#d1d1d1"
     inkscape:zoom="2.148692"
     inkscape:cx="9.3079883"
     inkscape:cy="24.433469"
     inkscape:window-width="1536"
     inkscape:window-height="795"
     inkscape:window-x="0"
     inkscape:window-y="0"
     inkscape:window-maximized="1"
     inkscape:current-layer="path3" /><defs
     id="defs9"><linearGradient
       id="a"><stop
         offset="0"
         stop-color="#68676b"
         id="stop1" /><stop
         offset=".8"
         stop-color="#424048"
         id="stop2" /><stop
         offset="1"
         stop-color="#241f31"
         id="stop3" /></linearGradient><radialGradient
       xlink:href="#a"
       id="d"
       gradientUnits="userSpaceOnUse"
       gradientTransform="matrix(1.34416 .0006 -.00062 1.38763 -121.22 -718.103)"
       cx="279.422"
       cy="446.483"
       fx="279.422"
       fy="446.483"
       r="224" /><linearGradient
       xlink:href="#b"
       id="e"
       gradientUnits="userSpaceOnUse"
       gradientTransform="matrix(1.0015 0 0 .99993 72.09 56.015)"
       x1="43.844"
       y1="234"
       x2="-60"
       y2="234" /><linearGradient
       id="b"><stop
         offset="0"
         stop-color="#d5d3cf"
         id="stop4" /><stop
         offset=".038"
         stop-color="#e3e2df"
         id="stop5" /><stop
         offset=".077"
         stop-color="#c0bfbc"
         id="stop6" /><stop
         offset=".923"
         stop-color="#c0bfbc"
         id="stop7" /><stop
         offset=".962"
         stop-color="#e3e2df"
         id="stop8" /><stop
         offset="1"
         stop-color="#d5d3cf"
         id="stop9" /></linearGradient></defs><g
     transform="translate(0 -172)"
     id="g23"><rect
       ry="8.9419098"
       rx="8.8813772"
       height="53.651455"
       width="115.4579"
       x="6.2710495"
       y="240.83997"
       fill="url(#e)"
       id="rect9"
       style="fill:#cdcdcd;fill-opacity:1;stroke-width:1.11396" /><path
       d="m 61.779657,216.2497 v 73.77076 h 51.067913 c 4.92028,0 8.88137,-3.9881 8.88137,-8.94191 V 225.1916 c 0,-4.9538 -3.96109,-8.9419 -8.88137,-8.9419 z"
       fill="#deddda"
       id="path9"
       style="fill:#f5f5f5;fill-opacity:1;stroke-width:1.11396" /><path
       style="fill:#f5f5f5;fill-opacity:1;stroke-width:1.11396"
       d="m 15.152426,176.01111 c -4.920282,0 -8.8813766,3.98809 -8.8813766,8.94191 v 95.89004 c 0,4.95383 3.9610946,8.94192 8.8813766,8.94192 h 48.847576 v -57.88693 h 57.728938 v -46.94503 c 0,-4.95382 -3.96109,-8.94191 -8.88137,-8.94191 H 66.220347 v 2.23548 h -4.44069 v -2.23548 z"
       id="path10"
       sodipodi:nodetypes="sssscccssccccs" /><path
       d="M 6.2710494,231.89805 H 121.72894"
       fill="none"
       stroke="#deddda"
       stroke-width="4.45579"
       id="path11"
       style="stroke:#dcdcdc;stroke-opacity:1" /><path
       d="M 64.000002,178.24659 V 290.02046"
       fill="none"
       stroke="#deddda"
       stroke-width="4.45579"
       id="path13"
       style="stroke:#dcdcdc;stroke-opacity:1" /><g
       id="path3"
       transform="matrix(0.03608482,0,0,0.03608482,129.11121,326.44366)"
       style="stroke:#ea4950;stroke-width:12.0826"><path
         id="path4"
         style="color:#000000;fill:#ea4950;stroke:none;stroke-width:14.5476;-inkscape-stroke:none"
         d="m -1001.9198,-2372.2911 c -315.8815,0 -572.6544,256.7245 -572.6544,572.6661 0,315.9406 256.7734,572.6569 572.6544,572.6569 315.98873,0 572.66612,-256.675 572.66612,-572.6569 0,-315.992 -256.67752,-572.6661 -572.66612,-572.6661 z m 0,14.5469 c 308.115,0 558.11684,250.0008 558.11684,558.1192 0,308.1082 -250.00173,558.11 -558.11684,558.11 -308.0033,0 -558.1052,-250.0474 -558.1052,-558.11 0,-308.0637 250.1017,-558.1192 558.1052,-558.1192 z m 0,7.4734 c -303.9717,0 -550.6342,246.614 -550.6342,550.6458 0,304.0308 246.6626,550.6365 550.6342,550.6365 304.08602,0 550.64584,-246.5576 550.64584,-550.6365 0,-304.0896 -246.55987,-550.6458 -550.64584,-550.6458 z m 0,14.547 c 296.22754,0 536.09891,239.8677 536.09891,536.0988 0,296.2202 -239.87141,536.0896 -536.09891,536.0896 -296.1084,0 -536.0849,-239.9223 -536.0849,-536.0896 0,-296.1684 239.9766,-536.0988 536.0849,-536.0988 z m 0,7.4757 c -292.0606,0 -528.6139,236.5023 -528.6139,528.6231 0,292.1198 236.553,528.6163 528.6139,528.6163 292.1822,0 528.62556,-236.4415 528.62556,-528.6163 0,-292.1857 -236.44331,-528.6231 -528.62556,-528.6231 z m 0,14.5469 c 284.34021,0 514.07626,229.7326 514.07626,514.0762 0,284.3324 -229.73624,514.0693 -514.07626,514.0693 -284.2134,0 -514.0646,-229.7972 -514.0646,-514.0693 0,-284.2731 229.8517,-514.0762 514.0646,-514.0762 z m 0,68.2784 c -245.8232,0 -445.7885,199.9268 -445.7885,445.7978 0,245.8712 199.9663,445.7862 445.7885,445.7862 245.91941,0 445.7955,-199.8782 445.7955,-445.7862 0,-245.9191 -199.87609,-445.7978 -445.7955,-445.7978 z m 0,14.5469 c 238.04208,0 431.24622,193.209 431.24622,431.2509 0,238.0305 -193.20414,431.2393 -431.24622,431.2393 -237.9401,0 -431.2393,-193.2506 -431.2393,-431.2393 0,-237.9885 193.2987,-431.2509 431.2393,-431.2509 z m 0,7.471 c -233.9105,0 -423.7659,189.8215 -423.7659,423.7799 0,233.9586 189.8557,423.766 423.7659,423.766 234.01564,0 423.77522,-189.7621 423.77522,-423.766 0,-234.0155 -189.75958,-423.7799 -423.77522,-423.7799 z m 0,14.5493 c 226.15793,0 409.22829,183.0726 409.22829,409.2306 0,226.1459 -183.07036,409.219 -409.22829,409.219 -226.0468,0 -409.219,-183.1242 -409.219,-409.219 0,-226.0946 183.1725,-409.2306 409.219,-409.2306 z m 0,7.4734 c -221.9962,0 -401.7456,179.7128 -401.7456,401.7572 0,222.0446 179.7488,401.7456 401.7456,401.7456 222.11046,0 401.75494,-179.6474 401.75494,-401.7456 0,-222.1104 -179.64451,-401.7572 -401.75494,-401.7572 z m 0,14.5468 c 214.27449,0 387.20565,172.9357 387.20565,387.2104 0,214.262 -172.93118,387.1987 -387.20565,387.1987 -214.154,0 -387.1963,-172.9971 -387.1963,-387.1987 0,-214.2013 173.0434,-387.2104 387.1963,-387.2104 z m 8e-4,-178.1829 c -311.9427,0 -565.3808,253.3896 -565.3808,565.3926 0,312.0019 253.4384,565.3833 565.3808,565.3833 312.05232,0 565.39045,-253.338 565.39045,-565.3833 0,-312.0556 -253.33825,-565.3926 -565.39045,-565.3926 z m 0,44.0429 c 288.26161,0 521.34991,233.0847 521.34991,521.3497 0,288.2538 -233.08842,521.3427 -521.34991,521.3427 -288.1373,0 -521.3403,-233.1465 -521.3403,-521.3427 0,-288.1973 233.2033,-521.3497 521.3403,-521.3497 z m 0,82.8253 c -241.882,0 -438.5149,196.5943 -438.5149,438.5244 0,241.9301 196.6336,438.5127 438.5149,438.5127 241.98107,0 438.5199,-196.5433 438.5199,-438.5127 0,-241.9808 -196.53883,-438.5244 -438.5199,-438.5244 z m 0,44.0406 c 218.19277,0 394.47936,176.291 394.47936,394.4838 0,218.1802 -176.28659,394.4722 -394.47936,394.4722 -218.0755,0 -394.472,-176.3489 -394.472,-394.4722 0,-218.1231 176.3973,-394.4838 394.472,-394.4838 z m 543.37084,394.4839 c 0,-300.1606 -243.21442,-543.3714 -543.37154,-543.3714 -300.0402,0 -543.3594,243.271 -543.3594,543.3714 0,300.0993 243.3192,543.3631 543.3594,543.3631 300.15712,0 543.37154,-243.2132 543.37154,-543.3631 z m -126.87055,0 c 0,230.0751 -186.41391,416.4925 -416.50099,416.4925 -229.9787,0 -416.4925,-186.4656 -416.4925,-416.4925 0,-230.0268 186.5138,-416.5045 416.4925,-416.5045 230.08708,0 416.50099,186.4175 416.50099,416.5045 z" /></g><g
       id="path2-2"
       transform="matrix(0.04049162,0,0,0.04049162,34.969554,204.17139)"><path
         style="color:#000000;fill:#3584e4;stroke-width:0.859308;-inkscape-stroke:none"
         d="m -336.49904,-434.67429 c -21.50256,-3e-5 -43.00507,8.09903 -59.205,24.29896 -32.39963,32.39962 -32.3987,86.00984 0,118.41001 L -112.38068,-8.6419557 -395.70404,274.68141 c -32.3987,32.40017 -32.39963,86.01038 0,118.41 32.39986,32.39986 86.01069,32.39912 118.41,-0.002 L 6.0293296,109.76804 289.35269,393.08974 c 32.39902,32.40049 86.00838,32.40065 118.40833,0.002 32.4008,-32.39931 32.40154,-86.01015 0.002,-118.41001 l -50.31681,-50.31681 -2.69377,-2.69378 -230.3131,-230.3130957 218.6839,-218.6839043 2.8515,-2.85146 61.78796,-61.78796 c 32.39986,-32.39986 32.39912,-86.01069 -0.002,-118.41 -32.39996,-32.39898 -86.00931,-32.39882 -118.40833,0.002 l -283.3233624,283.3217 -283.3233676,-283.3217 -0.002,-0.002 c -16.19946,-16.19927 -37.70152,-24.29893 -59.20332,-24.29897 z"
         id="path10-2-7"
         sodipodi:nodetypes="sscccscccsscccccsscccsss" /></g></g></svg>
